<svg xmlns="http://www.w3.org/2000/svg" xmlns:xlink="http://www.w3.org/1999/xlink" width="500" zoomAndPan="magnify" viewBox="0 0 375 374.999991" height="500" preserveAspectRatio="xMidYMid meet" version="1.0"><defs><clipPath id="05175a4f12"><path d="M 11 56.25 L 364 56.25 L 364 318.75 L 11 318.75 Z M 11 56.25 " clip-rule="nonzero"/></clipPath></defs><g clip-path="url(#05175a4f12)"><path fill="#000000" d="M 168.195312 67.539062 C 169.074219 67.539062 170.175781 67.867188 172 68.539062 C 175.46875 69.765625 176.148438 70.359375 177.078125 72.8125 C 177.585938 74.125 178.179688 74.886719 179.113281 75.351562 C 182.539062 76.957031 183.597656 77.679688 183.851562 78.480469 C 183.980469 78.949219 184.105469 80.976562 184.148438 83.007812 C 184.148438 85.082031 184.402344 87.578125 184.699219 88.636719 C 185.039062 89.691406 185.503906 91.640625 185.757812 92.949219 C 186.011719 94.304688 186.433594 95.488281 186.648438 95.617188 C 186.859375 95.785156 187.027344 96.292969 187.027344 96.84375 C 187.027344 97.351562 187.238281 97.984375 187.492188 98.238281 C 187.746094 98.492188 188.003906 99.421875 188.042969 100.3125 C 188.128906 101.242188 188.59375 102.890625 189.101562 104.078125 C 190.160156 106.402344 190.585938 109.238281 189.949219 109.617188 C 189.910156 109.640625 189.863281 109.652344 189.800781 109.652344 C 189.210938 109.652344 187.597656 108.511719 185.25 106.359375 C 179.367188 100.945312 170.304688 96.800781 159.296875 94.472656 C 158.15625 94.21875 156.925781 93.839844 156.671875 93.585938 C 155.871094 92.992188 155.996094 90.285156 156.925781 88.804688 C 157.351562 88.085938 157.859375 86.859375 158.027344 86.054688 C 158.199219 85.25 158.621094 84.234375 158.917969 83.769531 C 159.257812 83.304688 159.511719 82.628906 159.511719 82.246094 C 159.511719 81.867188 159.765625 81.316406 160.101562 81.0625 C 160.652344 80.597656 160.949219 79.707031 162.21875 74.25 C 162.980469 71.164062 163.785156 69.808594 165.859375 68.414062 C 166.726562 67.835938 167.363281 67.539062 168.195312 67.539062 Z M 317.777344 121.855469 C 317.78125 121.855469 317.78125 121.855469 317.785156 121.859375 L 317.773438 121.859375 C 317.773438 121.855469 317.777344 121.855469 317.777344 121.855469 Z M 231.859375 113.613281 C 232.378906 113.613281 232.894531 113.925781 233.214844 114.527344 C 233.554688 115.117188 233.722656 118.289062 233.808594 123.496094 C 233.851562 129.671875 234.019531 131.996094 234.570312 133.4375 C 235.289062 135.464844 235.164062 136.441406 234.105469 136.441406 C 233.597656 136.441406 233.554688 136.566406 233.9375 136.945312 C 234.734375 137.746094 234.601562 138.449219 233.828125 138.449219 C 233.699219 138.449219 233.550781 138.429688 233.386719 138.386719 C 233.183594 138.335938 233.011719 138.3125 232.871094 138.3125 L 232.859375 138.3125 C 232.132812 138.316406 232.160156 138.914062 233.003906 139.867188 C 233.722656 140.671875 233.511719 141.9375 232.496094 142.996094 C 231.902344 143.546875 231.902344 143.800781 232.539062 144.984375 C 233.003906 145.957031 233.132812 146.929688 232.960938 148.074219 C 232.539062 150.867188 232.328125 151.246094 231.355469 151.246094 C 230.847656 151.246094 230.167969 151.628906 229.871094 152.09375 C 229.550781 152.636719 228.863281 152.9375 228.195312 152.9375 C 227.726562 152.9375 227.265625 152.789062 226.949219 152.472656 C 226.785156 152.308594 226.636719 152.222656 226.480469 152.222656 C 226.273438 152.222656 226.054688 152.371094 225.765625 152.683594 C 225.34375 153.085938 225.183594 153.289062 224.929688 153.289062 C 224.675781 153.289062 224.324219 153.085938 223.523438 152.683594 C 221.996094 151.964844 221.996094 151.921875 222.632812 150.738281 C 222.929688 150.1875 222.929688 149.722656 222.675781 149.46875 C 222.167969 148.960938 222.675781 146.972656 223.691406 145.410156 C 224.113281 144.773438 224.496094 143.800781 224.539062 143.207031 C 224.578125 142.617188 224.792969 140.753906 224.960938 139.105469 C 225.171875 136.609375 225.46875 135.804688 226.316406 134.960938 C 226.867188 134.367188 227.542969 133.902344 227.796875 133.902344 C 228.050781 133.902344 227.925781 133.5625 227.542969 133.140625 C 226.65625 132.167969 226.65625 130.980469 227.457031 129.417969 C 227.796875 128.738281 228.09375 127.34375 228.09375 126.285156 C 228.09375 125.1875 228.433594 123.832031 228.898438 123.113281 C 229.40625 122.226562 229.746094 120.703125 229.871094 118.375 C 230 116.472656 230.296875 114.609375 230.632812 114.273438 C 230.980469 113.828125 231.421875 113.613281 231.859375 113.613281 Z M 268.886719 106.488281 C 269.367188 106.488281 269.890625 106.753906 270.640625 107.25 C 271.359375 107.714844 272.460938 108.09375 273.097656 108.09375 C 273.902344 108.09375 274.746094 108.519531 275.507812 109.363281 C 276.90625 110.84375 278.390625 111.480469 280.503906 111.480469 C 281.351562 111.480469 282.664062 111.816406 283.34375 112.242188 C 284.0625 112.664062 285.289062 113.171875 286.09375 113.296875 C 290.15625 114.058594 293.503906 115.289062 296.042969 116.9375 C 297.824219 118.113281 298.617188 118.542969 299.398438 118.542969 C 299.601562 118.542969 299.804688 118.511719 300.023438 118.460938 C 300.257812 118.410156 300.503906 118.386719 300.75 118.386719 C 301.351562 118.386719 301.96875 118.527344 302.476562 118.796875 C 305.78125 120.449219 307.515625 121.210938 308.109375 121.210938 C 308.21875 121.210938 308.34375 121.234375 308.480469 121.285156 L 308.472656 121.285156 L 310.042969 122.464844 L 309.214844 123.683594 L 308.777344 125.796875 C 307.742188 128.546875 306.746094 131.515625 305.78125 134.699219 C 305.582031 135.363281 305.359375 136.8125 305.105469 139.050781 C 305.042969 139.503906 305.011719 140.632812 305.007812 142.429688 C 304.929688 142.867188 304.84375 143.460938 304.75 144.210938 C 304.644531 144.148438 304.535156 144.085938 304.425781 144.011719 C 303.789062 143.589844 302.773438 143.207031 302.179688 143.207031 C 301.589844 143.207031 300.742188 142.953125 300.277344 142.617188 C 299.808594 142.320312 298.667969 141.8125 297.734375 141.515625 C 296.804688 141.21875 295.324219 140.542969 294.476562 139.949219 C 292.144531 138.382812 285.609375 136.167969 283.4375 136.167969 C 283.320312 136.167969 283.21875 136.171875 283.128906 136.1875 C 282.324219 136.3125 281.226562 136.398438 280.71875 136.441406 C 280.125 136.441406 279.742188 136.695312 279.742188 137.074219 C 279.742188 137.445312 279.515625 137.589844 278.820312 137.589844 C 278.574219 137.589844 278.261719 137.574219 277.878906 137.539062 C 277.460938 137.503906 277.046875 137.484375 276.699219 137.484375 C 276.203125 137.484375 275.839844 137.523438 275.765625 137.625 C 275.425781 137.921875 272.503906 138.976562 271.867188 138.976562 C 271.574219 138.976562 271.277344 138.597656 271.148438 138.132812 C 270.996094 137.578125 270.785156 137.320312 270.601562 137.320312 C 270.375 137.320312 270.195312 137.707031 270.21875 138.429688 C 270.21875 139.484375 269.964844 139.695312 268.144531 140.289062 C 267 140.671875 265.898438 141.304688 265.6875 141.644531 C 265.519531 141.949219 265.210938 142.144531 264.945312 142.144531 C 264.878906 142.144531 264.816406 142.132812 264.757812 142.109375 C 264.695312 142.082031 264.632812 142.070312 264.570312 142.070312 C 264.316406 142.070312 264.054688 142.261719 263.953125 142.53125 C 263.78125 142.914062 263.316406 143.207031 262.851562 143.207031 C 262.386719 143.207031 261.878906 143.589844 261.75 144.097656 C 261.457031 144.945312 260.046875 145.695312 259.207031 145.695312 C 258.835938 145.695312 258.574219 145.546875 258.574219 145.195312 C 258.574219 144.902344 258.195312 144.433594 257.730469 144.140625 C 257.394531 143.941406 257.1875 143.835938 257.0625 143.835938 C 256.917969 143.835938 256.882812 143.972656 256.882812 144.265625 C 256.882812 144.605469 257.09375 144.902344 257.304688 144.902344 C 257.558594 144.902344 257.730469 145.449219 257.730469 146.167969 C 257.730469 146.929688 257.515625 147.4375 257.179688 147.4375 C 256.839844 147.4375 256.164062 147.945312 255.570312 148.539062 C 254.261719 149.945312 253.054688 150.617188 251.890625 150.617188 C 251.546875 150.617188 251.207031 150.558594 250.871094 150.441406 C 250.117188 150.183594 249.699219 150.039062 249.507812 150.039062 L 249.496094 150.039062 C 249.261719 150.039062 249.402344 150.28125 249.683594 150.824219 C 250.476562 152.285156 248.53125 156.558594 247.269531 156.558594 C 247.183594 156.558594 247.097656 156.535156 247.019531 156.492188 C 246.902344 156.421875 246.828125 156.382812 246.789062 156.378906 L 246.78125 156.378906 C 246.726562 156.386719 246.804688 156.507812 247.019531 156.746094 C 247.601562 157.402344 247.117188 158.210938 246.355469 158.210938 C 246.230469 158.210938 246.097656 158.191406 245.960938 158.140625 C 245.734375 158.082031 245.589844 158.050781 245.519531 158.046875 L 245.511719 158.046875 C 245.398438 158.050781 245.527344 158.15625 245.875 158.394531 C 246.425781 158.777344 246.382812 158.945312 245.578125 159.496094 C 245.070312 159.835938 244.394531 160.382812 244.097656 160.722656 C 243.800781 161.019531 243.039062 161.398438 242.402344 161.527344 C 242.089844 161.605469 241.855469 161.652344 241.675781 161.652344 C 241.273438 161.652344 241.140625 161.421875 240.964844 160.808594 C 240.792969 160.046875 241.007812 159.328125 241.8125 158.3125 C 242.402344 157.507812 242.910156 156.660156 242.910156 156.363281 C 242.910156 156.109375 243.378906 155.6875 243.925781 155.476562 C 244.648438 155.222656 245.027344 154.671875 245.238281 153.53125 C 245.535156 151.796875 246.933594 150.019531 247.992188 149.976562 C 248.5 149.933594 248.5 149.851562 247.863281 149.386719 C 247.230469 148.878906 247.230469 148.75 247.78125 148.285156 C 248.117188 147.988281 248.414062 147.101562 248.414062 146.339844 C 248.414062 145.367188 248.625 144.902344 249.050781 144.902344 C 249.390625 144.902344 249.558594 144.648438 249.429688 144.351562 C 249.050781 143.335938 251.503906 139.230469 252.605469 138.976562 C 253.578125 138.765625 253.578125 138.722656 252.902344 138.003906 C 252.011719 137.117188 252.308594 136.015625 253.496094 135.71875 C 254.128906 135.550781 254.257812 135.253906 254.046875 134.28125 C 253.875 133.351562 254.003906 133.011719 254.597656 132.757812 C 255.992188 132.25 256.417969 131.617188 255.738281 131.152344 C 255.273438 130.8125 255.316406 130.476562 256.035156 129.035156 C 256.675781 127.757812 257.65625 126.886719 258.296875 126.886719 C 258.503906 126.886719 258.671875 126.980469 258.789062 127.175781 C 258.894531 127.308594 259.046875 127.375 259.210938 127.375 C 259.3125 127.375 259.410156 127.347656 259.507812 127.300781 C 259.71875 127.132812 259.464844 126.710938 258.828125 126.328125 C 258.238281 125.90625 257.855469 125.441406 258.023438 125.269531 C 258.238281 125.101562 258.363281 124.804688 258.40625 124.679688 C 258.449219 124.339844 259.253906 122.351562 260.140625 120.492188 C 260.480469 119.773438 260.648438 118.96875 260.523438 118.757812 C 260.394531 118.503906 260.394531 118.25 260.566406 118.164062 C 261.15625 117.910156 262.808594 115.328125 263.65625 113.382812 C 264.203125 112.121094 264.960938 111.402344 265.605469 111.402344 C 265.910156 111.402344 266.191406 111.5625 266.40625 111.902344 C 266.523438 112.09375 266.921875 112.289062 267.28125 112.289062 C 267.3125 112.289062 267.347656 112.285156 267.382812 112.285156 C 267.804688 112.285156 267.550781 111.988281 266.746094 111.605469 C 264.96875 110.71875 264.96875 109.828125 266.789062 107.925781 C 267.699219 106.941406 268.257812 106.488281 268.886719 106.488281 Z M 251.964844 185.566406 C 252.496094 185.566406 253.152344 185.96875 254.128906 186.824219 C 255.910156 188.390625 255.992188 189.449219 254.722656 193.253906 C 253.75 196.132812 252.902344 197.359375 251.84375 197.359375 C 251.464844 197.359375 250.617188 197.824219 249.898438 198.417969 C 249.160156 199.054688 248.46875 199.371094 247.925781 199.371094 C 247.316406 199.371094 246.894531 198.96875 246.804688 198.164062 C 246.722656 197.273438 247.058594 196.722656 248.5 195.496094 C 249.601562 194.566406 250.574219 193.253906 250.957031 192.15625 C 251.546875 190.589844 251.546875 190.167969 250.996094 188.644531 C 250.445312 187.164062 250.445312 186.738281 250.914062 186.191406 C 251.253906 185.78125 251.578125 185.566406 251.964844 185.566406 Z M 170.3125 199.5 C 170.667969 199.5 171.011719 199.691406 171.320312 200.066406 C 171.703125 200.488281 171.617188 200.871094 170.984375 201.632812 C 170.582031 202.132812 170.34375 202.351562 170.097656 202.351562 C 169.921875 202.351562 169.742188 202.246094 169.5 202.054688 C 168.695312 201.378906 168.65625 200.660156 169.332031 199.980469 C 169.65625 199.660156 169.988281 199.5 170.3125 199.5 Z M 199.683594 235.011719 C 199.527344 235.011719 199.351562 235.089844 199.179688 235.261719 C 198.839844 235.601562 199.222656 236.277344 199.769531 236.277344 C 199.984375 236.277344 200.152344 235.984375 200.152344 235.644531 C 200.152344 235.246094 199.949219 235.011719 199.683594 235.011719 Z M 164.898438 56.171875 C 164.703125 56.171875 164.589844 56.257812 164.589844 56.441406 C 164.589844 56.636719 164.316406 56.738281 163.792969 56.738281 C 163.519531 56.738281 163.175781 56.710938 162.769531 56.652344 C 162.269531 56.582031 161.898438 56.535156 161.605469 56.535156 C 160.859375 56.535156 160.613281 56.847656 159.976562 57.878906 C 159.128906 59.234375 159.085938 59.570312 159.550781 61.347656 C 160.058594 63.378906 159.636719 65.367188 158.664062 65.367188 C 158.453125 65.367188 158.238281 65.664062 158.238281 66.042969 C 158.238281 66.425781 157.859375 67.398438 157.351562 68.160156 C 156.886719 68.964844 156.589844 69.726562 156.671875 69.894531 C 156.96875 70.359375 155.871094 75.476562 155.359375 76.070312 C 155.105469 76.367188 154.472656 78.3125 153.964844 80.386719 C 153.457031 82.5 152.609375 85.164062 152.058594 86.351562 C 151.507812 87.535156 150.914062 89.144531 150.789062 89.945312 C 150.367188 92.148438 149.476562 93.628906 148.417969 93.921875 C 147.867188 94.050781 146.683594 94.386719 145.75 94.601562 C 144.820312 94.855469 143.632812 95.234375 143.082031 95.445312 C 142.535156 95.65625 141.601562 95.828125 140.96875 95.828125 C 140.332031 95.828125 138.894531 96.125 137.707031 96.503906 C 136.5625 96.882812 135.421875 97.222656 135.167969 97.265625 C 129.28125 98.746094 126.148438 99.886719 122.210938 101.917969 C 114.847656 105.726562 109.128906 110.675781 103.628906 118.035156 C 97.617188 126.074219 96.304688 129.164062 95.667969 136.441406 C 95.285156 140.710938 95.285156 142.152344 95.921875 148.917969 C 96.597656 155.773438 100.960938 166.6875 105.53125 172.695312 C 110.230469 178.957031 117.046875 184.03125 122.679688 185.472656 C 123.734375 185.765625 125.640625 186.527344 126.910156 187.207031 C 129.941406 188.757812 135.144531 190.511719 136.828125 190.511719 C 136.882812 190.511719 136.9375 190.507812 136.988281 190.503906 C 137.109375 190.5 137.226562 190.496094 137.339844 190.496094 C 138.582031 190.496094 139.1875 190.929688 139.1875 191.902344 C 139.1875 192.703125 139.105469 192.746094 136.859375 192.917969 C 136.183594 192.957031 134.40625 193.253906 132.964844 193.550781 C 131.890625 193.78125 131.089844 193.898438 130.390625 193.898438 C 129.796875 193.898438 129.277344 193.8125 128.730469 193.636719 C 127.84375 193.382812 124.667969 192.875 121.621094 192.492188 C 118.613281 192.113281 115.820312 191.691406 115.480469 191.5625 C 115.140625 191.4375 113.914062 191.308594 112.730469 191.222656 C 110.441406 191.054688 108.539062 190.464844 108.070312 189.785156 C 107.886719 189.46875 107.632812 189.324219 107.433594 189.324219 C 107.183594 189.324219 107.019531 189.554688 107.183594 189.957031 C 107.351562 190.464844 107.015625 190.589844 105.40625 190.589844 C 104.304688 190.589844 102.90625 190.335938 102.273438 189.996094 C 101.820312 189.773438 101.488281 189.648438 101.273438 189.648438 C 101.128906 189.648438 101.035156 189.707031 101.003906 189.828125 C 100.941406 189.988281 100.835938 190.0625 100.675781 190.0625 C 100.492188 190.0625 100.238281 189.964844 99.902344 189.785156 C 99.5625 189.605469 99.34375 189.511719 99.203125 189.511719 C 99.011719 189.511719 98.96875 189.691406 98.96875 190.082031 C 98.96875 191.183594 97.871094 192.027344 95.371094 192.832031 C 93.128906 193.59375 86.058594 194.820312 84.109375 194.820312 C 83.390625 194.820312 82.332031 195.328125 81.527344 196.046875 C 79.621094 197.65625 78.523438 198.203125 77.039062 198.203125 C 76.363281 198.203125 75.21875 198.5 74.585938 198.839844 C 73.90625 199.175781 72.976562 199.472656 72.511719 199.472656 C 72.042969 199.472656 71.410156 199.855469 71.113281 200.320312 C 70.730469 200.996094 70.140625 201.167969 68.574219 201.167969 C 66.921875 201.167969 66.328125 201.378906 65.523438 202.222656 C 64.890625 202.902344 64.085938 203.28125 63.238281 203.28125 C 62.179688 203.28125 61.800781 203.535156 61.332031 204.550781 C 60.488281 206.496094 59.003906 207.257812 56 207.300781 C 53.839844 207.34375 52.992188 207.597656 51.214844 208.695312 C 50.03125 209.414062 47.957031 210.347656 46.601562 210.726562 C 44.101562 211.445312 42.664062 212.25 40.25 214.324219 C 38.597656 215.71875 32.757812 218.679688 30.851562 219.0625 C 30.089844 219.230469 28.691406 219.992188 27.761719 220.835938 C 26.789062 221.640625 24.839844 222.699219 23.359375 223.164062 C 21.875 223.671875 20.226562 224.433594 19.632812 224.898438 C 19.082031 225.320312 18.40625 225.703125 18.109375 225.703125 C 17.390625 225.703125 12.222656 230.78125 11.460938 232.175781 C 10.910156 233.234375 10.910156 233.488281 11.546875 234.417969 C 11.949219 235.042969 12.324219 235.359375 12.792969 235.359375 C 13.300781 235.359375 13.921875 234.980469 14.804688 234.207031 C 16.667969 232.597656 20.183594 230.78125 21.453125 230.78125 C 22.089844 230.78125 23.148438 230.1875 24.035156 229.300781 C 25.578125 227.792969 28.820312 226.5 30.730469 226.5 C 31.074219 226.5 31.375 226.542969 31.613281 226.632812 C 32.007812 226.769531 32.375 226.835938 32.6875 226.835938 C 33.34375 226.835938 33.773438 226.542969 33.773438 226 C 33.773438 224.773438 35.890625 223.460938 39.574219 222.53125 C 41.605469 221.980469 44.144531 221.261719 45.160156 220.878906 C 46.175781 220.5 47.234375 220.203125 47.574219 220.203125 C 47.871094 220.203125 49.269531 219.441406 50.707031 218.46875 C 52.148438 217.539062 53.925781 216.566406 54.644531 216.3125 C 56.929688 215.59375 61.96875 213.097656 62.5625 212.375 C 62.859375 212.039062 63.703125 211.742188 64.425781 211.742188 C 65.144531 211.742188 66.203125 211.363281 66.792969 210.894531 C 67.386719 210.429688 68.277344 210.050781 68.785156 210.050781 C 69.292969 210.050781 70.351562 209.667969 71.113281 209.246094 C 72.46875 208.484375 74.160156 208.144531 79.917969 207.679688 C 81.402344 207.554688 84.238281 206.960938 86.140625 206.410156 C 88.5625 205.726562 89.695312 205.519531 92.5625 205.519531 C 93.40625 205.519531 94.402344 205.535156 95.625 205.566406 C 98.925781 205.691406 101.804688 205.945312 102.058594 206.199219 C 102.167969 206.304688 102.289062 206.359375 102.429688 206.359375 C 102.691406 206.359375 103.023438 206.1875 103.457031 205.863281 C 104.003906 205.4375 105.210938 205.207031 106.316406 205.207031 C 107.09375 205.207031 107.824219 205.320312 108.242188 205.566406 C 108.335938 205.628906 108.492188 205.65625 108.699219 205.65625 C 109.613281 205.65625 111.480469 205.089844 113.066406 204.296875 C 113.820312 203.921875 114.601562 203.738281 115.386719 203.738281 C 116.371094 203.738281 117.355469 204.027344 118.273438 204.59375 C 119.136719 205.125 119.703125 205.328125 120.886719 205.328125 C 121.390625 205.328125 122.007812 205.289062 122.804688 205.226562 C 124.457031 205.101562 127.96875 204.886719 130.511719 204.761719 C 140.542969 204.339844 143.082031 204.128906 145.453125 203.746094 C 146.765625 203.492188 149.390625 203.195312 151.253906 203.070312 C 153.117188 202.941406 155.828125 202.773438 157.308594 202.648438 C 158.746094 202.5625 160.273438 202.308594 160.695312 202.097656 C 161.605469 201.621094 163.488281 201.378906 165.113281 201.378906 C 166.664062 201.378906 167.976562 201.597656 167.976562 202.054688 C 167.976562 202.222656 167.257812 202.433594 166.410156 202.519531 C 164.378906 202.6875 164.292969 203.449219 166.285156 203.621094 C 167.089844 203.703125 167.976562 203.957031 168.230469 204.167969 C 168.949219 204.761719 169.203125 207.128906 168.738281 208.1875 C 168.316406 209.121094 166.75 210.050781 165.648438 210.050781 C 165.308594 210.050781 165.015625 210.429688 165.015625 210.894531 C 165.015625 211.320312 164.503906 212.039062 163.914062 212.460938 C 163.320312 212.882812 162.304688 213.644531 161.625 214.152344 C 160.992188 214.703125 160.101562 215.125 159.722656 215.125 C 159.339844 215.125 158.917969 215.464844 158.789062 215.847656 C 158.492188 216.859375 153.457031 221.050781 152.523438 221.050781 C 152.144531 221.050781 151.71875 221.386719 151.59375 221.851562 C 151.507812 222.277344 150.578125 223.332031 149.519531 224.179688 C 148.269531 225.230469 147.710938 225.566406 146.890625 225.566406 C 146.652344 225.566406 146.394531 225.539062 146.089844 225.492188 C 145.535156 225.402344 145.171875 225.347656 144.976562 225.347656 L 144.96875 225.347656 C 144.625 225.351562 144.832031 225.523438 145.453125 225.957031 C 145.960938 226.335938 146.386719 226.800781 146.386719 226.972656 C 146.386719 227.394531 144.394531 228.242188 143.296875 228.242188 C 142.40625 228.285156 142.40625 228.285156 143.125 228.832031 C 144.101562 229.550781 143.59375 230.738281 142.027344 231.582031 C 141.617188 231.796875 141.324219 231.902344 141.019531 231.902344 C 140.65625 231.902344 140.273438 231.753906 139.65625 231.457031 C 139.078125 231.152344 138.445312 230.953125 138.109375 230.953125 C 138.027344 230.953125 137.960938 230.964844 137.917969 230.992188 C 137.242188 231.414062 137.792969 231.921875 139.1875 232.175781 C 140.332031 232.429688 141.09375 233.742188 140.035156 233.742188 C 139.824219 233.742188 139.484375 234.375 139.273438 235.136719 C 138.636719 237.421875 136.140625 241.015625 134.785156 241.484375 C 134.191406 241.738281 134.109375 241.90625 134.53125 242.414062 C 135.378906 243.429688 134.871094 245.289062 133.429688 246.21875 C 132.246094 246.980469 132.117188 247.234375 132.289062 248.589844 C 132.457031 249.605469 132.203125 250.789062 131.652344 252.101562 C 130.765625 254.046875 130.765625 254.089844 131.570312 254.894531 C 132.667969 255.992188 132.628906 256.753906 131.484375 257.515625 C 130.636719 258.066406 130.59375 258.277344 131.058594 259.292969 C 131.570312 260.394531 131.355469 263.988281 130.722656 264.835938 C 130.382812 265.214844 129.832031 271.347656 129.832031 274.140625 C 129.832031 277.1875 130.257812 281.839844 130.636719 282.8125 C 130.890625 283.492188 130.890625 284.292969 130.59375 285.054688 C 130.296875 285.945312 130.339844 286.410156 130.847656 286.960938 C 131.230469 287.339844 131.992188 290.132812 132.585938 293.136719 C 133.898438 299.734375 134.996094 302.273438 136.480469 302.273438 C 137.917969 302.273438 138.597656 300.667969 137.960938 298.847656 C 137.199219 296.691406 136.816406 290.007812 137.453125 289.625 C 137.792969 289.414062 137.792969 288.949219 137.539062 288.058594 C 136.308594 284.082031 136.097656 282.136719 136.816406 280.785156 C 137.199219 280.066406 137.496094 278.921875 137.496094 278.246094 C 137.496094 277.609375 137.664062 276.890625 137.875 276.679688 C 138.089844 276.425781 138.089844 275.367188 137.792969 274.097656 C 137.539062 272.871094 137.496094 271.601562 137.707031 271.136719 C 138.300781 269.785156 138.382812 268.261719 137.875 266.738281 C 137.296875 264.75 138.21875 260.726562 139.253906 260.726562 C 139.273438 260.726562 139.292969 260.726562 139.316406 260.730469 C 139.378906 260.742188 139.441406 260.746094 139.496094 260.746094 C 140.105469 260.746094 140.234375 260.144531 139.613281 259.757812 C 139.402344 259.632812 139.1875 258.910156 139.1875 258.191406 C 139.1875 257.429688 139.292969 257.109375 139.5625 257.109375 C 139.636719 257.109375 139.722656 257.132812 139.824219 257.175781 C 139.925781 257.214844 140.011719 257.234375 140.085938 257.234375 C 140.355469 257.234375 140.457031 256.988281 140.457031 256.457031 C 140.457031 255.949219 140.839844 254.933594 141.261719 254.214844 C 141.730469 253.453125 142.40625 251.679688 142.828125 250.199219 C 143.675781 247.152344 144.734375 245.332031 145.960938 244.953125 C 146.429688 244.78125 146.808594 244.484375 146.808594 244.273438 C 146.808594 243.765625 147.867188 242.625 148.332031 242.625 C 148.714844 242.625 150.492188 240.679688 151.085938 239.621094 C 151.300781 239.230469 151.542969 238.957031 151.691406 238.957031 C 151.71875 238.957031 151.742188 238.964844 151.761719 238.988281 C 151.796875 239.011719 151.832031 239.023438 151.871094 239.023438 C 152.042969 239.023438 152.277344 238.8125 152.480469 238.4375 C 153.5 236.746094 155.234375 234.332031 156.207031 233.316406 C 156.800781 232.726562 157.730469 231.371094 158.367188 230.3125 C 159.550781 228.285156 164.589844 223.164062 165.394531 223.164062 C 165.691406 223.164062 166.285156 222.785156 166.75 222.359375 C 167.214844 221.9375 169.035156 220.964844 170.8125 220.246094 C 172.675781 219.457031 173.542969 219.136719 174.289062 219.136719 C 174.660156 219.136719 175.003906 219.214844 175.429688 219.355469 C 176.234375 219.609375 176.867188 220.117188 176.867188 220.414062 C 176.867188 220.710938 177.757812 221.304688 178.859375 221.726562 C 181.3125 222.699219 184.53125 225.195312 186.222656 227.523438 C 186.945312 228.496094 187.832031 229.300781 188.214844 229.300781 C 189.101562 229.300781 190.117188 232.21875 189.738281 233.488281 C 189.355469 234.585938 189.441406 234.796875 190.078125 234.796875 C 190.625 234.796875 190.753906 235.222656 191.898438 240.507812 C 192.363281 242.625 192.871094 243.894531 193.421875 244.273438 C 193.84375 244.570312 194.226562 245.164062 194.226562 245.585938 C 194.226562 246.8125 195.453125 248.84375 196.34375 249.097656 C 197.359375 249.351562 197.992188 250.875 197.867188 252.820312 C 197.78125 253.835938 197.992188 254.429688 198.542969 254.808594 C 198.96875 255.105469 199.304688 255.613281 199.304688 255.910156 C 199.304688 256.203125 199.730469 256.796875 200.195312 257.261719 C 201.296875 258.234375 203.117188 261.957031 203.117188 263.226562 C 203.117188 263.777344 203.371094 264.199219 203.707031 264.199219 C 204.214844 264.199219 206.503906 268.175781 206.503906 269.066406 C 206.503906 269.191406 206.882812 269.867188 207.390625 270.503906 C 207.898438 271.179688 208.449219 272.660156 208.660156 273.761719 C 208.957031 275.285156 209.464844 276.214844 210.652344 277.355469 C 212.429688 279.132812 212.980469 279.769531 213.65625 281.039062 C 213.910156 281.546875 214.417969 281.96875 214.714844 281.96875 C 215.054688 281.96875 215.394531 282.265625 215.5625 282.601562 C 215.691406 282.941406 216.578125 283.535156 217.511719 283.914062 C 218.738281 284.421875 219.289062 284.886719 219.457031 285.734375 C 219.585938 286.324219 219.964844 287.339844 220.304688 287.976562 C 220.644531 288.566406 220.898438 289.328125 220.898438 289.625 C 220.898438 289.964844 221.660156 290.894531 222.589844 291.742188 C 223.691406 292.757812 224.285156 293.644531 224.285156 294.320312 C 224.285156 294.914062 224.664062 295.71875 225.128906 296.140625 C 225.597656 296.5625 226.0625 297.238281 226.1875 297.664062 C 226.359375 298.128906 226.695312 298.46875 227.035156 298.46875 C 227.332031 298.46875 228.179688 299.695312 228.898438 301.175781 C 229.617188 302.65625 230.335938 304.007812 230.589844 304.136719 C 230.804688 304.261719 231.4375 305.277344 231.945312 306.421875 C 232.496094 307.519531 233.175781 308.664062 233.46875 308.957031 C 233.765625 309.253906 234.148438 309.972656 234.273438 310.566406 C 234.382812 311.039062 234.617188 311.355469 234.816406 311.355469 C 234.847656 311.355469 234.878906 311.347656 234.910156 311.328125 C 234.9375 311.3125 234.96875 311.304688 235 311.304688 C 235.207031 311.304688 235.488281 311.652344 235.671875 312.132812 C 236.222656 313.570312 241.515625 318.773438 242.402344 318.773438 C 243.589844 318.773438 244.179688 317.886719 244.179688 316.109375 C 244.179688 314.457031 243.96875 314.121094 240.371094 310.101562 C 239.949219 309.59375 239.3125 308.578125 238.972656 307.730469 C 238.636719 306.929688 238.085938 305.996094 237.789062 305.660156 C 237.449219 305.320312 236.308594 303.628906 235.289062 301.894531 C 234.234375 300.160156 232.960938 298.042969 232.453125 297.238281 C 231.945312 296.394531 231.058594 294.746094 230.507812 293.601562 C 229.957031 292.417969 228.984375 290.726562 228.390625 289.835938 C 227.753906 288.949219 227.246094 287.765625 227.246094 287.257812 C 227.246094 286.75 226.613281 285.523438 225.890625 284.507812 C 225.128906 283.492188 224.324219 282.390625 224.070312 282.011719 C 223.859375 281.628906 223.394531 281.164062 223.140625 280.996094 C 222.84375 280.824219 222.589844 280.316406 222.589844 279.894531 C 222.589844 279.515625 222.082031 278.332031 221.40625 277.273438 C 219.710938 274.523438 219.289062 273.464844 219.035156 271.601562 C 218.78125 269.191406 217.847656 266.316406 216.917969 264.917969 C 216.238281 263.902344 216.199219 263.648438 216.707031 263.3125 C 217.171875 262.972656 217.085938 262.761719 216.113281 262.042969 C 214.671875 260.941406 213.613281 258.996094 213.953125 258.109375 C 214.082031 257.726562 213.996094 257.429688 213.699219 257.429688 C 213.445312 257.429688 213.320312 257.261719 213.445312 257.050781 C 213.613281 256.839844 213.191406 256.5 212.597656 256.289062 C 211.539062 255.949219 210.355469 253.625 210.3125 251.890625 C 210.3125 251.550781 209.761719 250.832031 209.042969 250.324219 C 208.367188 249.773438 207.773438 249.011719 207.773438 248.546875 C 207.773438 248.125 207.601562 247.617188 207.347656 247.488281 C 207.136719 247.363281 206.628906 246.515625 206.207031 245.671875 C 205.585938 244.3125 203.507812 241.535156 203.164062 241.535156 C 203.132812 241.535156 203.117188 241.558594 203.117188 241.609375 C 203.117188 241.636719 203.105469 241.648438 203.085938 241.648438 C 202.988281 241.648438 202.660156 241.300781 202.269531 240.804688 C 201.804688 240.214844 201.421875 239.410156 201.421875 239.027344 C 201.421875 238.722656 201.3125 238.527344 201.160156 238.527344 C 201.125 238.527344 201.082031 238.539062 201.042969 238.5625 C 200.988281 238.597656 200.929688 238.609375 200.867188 238.609375 C 199.84375 238.609375 197.46875 234.679688 197.867188 233.445312 C 197.960938 233.136719 197.988281 232.976562 197.945312 232.964844 L 197.933594 232.964844 C 197.894531 232.972656 197.816406 233.0625 197.695312 233.234375 C 197.566406 233.4375 197.46875 233.546875 197.386719 233.546875 C 197.28125 233.546875 197.199219 233.375 197.105469 233.019531 C 196.976562 232.597656 196.722656 231.878906 196.511719 231.457031 C 196.347656 231.042969 196.324219 230.863281 196.445312 230.859375 L 196.457031 230.859375 C 196.523438 230.859375 196.625 230.90625 196.765625 230.992188 C 196.910156 231.078125 197.007812 231.125 197.066406 231.125 C 197.183594 231.125 197.144531 230.945312 196.976562 230.527344 C 196.808594 230.101562 196.554688 229.085938 196.425781 228.324219 C 196.34375 227.5625 196.089844 226.84375 195.875 226.71875 C 195.664062 226.589844 195.496094 226.125 195.496094 225.703125 C 195.496094 225.28125 194.902344 224.519531 194.183594 224.011719 C 193.25 223.292969 192.957031 222.785156 193.039062 221.980469 C 193.164062 220.925781 193.832031 220.257812 194.613281 220.257812 C 194.898438 220.257812 195.199219 220.347656 195.496094 220.542969 C 195.988281 220.847656 196.269531 221.011719 196.453125 221.011719 C 196.675781 221.011719 196.753906 220.761719 196.890625 220.203125 C 197.019531 219.695312 197.484375 219.355469 198.035156 219.355469 C 198.5 219.355469 199.347656 218.890625 199.898438 218.300781 C 200.449219 217.707031 201.082031 217.242188 201.378906 217.242188 C 201.632812 217.242188 201.847656 216.945312 201.847656 216.648438 C 201.847656 215.847656 204.429688 213.855469 205.445312 213.855469 C 205.867188 213.855469 206.585938 214.152344 206.96875 214.535156 C 207.390625 214.914062 208.28125 215.339844 208.914062 215.421875 C 209.988281 215.609375 211.390625 215.707031 212.472656 215.707031 C 213.359375 215.707031 214.027344 215.640625 214.125 215.507812 C 214.25 215.378906 215.054688 215.125 215.902344 215 C 216.320312 214.933594 216.628906 214.894531 216.847656 214.894531 C 217.304688 214.894531 217.359375 215.0625 217.214844 215.464844 C 217.136719 215.75 217.121094 215.890625 217.179688 215.890625 C 217.21875 215.890625 217.285156 215.835938 217.382812 215.71875 C 217.832031 215.0625 220.222656 213.894531 220.953125 213.894531 C 220.980469 213.894531 221.003906 213.898438 221.023438 213.898438 C 221.066406 213.90625 221.125 213.910156 221.195312 213.910156 C 221.542969 213.910156 222.1875 213.820312 222.71875 213.644531 C 223.003906 213.566406 223.273438 213.527344 223.515625 213.527344 C 223.910156 213.527344 224.226562 213.628906 224.410156 213.816406 C 224.664062 214.070312 225.34375 214.28125 225.933594 214.28125 C 226.484375 214.28125 227.925781 214.746094 229.109375 215.296875 C 230.296875 215.886719 231.734375 216.4375 232.328125 216.566406 C 234.234375 216.945312 236.054688 219.144531 236.601562 221.8125 C 236.898438 223.121094 237.152344 224.6875 237.195312 225.28125 C 237.28125 225.871094 237.535156 227.605469 237.789062 229.171875 C 238.296875 232.175781 238.042969 233.402344 236.222656 236.914062 C 235.417969 238.394531 235.207031 240.085938 235.757812 240.128906 C 235.839844 240.128906 236.476562 239.960938 237.113281 239.707031 C 237.789062 239.453125 238.507812 239.242188 238.71875 239.242188 C 238.933594 239.242188 239.101562 238.988281 239.101562 238.691406 C 239.101562 238.394531 239.480469 237.71875 239.949219 237.210938 C 240.457031 236.703125 240.667969 236.277344 240.5 236.277344 C 240.328125 236.277344 240.625 235.984375 241.132812 235.601562 C 241.769531 235.179688 242.066406 234.542969 242.066406 233.527344 C 242.066406 232.726562 242.234375 232.007812 242.445312 231.878906 C 242.65625 231.753906 242.910156 231.03125 243.082031 230.273438 C 243.800781 225.914062 244.054688 223.332031 243.757812 222.953125 C 243.589844 222.742188 243.460938 221.472656 243.503906 220.203125 C 243.546875 218.171875 243.671875 217.875 244.476562 217.75 C 244.550781 217.738281 244.625 217.734375 244.699219 217.734375 C 245.195312 217.734375 245.617188 217.988281 245.875 218.46875 C 246.128906 218.976562 246.765625 219.355469 247.3125 219.355469 C 248.5 219.355469 250.363281 220.753906 250.742188 221.894531 C 250.914062 222.359375 251.25 222.742188 251.546875 222.742188 C 252.308594 222.742188 253.496094 224.136719 253.496094 224.984375 C 253.496094 225.363281 254.128906 225.957031 254.890625 226.296875 C 255.613281 226.589844 256.882812 227.480469 257.6875 228.199219 C 258.492188 228.917969 259.550781 229.636719 260.015625 229.765625 C 260.988281 230.058594 263.570312 231.964844 265.644531 233.867188 C 266.746094 234.925781 266.914062 235.261719 266.535156 235.769531 C 266.222656 236.144531 266.164062 236.289062 266.421875 236.289062 C 266.515625 236.289062 266.652344 236.269531 266.832031 236.238281 C 266.875 236.226562 266.921875 236.222656 266.96875 236.222656 C 267.910156 236.222656 269.734375 238.136719 271.023438 240.507812 C 271.488281 241.3125 272.378906 242.539062 273.054688 243.214844 C 273.6875 243.9375 274.238281 244.613281 274.238281 244.738281 C 274.238281 244.910156 274.707031 245.246094 275.296875 245.5 C 275.890625 245.753906 276.355469 246.261719 276.355469 246.644531 C 276.355469 246.980469 276.527344 247.277344 276.695312 247.277344 C 276.90625 247.277344 278.09375 248.546875 279.363281 250.070312 C 282.792969 254.257812 282.792969 254.257812 284.570312 254.300781 C 285.671875 254.34375 286.433594 254.640625 286.898438 255.230469 C 287.277344 255.695312 288.042969 256.203125 288.632812 256.375 C 290.15625 256.839844 294.5625 261.535156 294.265625 262.378906 C 294.121094 262.75 294.132812 262.910156 294.335938 262.910156 C 294.433594 262.910156 294.578125 262.871094 294.773438 262.804688 C 294.941406 262.734375 295.117188 262.699219 295.292969 262.699219 C 296.277344 262.699219 297.371094 263.753906 298.160156 265.511719 C 298.625 266.527344 299.132812 267.5 299.34375 267.625 C 299.515625 267.753906 299.640625 268.050781 299.554688 268.261719 C 299.472656 268.472656 299.769531 269.105469 300.191406 269.699219 C 300.496094 270.136719 300.769531 270.441406 300.871094 270.441406 C 300.898438 270.441406 300.910156 270.417969 300.910156 270.375 C 300.910156 270.3125 300.929688 270.28125 300.964844 270.28125 C 301.296875 270.28125 303.070312 272.976562 303.875 274.777344 C 304.339844 275.832031 305.230469 277.566406 305.78125 278.625 C 306.371094 279.726562 306.839844 280.867188 306.839844 281.207031 C 306.839844 281.542969 307.21875 282.179688 307.683594 282.601562 C 308.109375 282.984375 308.828125 284.292969 309.210938 285.480469 C 309.632812 286.789062 310.648438 288.355469 311.792969 289.539062 C 312.976562 290.765625 314.246094 292.753906 315.179688 294.871094 C 316.78125 298.539062 317.121094 299.113281 317.925781 299.113281 C 317.996094 299.113281 318.066406 299.109375 318.140625 299.101562 C 320.429688 298.890625 320.808594 298.507812 320.808594 296.265625 C 320.808594 294.703125 320.597656 293.984375 320.003906 293.476562 C 319.03125 292.628906 315.730469 286.324219 315.730469 285.269531 C 315.730469 284.886719 315.558594 284.464844 315.347656 284.292969 C 315.09375 284.167969 314.121094 282.476562 313.1875 280.570312 C 312.214844 278.667969 310.691406 276.425781 309.757812 275.578125 C 308.53125 274.4375 308.109375 273.675781 308.109375 272.746094 C 308.109375 271.941406 307.769531 271.265625 307.175781 270.839844 C 306.332031 270.25 306.289062 270.082031 306.839844 269.699219 C 307.386719 269.320312 307.21875 269.066406 305.992188 268.007812 C 304.804688 267.035156 304.59375 266.695312 305.058594 266.273438 C 305.722656 265.574219 305.714844 264.742188 305.140625 264.738281 L 305.128906 264.738281 C 305.046875 264.738281 304.953125 264.757812 304.847656 264.792969 C 304.78125 264.820312 304.707031 264.835938 304.628906 264.835938 C 304.121094 264.835938 303.378906 264.238281 302.097656 262.847656 C 299.9375 260.476562 299.769531 259.84375 301.292969 259.632812 C 302.816406 259.378906 301.503906 258.277344 299.683594 258.277344 C 297.695312 258.277344 297.3125 257.980469 296.675781 255.949219 C 296.382812 255.019531 295.789062 253.878906 295.40625 253.414062 C 294.984375 252.945312 294.5625 251.972656 294.476562 251.296875 C 294.390625 250.449219 294.011719 249.902344 293.375 249.605469 C 292.613281 249.265625 292.488281 248.96875 292.699219 247.785156 C 292.953125 246.558594 292.78125 246.261719 291.386719 245.035156 C 290.496094 244.273438 289.3125 243.257812 288.761719 242.710938 C 288.210938 242.203125 287.660156 241.777344 287.574219 241.777344 C 287.152344 241.777344 283.976562 238.480469 283.976562 238.011719 C 283.976562 237.757812 283.851562 237.546875 283.679688 237.546875 C 283.46875 237.546875 282.960938 237.25 282.539062 236.914062 C 281.902344 236.40625 281.816406 236.195312 282.242188 235.6875 C 282.707031 235.136719 282.496094 235.007812 281.140625 234.796875 C 280.25 234.628906 279.234375 234.417969 278.855469 234.332031 C 277.710938 234.035156 272.207031 228.410156 271.910156 227.269531 C 271.65625 226.378906 271.359375 226.125 270.386719 226.125 C 269.582031 226.125 268.609375 225.574219 267.253906 224.304688 C 266.195312 223.332031 264.078125 221.472656 262.554688 220.203125 C 260.777344 218.722656 259.464844 217.199219 258.957031 216.058594 C 258.492188 215.085938 257.855469 214.28125 257.515625 214.28125 C 257.179688 214.28125 256.882812 214.109375 256.882812 213.941406 C 256.882812 213.730469 256.375 213.308594 255.78125 213.011719 C 254.300781 212.207031 253.496094 210.472656 253.496094 208.144531 C 253.496094 206.328125 253.578125 206.15625 255.402344 205.058594 C 256.457031 204.421875 257.304688 203.703125 257.304688 203.449219 C 257.304688 203.238281 257.855469 202.476562 258.574219 201.800781 C 259.253906 201.167969 259.71875 200.445312 259.550781 200.191406 C 259.421875 199.980469 259.589844 199.644531 259.886719 199.429688 C 260.226562 199.261719 260.523438 198.753906 260.566406 198.332031 C 260.566406 197.910156 260.902344 196.765625 261.285156 195.75 C 261.625 194.777344 261.835938 193.679688 261.707031 193.382812 C 261.582031 193.042969 261.667969 192.664062 261.878906 192.535156 C 262.300781 192.28125 261.878906 189.363281 261.074219 186.910156 C 260.863281 186.191406 260.609375 185.132812 260.566406 184.582031 C 260.394531 183.015625 258.746094 180.226562 257.644531 179.71875 C 255.773438 178.800781 251.804688 177.585938 250.949219 177.585938 C 250.898438 177.585938 250.855469 177.59375 250.828125 177.601562 C 250.683594 177.65625 250.527344 177.679688 250.363281 177.679688 C 249.472656 177.679688 248.414062 176.964844 248.414062 176.25 C 248.414062 175.023438 248.878906 174.089844 249.429688 174.089844 C 250.152344 174.089844 255.695312 170.707031 257.179688 169.394531 C 257.8125 168.804688 259.042969 167.449219 259.847656 166.347656 C 260.648438 165.292969 261.667969 164.359375 262.089844 164.359375 C 262.722656 164.359375 263.0625 163.386719 262.851562 162.117188 C 262.835938 162.050781 262.886719 162.015625 262.980469 162.015625 C 263.121094 162.015625 263.359375 162.09375 263.613281 162.246094 C 263.839844 162.363281 264.0625 162.414062 264.253906 162.414062 C 264.808594 162.414062 265.101562 161.988281 264.503906 161.609375 C 263.824219 161.1875 264.839844 160.128906 265.816406 160.128906 C 266.28125 160.128906 266.621094 159.835938 266.621094 159.496094 C 266.621094 159.15625 266.914062 158.859375 267.253906 158.859375 C 267.59375 158.859375 267.890625 158.605469 267.890625 158.269531 C 267.890625 157.421875 268.988281 156.617188 270.21875 156.617188 C 270.8125 156.617188 271.277344 156.492188 271.277344 156.28125 C 271.277344 155.890625 272.546875 155.609375 273.59375 155.609375 C 274.132812 155.609375 274.617188 155.683594 274.832031 155.855469 C 275.019531 156.023438 275.164062 156.109375 275.285156 156.109375 C 275.441406 156.109375 275.5625 155.972656 275.679688 155.6875 C 275.804688 155.351562 276.144531 155.054688 276.441406 155.054688 C 276.738281 155.054688 277.542969 154.546875 278.21875 153.953125 C 278.820312 153.378906 279.164062 153.128906 279.40625 153.128906 C 279.558594 153.128906 279.671875 153.226562 279.785156 153.402344 C 279.996094 153.742188 280.167969 154.164062 280.167969 154.417969 C 280.171875 154.453125 280.183594 154.46875 280.199219 154.46875 C 280.28125 154.46875 280.46875 154.035156 280.71875 153.363281 C 281.054688 152.429688 281.691406 151.625 282.496094 151.246094 C 283.214844 150.867188 284.273438 150.230469 284.867188 149.851562 C 285.496094 149.449219 286.011719 149.261719 286.832031 149.261719 C 287.222656 149.261719 287.679688 149.304688 288.253906 149.382812 C 290.625 149.679688 291.722656 150.359375 295.746094 153.742188 C 298.242188 155.855469 298.414062 156.617188 297.058594 159.539062 C 296.085938 161.738281 296.128906 163.640625 297.1875 163.851562 C 297.214844 163.859375 297.25 163.863281 297.285156 163.863281 C 298.195312 163.863281 301.183594 161.929688 302.648438 160.425781 C 303.035156 160.039062 303.335938 159.832031 303.527344 159.832031 C 303.628906 159.832031 303.703125 159.886719 303.746094 160.003906 C 304.171875 161.101562 305.441406 162.078125 306.625 162.160156 C 308.617188 162.289062 315.730469 166.011719 316.277344 167.195312 C 316.496094 167.703125 316.839844 168.023438 317.203125 168.023438 C 317.261719 168.023438 317.320312 168.015625 317.378906 168 C 317.40625 167.992188 317.4375 167.988281 317.472656 167.988281 C 318.617188 167.988281 324.332031 171.964844 324.621094 173.03125 C 324.746094 173.5 325.210938 173.964844 325.675781 174.007812 C 326.820312 174.21875 328.894531 175.273438 329.910156 176.207031 C 330.378906 176.628906 331.140625 177.050781 331.5625 177.136719 C 332.027344 177.179688 332.789062 178.023438 333.339844 178.957031 C 333.859375 179.910156 334.488281 180.527344 334.878906 180.527344 C 334.902344 180.527344 334.925781 180.527344 334.949219 180.519531 C 334.984375 180.515625 335.023438 180.511719 335.0625 180.511719 C 335.660156 180.511719 336.570312 181.121094 338.039062 182.507812 C 338.886719 183.3125 341.511719 185.089844 341.890625 185.089844 C 342.0625 185.089844 342.652344 185.511719 343.246094 186.0625 C 343.839844 186.613281 345.703125 188.050781 347.394531 189.277344 C 351.164062 192.027344 353.832031 194.691406 353.832031 195.75 C 353.832031 196.171875 354.085938 196.511719 354.421875 196.511719 C 355.015625 196.511719 355.609375 197.910156 356.160156 200.65625 C 356.371094 201.632812 356.242188 202.394531 355.734375 203.195312 C 355.433594 203.652344 355.300781 203.910156 355.378906 203.910156 C 355.410156 203.910156 355.472656 203.871094 355.566406 203.789062 C 355.917969 203.460938 356.164062 203.226562 356.339844 203.226562 C 356.734375 203.226562 356.789062 204.398438 356.964844 208.316406 C 357.089844 210.472656 357.34375 212.460938 357.597656 212.714844 C 358.191406 213.308594 358.191406 214.957031 357.554688 215.929688 C 357.175781 216.566406 357.21875 217.074219 357.851562 218.339844 C 358.574219 219.863281 358.574219 220.035156 357.894531 221.175781 C 357.515625 221.851562 357.21875 222.910156 357.175781 223.503906 C 357.175781 224.136719 357.007812 225.027344 356.835938 225.492188 C 356.625 225.957031 356.625 226.632812 356.835938 227.015625 C 357.261719 227.816406 356.539062 232.007812 355.695312 234.035156 C 355.355469 234.753906 355.101562 235.644531 355.101562 235.984375 C 355.101562 236.363281 354.847656 236.746094 354.59375 236.871094 C 354.210938 236.996094 354.253906 237.210938 354.804688 237.546875 C 355.1875 237.800781 355.523438 238.394531 355.523438 238.859375 C 355.523438 239.570312 355.851562 239.929688 356.300781 239.929688 C 356.707031 239.929688 357.21875 239.632812 357.683594 239.027344 C 358.191406 238.4375 359.039062 237.71875 359.589844 237.546875 C 360.351562 237.25 360.605469 236.828125 360.605469 235.769531 C 360.605469 235.007812 360.902344 234.035156 361.238281 233.570312 C 361.578125 233.105469 361.746094 232.300781 361.578125 231.582031 C 361.453125 230.90625 361.535156 230.101562 361.746094 229.847656 C 362.339844 229.085938 362.765625 225.492188 362.890625 219.992188 C 363.019531 214.324219 362.59375 210.640625 361.621094 209.585938 C 360.730469 208.570312 361.113281 207.003906 362.46875 206.074219 L 363.527344 205.394531 L 362.253906 204.167969 C 360.941406 202.816406 360.730469 201.714844 361.578125 200.191406 C 361.832031 199.683594 362.128906 199.21875 362.171875 199.136719 C 362.179688 199.117188 362.203125 199.109375 362.242188 199.109375 C 362.386719 199.109375 362.730469 199.238281 363.101562 199.472656 C 363.476562 199.671875 363.722656 199.765625 363.851562 199.765625 C 364.160156 199.765625 363.769531 199.226562 362.722656 198.332031 C 362 197.738281 361.492188 197.148438 361.621094 197.0625 C 361.746094 196.933594 361.453125 196.089844 361.027344 195.199219 C 360.5625 194.3125 360.179688 193.253906 360.179688 192.875 C 360.179688 192.449219 359.800781 190.886719 359.335938 189.363281 C 358.867188 187.839844 358.402344 185.851562 358.277344 184.964844 C 358.0625 183.652344 357.851562 183.398438 357.007812 183.398438 C 356.457031 183.398438 355.652344 182.933594 355.144531 182.296875 C 354.675781 181.707031 353.363281 180.734375 352.179688 180.183594 C 349.9375 179.039062 347.269531 176.628906 347.820312 176.25 C 348.324219 175.910156 349.246094 174.113281 348.96875 174.089844 L 348.957031 174.089844 C 348.816406 174.097656 348.191406 174.351562 347.566406 174.683594 C 346.929688 174.980469 345.785156 175.273438 344.984375 175.273438 C 344.953125 175.277344 344.917969 175.277344 344.886719 175.277344 C 343.402344 175.277344 341.128906 174.332031 341.128906 173.753906 C 341.128906 173.539062 340.496094 173.074219 339.691406 172.695312 C 338.886719 172.3125 337.996094 171.46875 337.660156 170.832031 C 337.277344 169.988281 336.515625 169.4375 335.074219 168.972656 C 333.976562 168.589844 332.535156 167.828125 331.902344 167.238281 C 331.265625 166.644531 330.335938 166.011719 329.867188 165.882812 C 329.359375 165.714844 328.300781 164.570312 327.539062 163.304688 C 326.269531 161.273438 325.890625 160.976562 324.324219 160.722656 C 322.628906 160.46875 321.527344 159.75 320.300781 158.140625 C 320.003906 157.71875 318.945312 156.746094 317.972656 155.941406 C 316.957031 155.179688 316.152344 154.292969 316.152344 153.953125 C 316.152344 153.65625 315.515625 153.109375 314.753906 152.769531 C 313.0625 152.09375 311.070312 149.808594 311.070312 148.582031 C 311.070312 148.074219 311.539062 146.972656 312.046875 146.167969 C 312.597656 145.367188 313.1875 144.222656 313.316406 143.632812 C 313.441406 143.039062 313.824219 141.726562 314.203125 140.671875 C 314.542969 139.613281 315.007812 137.792969 315.261719 136.652344 C 315.855469 133.691406 318.269531 126.964844 319.921875 123.621094 C 321.230469 121.039062 321.316406 120.785156 320.765625 119.515625 C 320.046875 117.910156 318.863281 117.359375 312.554688 115.667969 C 312.488281 115.648438 312.421875 115.632812 312.355469 115.617188 L 312.34375 115.617188 C 311.929688 115.1875 311.480469 114.761719 311 114.335938 C 308.949219 113.066406 304.316406 111.011719 297.105469 108.167969 C 292.652344 104.953125 289.296875 102.84375 287.039062 101.839844 C 286.847656 101.757812 286.578125 101.671875 286.226562 101.578125 L 286.214844 101.578125 C 286 101.417969 285.765625 101.328125 285.542969 101.328125 C 284.316406 101.328125 276.78125 97.136719 276.78125 96.460938 C 276.78125 96.121094 276.949219 95.402344 277.203125 94.8125 C 277.414062 94.222656 277.457031 93.71875 277.25 93.710938 L 277.238281 93.710938 C 276.859375 93.726562 276.3125 95.070312 276.1875 96.25 C 276.160156 96.742188 275.253906 97.03125 274.277344 97.03125 C 273.664062 97.03125 273.019531 96.917969 272.546875 96.671875 C 271.761719 96.257812 270.667969 96.042969 269.707031 96.042969 C 268.902344 96.042969 268.195312 96.195312 267.847656 96.503906 C 267.464844 96.859375 266.851562 97.007812 265.34375 97.007812 C 264.6875 97.007812 263.859375 96.976562 262.808594 96.925781 C 261.519531 96.847656 260.609375 96.796875 259.925781 96.796875 C 258.417969 96.796875 258.027344 97.042969 257.09375 97.773438 C 256.289062 98.363281 255.359375 98.914062 254.976562 98.957031 C 254.34375 99.042969 253.621094 100.269531 250.234375 106.910156 C 249.601562 108.179688 248.964844 108.941406 248.5 108.941406 C 247.90625 108.941406 247.609375 109.617188 247.144531 111.777344 C 246.59375 114.230469 246.382812 114.652344 245.453125 114.863281 C 244.519531 115.074219 244.351562 115.457031 243.925781 117.65625 C 243.417969 120.617188 243.125 121.167969 241.894531 121.632812 C 241.628906 121.734375 241.378906 121.785156 241.148438 121.785156 C 239.566406 121.785156 238.921875 119.398438 239.441406 115.074219 C 239.695312 112.875 239.863281 112.539062 240.710938 112.410156 C 241.21875 112.324219 241.640625 111.988281 241.640625 111.5625 C 241.640625 111.226562 241.21875 110.464844 240.710938 109.871094 C 239.90625 109.027344 239.734375 108.390625 239.734375 105.894531 C 239.734375 103.527344 239.609375 102.890625 239.015625 102.554688 C 238.59375 102.300781 238.253906 101.917969 238.253906 101.664062 C 238.253906 101.453125 237.789062 100.859375 237.195312 100.394531 C 236.601562 99.929688 236.136719 99.296875 236.136719 98.957031 C 236.136719 98.660156 235.332031 97.859375 234.359375 97.222656 C 232.921875 96.25 232.117188 96.039062 229.746094 95.996094 C 229.496094 95.992188 229.265625 95.988281 229.054688 95.988281 C 227.476562 95.988281 226.804688 96.132812 226.65625 96.503906 C 226.527344 96.84375 226.0625 97.097656 225.597656 97.097656 C 224.960938 97.097656 224.410156 97.816406 223.4375 99.886719 C 222.757812 101.410156 221.703125 103.273438 221.152344 103.992188 C 219.753906 105.8125 219.117188 107.585938 219.160156 109.363281 C 219.160156 110.167969 218.949219 111.183594 218.609375 111.691406 C 217.804688 112.917969 217.425781 116.007812 217.933594 116.980469 C 218.3125 117.65625 218.1875 117.996094 217.382812 118.796875 C 216.367188 119.730469 216.15625 120.363281 215.433594 125.230469 C 215.222656 126.625 214.925781 128.0625 214.800781 128.402344 C 214.671875 128.738281 214.378906 131.871094 214.125 135.382812 C 213.742188 141.261719 213.613281 141.898438 212.386719 144.265625 C 211.667969 145.664062 210.863281 146.929688 210.566406 147.101562 C 210.40625 147.210938 210.0625 147.261719 209.609375 147.261719 C 208.496094 147.261719 206.746094 146.960938 205.570312 146.507812 C 204.300781 146.042969 203.792969 145.027344 204.214844 143.886719 C 204.34375 143.503906 204.257812 142.914062 203.960938 142.574219 C 203.539062 142.066406 203.496094 140.332031 203.707031 135.042969 C 203.878906 131.277344 204.132812 127.21875 204.257812 126.074219 C 204.597656 123.027344 204.554688 121.253906 204.046875 119.09375 C 203.792969 118.035156 203.582031 116.007812 203.539062 114.566406 C 203.539062 113.128906 203.371094 111.015625 203.117188 109.914062 C 202.902344 108.8125 202.609375 107.121094 202.523438 106.191406 C 202.4375 105.261719 202.140625 103.824219 201.886719 103.019531 C 201.632812 102.214844 201.253906 99.71875 201.042969 97.519531 C 199.984375 87.449219 199.347656 82.332031 198.585938 77.71875 C 198.457031 77 198.164062 76.367188 197.949219 76.367188 C 197.273438 76.367188 195.917969 74.632812 195.917969 73.828125 C 195.917969 73.40625 194.523438 71.585938 192.785156 69.726562 C 189.1875 65.917969 186.054688 64.054688 182.371094 63.589844 C 178.308594 63.082031 174.75 61.984375 174.75 61.222656 C 174.75 61.011719 174.074219 60.628906 173.269531 60.332031 C 172.421875 60.035156 171.363281 59.402344 170.898438 58.894531 C 170.433594 58.386719 169.164062 57.667969 168.0625 57.289062 C 166.960938 56.90625 165.734375 56.484375 165.351562 56.273438 C 165.171875 56.207031 165.019531 56.171875 164.898438 56.171875 Z M 164.898438 56.171875 " fill-opacity="1" fill-rule="nonzero"/></g></svg>