<svg xmlns="http://www.w3.org/2000/svg" xmlns:xlink="http://www.w3.org/1999/xlink" width="500" zoomAndPan="magnify" viewBox="0 0 375 374.999991" height="500" preserveAspectRatio="xMidYMid meet" version="1.0"><defs><g/><clipPath id="d733962d0e"><path d="M 52.019531 192 L 104.519531 192 L 104.519531 244.496094 L 52.019531 244.496094 Z M 52.019531 192 " clip-rule="nonzero"/></clipPath><clipPath id="44566dbab8"><path d="M 112.5 68.683594 L 262.5 68.683594 L 262.5 180.433594 L 112.5 180.433594 Z M 112.5 68.683594 " clip-rule="nonzero"/></clipPath></defs><g fill="#fefefe" fill-opacity="1"><g transform="translate(27.691409, 269.274006)"><g><path d="M 51.109375 1.46875 C 37.328125 1.46875 26.097656 -3.039062 17.421875 -12.0625 C 8.742188 -21.082031 4.40625 -34.242188 4.40625 -51.546875 C 4.40625 -68.859375 8.789062 -81.972656 17.5625 -90.890625 C 26.34375 -99.816406 37.671875 -104.28125 51.546875 -104.28125 C 65.421875 -104.28125 76.625 -99.890625 85.15625 -91.109375 C 93.6875 -82.335938 97.953125 -69.050781 97.953125 -51.25 C 97.953125 -33.457031 93.585938 -20.222656 84.859375 -11.546875 C 76.140625 -2.867188 64.890625 1.46875 51.109375 1.46875 Z M 51.1875 -76.046875 C 46.476562 -76.046875 42.53125 -73.882812 39.34375 -69.5625 C 36.15625 -65.25 34.5625 -59.195312 34.5625 -51.40625 C 34.5625 -43.613281 36.082031 -37.628906 39.125 -33.453125 C 42.164062 -29.285156 46.160156 -27.203125 51.109375 -27.203125 C 56.054688 -27.203125 60.070312 -29.3125 63.15625 -33.53125 C 66.25 -37.75 67.796875 -43.78125 67.796875 -51.625 C 67.796875 -59.46875 66.203125 -65.5 63.015625 -69.71875 C 59.835938 -73.9375 55.894531 -76.046875 51.1875 -76.046875 Z M 51.1875 -76.046875 "/></g></g></g><g fill="#fefefe" fill-opacity="1"><g transform="translate(130.060451, 269.274006)"><g><path d="M 20.15625 0.296875 C 11.226562 0.296875 6.765625 -0.679688 6.765625 -2.640625 L 6.765625 -97.953125 C 6.765625 -101.285156 8.285156 -102.953125 11.328125 -102.953125 L 37.203125 -102.953125 C 51.722656 -102.953125 62.191406 -99.960938 68.609375 -93.984375 C 75.035156 -88.003906 78.25 -79.328125 78.25 -67.953125 C 78.25 -58.535156 75.207031 -49.90625 69.125 -42.0625 C 66.082031 -38.144531 61.617188 -35.007812 55.734375 -32.65625 C 49.859375 -30.300781 43 -29.125 35.15625 -29.125 L 35.15625 -2.796875 C 35.15625 -1.617188 33.316406 -0.804688 29.640625 -0.359375 C 25.960938 0.078125 22.800781 0.296875 20.15625 0.296875 Z M 35.15625 -77.359375 L 35.15625 -54.125 L 37.0625 -54.125 C 40.5 -54.125 43.390625 -55.203125 45.734375 -57.359375 C 48.085938 -59.515625 49.265625 -62.550781 49.265625 -66.46875 C 49.265625 -70.394531 48.457031 -73.191406 46.84375 -74.859375 C 45.226562 -76.523438 42.359375 -77.359375 38.234375 -77.359375 Z M 35.15625 -77.359375 "/></g></g></g><g fill="#fefefe" fill-opacity="1"><g transform="translate(213.897173, 269.274006)"><g><path d="M 110.3125 0.140625 C 101.582031 0.140625 97.21875 -0.835938 97.21875 -2.796875 L 94.125 -61.765625 L 76.1875 -2.0625 C 75.789062 -0.882812 72.453125 -0.296875 66.171875 -0.296875 C 59.898438 -0.296875 56.671875 -0.832031 56.484375 -1.90625 L 37.953125 -62.359375 L 35.890625 -3.671875 C 35.785156 -2.203125 33.921875 -1.195312 30.296875 -0.65625 C 26.671875 -0.125 23.65625 0.140625 21.25 0.140625 C 18.851562 0.140625 16.523438 -0.00390625 14.265625 -0.296875 C 9.554688 -0.984375 7.253906 -2.207031 7.359375 -3.96875 L 10.734375 -99.578125 C 10.734375 -101.929688 16.71875 -103.109375 28.6875 -103.109375 C 32.207031 -103.109375 36.515625 -102.835938 41.609375 -102.296875 C 46.710938 -101.753906 49.5625 -100.695312 50.15625 -99.125 L 66.625 -52.796875 L 81.046875 -99.28125 C 81.921875 -101.832031 88.6875 -103.109375 101.34375 -103.109375 C 104.96875 -103.109375 109.300781 -102.835938 114.34375 -102.296875 C 119.394531 -101.753906 121.921875 -100.796875 121.921875 -99.421875 L 126.1875 -2.9375 C 126.1875 -1.863281 124.273438 -1.082031 120.453125 -0.59375 C 116.628906 -0.101562 113.25 0.140625 110.3125 0.140625 Z M 110.3125 0.140625 "/></g></g></g><g clip-path="url(#d733962d0e)"><path fill="#fefefe" d="M 104.207031 228.382812 L 100.835938 226.996094 C 100.832031 226.988281 100.816406 226.980469 100.808594 226.972656 C 98.78125 225.792969 97.460938 222.371094 97.445312 218.242188 C 97.4375 214.117188 98.746094 210.691406 100.777344 209.5 C 100.785156 209.492188 100.796875 209.484375 100.804688 209.480469 L 104.175781 208.078125 C 104.4375 207.96875 104.566406 207.660156 104.457031 207.394531 C 104.351562 207.132812 104.039062 207.003906 103.777344 207.113281 L 100.40625 208.515625 C 100.398438 208.515625 100.386719 208.519531 100.378906 208.519531 C 98.105469 209.121094 94.75 207.632812 91.828125 204.726562 C 88.910156 201.8125 87.40625 198.460938 88 196.191406 C 88 196.175781 88.007812 196.171875 88.007812 196.15625 L 89.394531 192.785156 C 89.503906 192.515625 89.375 192.210938 89.113281 192.105469 C 88.84375 191.996094 88.539062 192.125 88.433594 192.386719 L 87.042969 195.757812 C 87.035156 195.765625 87.03125 195.777344 87.023438 195.785156 C 85.84375 197.816406 82.417969 199.136719 78.292969 199.148438 C 74.171875 199.15625 70.742188 197.847656 69.546875 195.820312 C 69.539062 195.8125 69.535156 195.804688 69.535156 195.800781 L 68.132812 192.429688 C 68.023438 192.164062 67.714844 192.039062 67.449219 192.144531 C 67.1875 192.253906 67.058594 192.5625 67.167969 192.824219 L 68.570312 196.195312 C 68.570312 196.203125 68.578125 196.21875 68.578125 196.222656 C 69.175781 198.496094 67.6875 201.855469 64.78125 204.773438 C 61.867188 207.691406 58.519531 209.195312 56.246094 208.601562 C 56.230469 208.601562 56.226562 208.59375 56.210938 208.59375 L 52.839844 207.207031 C 52.570312 207.097656 52.269531 207.226562 52.160156 207.488281 C 52.050781 207.757812 52.179688 208.0625 52.441406 208.171875 L 55.8125 209.558594 C 55.820312 209.566406 55.835938 209.574219 55.839844 209.578125 C 57.871094 210.757812 59.191406 214.183594 59.207031 218.3125 C 59.210938 222.4375 57.90625 225.863281 55.875 227.054688 C 55.867188 227.0625 55.863281 227.070312 55.855469 227.070312 L 52.484375 228.472656 C 52.222656 228.578125 52.09375 228.890625 52.199219 229.152344 C 52.308594 229.414062 52.617188 229.542969 52.882812 229.433594 L 56.253906 228.03125 C 56.265625 228.03125 56.273438 228.027344 56.285156 228.027344 C 58.558594 227.425781 61.914062 228.914062 64.835938 231.820312 C 67.753906 234.734375 69.257812 238.085938 68.664062 240.355469 C 68.664062 240.363281 68.65625 240.378906 68.65625 240.382812 L 67.269531 243.753906 C 67.160156 244.023438 67.289062 244.328125 67.550781 244.4375 C 67.820312 244.542969 68.125 244.414062 68.234375 244.152344 L 69.621094 240.78125 C 69.628906 240.773438 69.636719 240.761719 69.640625 240.753906 C 70.820312 238.726562 74.246094 237.402344 78.371094 237.390625 C 82.5 237.382812 85.925781 238.691406 87.117188 240.722656 C 87.125 240.726562 87.128906 240.742188 87.136719 240.746094 L 88.539062 244.117188 C 88.648438 244.382812 88.957031 244.511719 89.222656 244.402344 C 89.484375 244.292969 89.613281 243.984375 89.503906 243.722656 L 88.101562 240.351562 C 88.101562 240.335938 88.09375 240.328125 88.09375 240.316406 C 87.496094 238.042969 88.984375 234.6875 91.890625 231.769531 C 94.804688 228.847656 98.152344 227.34375 100.425781 227.9375 C 100.433594 227.9375 100.445312 227.945312 100.453125 227.945312 L 103.824219 229.332031 C 104.09375 229.441406 104.398438 229.3125 104.503906 229.050781 C 104.605469 228.800781 104.476562 228.496094 104.207031 228.382812 Z M 86.976562 198.65625 C 87.117188 199.339844 87.359375 200.054688 87.695312 200.78125 C 88.445312 202.386719 89.613281 204.011719 91.082031 205.472656 C 92.550781 206.9375 94.175781 208.101562 95.789062 208.839844 C 95.929688 208.90625 96.078125 208.964844 96.21875 209.027344 C 96.796875 209.269531 97.371094 209.445312 97.917969 209.554688 L 94.296875 211.070312 C 92.167969 211.683594 89.625 210.855469 87.671875 208.90625 C 85.714844 206.957031 84.878906 204.421875 85.480469 202.285156 Z M 70.671875 215.695312 L 76.957031 218.285156 L 70.679688 220.898438 C 71.003906 219.988281 71.160156 219.140625 71.160156 218.296875 C 71.164062 217.453125 71.003906 216.605469 70.671875 215.695312 Z M 78.324219 216.921875 L 75.710938 210.644531 C 76.621094 210.96875 77.46875 211.125 78.3125 211.125 C 79.15625 211.125 79.996094 210.960938 80.914062 210.632812 Z M 81.878906 211.03125 C 82.296875 211.90625 82.78125 212.613281 83.382812 213.207031 C 83.980469 213.800781 84.691406 214.285156 85.566406 214.695312 L 79.289062 217.3125 Z M 77.363281 217.320312 L 71.078125 214.730469 C 71.953125 214.3125 72.664062 213.828125 73.253906 213.226562 C 73.847656 212.628906 74.335938 211.917969 74.746094 211.042969 Z M 77.363281 219.246094 L 74.773438 225.53125 C 74.355469 224.65625 73.871094 223.945312 73.269531 223.355469 C 72.667969 222.761719 71.960938 222.273438 71.085938 221.863281 Z M 78.324219 219.644531 L 80.941406 225.921875 C 80.03125 225.597656 79.183594 225.445312 78.339844 225.445312 C 77.496094 225.445312 76.652344 225.605469 75.738281 225.9375 Z M 79.289062 219.246094 L 85.574219 221.835938 C 84.695312 222.253906 83.988281 222.738281 83.394531 223.339844 C 82.800781 223.941406 82.316406 224.648438 81.90625 225.523438 Z M 79.6875 218.285156 L 85.964844 215.667969 C 85.640625 216.578125 85.484375 217.425781 85.484375 218.269531 C 85.484375 219.113281 85.648438 219.957031 85.976562 220.871094 Z M 84.117188 212.472656 C 83.414062 211.777344 82.882812 210.882812 82.4375 209.667969 L 84.367188 204.988281 C 84.675781 206.632812 85.558594 208.273438 86.933594 209.640625 C 87.867188 210.5625 88.917969 211.273438 90.007812 211.71875 C 90.535156 211.933594 91.0625 212.085938 91.59375 212.1875 L 86.921875 214.128906 C 85.714844 213.699219 84.816406 213.167969 84.117188 212.472656 Z M 81.472656 209.269531 C 80.308594 209.816406 79.296875 210.078125 78.3125 210.078125 C 77.328125 210.078125 76.316406 209.824219 75.144531 209.28125 L 73.203125 204.617188 C 74.582031 205.5625 76.363281 206.09375 78.304688 206.09375 C 80.246094 206.085938 82.027344 205.546875 83.402344 204.597656 Z M 74.179688 209.679688 C 73.742188 210.894531 73.207031 211.792969 72.515625 212.492188 C 71.820312 213.195312 70.921875 213.726562 69.710938 214.171875 L 65.03125 212.242188 C 66.675781 211.933594 68.3125 211.050781 69.683594 209.675781 C 71.050781 208.300781 71.925781 206.652344 72.230469 205.015625 Z M 69.3125 215.136719 C 69.859375 216.300781 70.121094 217.3125 70.121094 218.296875 C 70.121094 219.28125 69.863281 220.292969 69.324219 221.464844 L 64.652344 223.40625 C 65.597656 222.027344 66.128906 220.246094 66.128906 218.304688 C 66.121094 216.363281 65.582031 214.582031 64.632812 213.207031 Z M 69.722656 222.429688 C 70.9375 222.867188 71.832031 223.402344 72.535156 224.09375 C 73.234375 224.789062 73.769531 225.6875 74.214844 226.898438 L 72.285156 231.578125 C 71.976562 229.933594 71.089844 228.296875 69.714844 226.925781 C 68.339844 225.558594 66.695312 224.683594 65.058594 224.378906 Z M 75.175781 227.296875 C 76.34375 226.75 77.355469 226.488281 78.339844 226.488281 C 79.324219 226.488281 80.335938 226.746094 81.507812 227.285156 L 83.449219 231.949219 C 82.066406 231.003906 80.289062 230.472656 78.347656 230.472656 C 76.402344 230.480469 74.625 231.019531 73.25 231.96875 Z M 82.472656 226.886719 C 82.910156 225.671875 83.441406 224.777344 84.136719 224.074219 C 84.832031 223.375 85.726562 222.839844 86.941406 222.394531 L 91.621094 224.324219 C 89.976562 224.632812 88.335938 225.519531 86.96875 226.894531 C 85.601562 228.269531 84.722656 229.914062 84.421875 231.550781 Z M 87.339844 221.433594 C 86.792969 220.265625 86.53125 219.253906 86.53125 218.269531 C 86.53125 217.285156 86.785156 216.273438 87.328125 215.101562 L 91.992188 213.160156 C 91.046875 214.542969 90.515625 216.320312 90.515625 218.261719 C 90.523438 220.207031 91.0625 221.984375 92.011719 223.359375 Z M 72.582031 199.277344 C 74.246094 199.886719 76.222656 200.207031 78.292969 200.203125 C 80.363281 200.195312 82.335938 199.871094 84.003906 199.257812 C 84.757812 198.980469 85.433594 198.644531 86.011719 198.261719 L 84.515625 201.886719 C 83.441406 203.828125 81.0625 205.035156 78.296875 205.042969 C 75.535156 205.050781 73.15625 203.847656 72.070312 201.90625 L 70.558594 198.285156 C 71.144531 198.671875 71.828125 199 72.582031 199.277344 Z M 60.824219 208.90625 C 62.429688 208.15625 64.054688 206.992188 65.515625 205.519531 C 66.980469 204.050781 68.144531 202.425781 68.878906 200.816406 C 69.21875 200.082031 69.453125 199.367188 69.59375 198.683594 L 71.105469 202.304688 C 71.71875 204.4375 70.890625 206.976562 68.941406 208.933594 C 66.992188 210.886719 64.457031 211.722656 62.320312 211.125 L 58.691406 209.628906 C 59.378906 209.492188 60.09375 209.25 60.824219 208.90625 Z M 59.320312 224.027344 C 59.925781 222.363281 60.25 220.386719 60.242188 218.316406 C 60.238281 216.246094 59.914062 214.273438 59.300781 212.605469 C 59.023438 211.851562 58.6875 211.175781 58.300781 210.597656 L 61.929688 212.09375 C 63.871094 213.167969 65.078125 215.546875 65.085938 218.3125 C 65.089844 221.074219 63.890625 223.453125 61.949219 224.539062 L 58.328125 226.050781 C 58.714844 225.464844 59.042969 224.78125 59.320312 224.027344 Z M 69.675781 237.910156 C 69.535156 237.230469 69.292969 236.515625 68.953125 235.785156 C 68.207031 234.179688 67.039062 232.554688 65.570312 231.09375 C 64.101562 229.628906 62.476562 228.464844 60.863281 227.730469 C 60.128906 227.390625 59.414062 227.15625 58.734375 227.015625 L 62.355469 225.503906 C 64.484375 224.890625 67.027344 225.71875 68.980469 227.667969 C 70.9375 229.617188 71.773438 232.152344 71.171875 234.289062 Z M 84.070312 237.289062 C 82.40625 236.683594 80.429688 236.359375 78.359375 236.367188 C 76.289062 236.371094 74.3125 236.695312 72.648438 237.308594 C 71.894531 237.585938 71.21875 237.921875 70.640625 238.308594 L 72.136719 234.679688 C 73.207031 232.738281 75.589844 231.53125 78.351562 231.523438 C 81.117188 231.519531 83.496094 232.71875 84.582031 234.660156 L 86.09375 238.28125 C 85.507812 237.894531 84.824219 237.566406 84.070312 237.289062 Z M 95.828125 227.660156 C 94.222656 228.410156 92.597656 229.578125 91.136719 231.046875 C 89.671875 232.515625 88.507812 234.140625 87.769531 235.753906 C 87.433594 236.488281 87.199219 237.203125 87.054688 237.882812 L 85.539062 234.253906 C 84.925781 232.125 85.753906 229.582031 87.703125 227.628906 C 89.652344 225.671875 92.1875 224.835938 94.324219 225.4375 L 97.953125 226.933594 C 97.269531 227.074219 96.554688 227.316406 95.828125 227.660156 Z M 94.722656 224.472656 C 92.78125 223.402344 91.574219 221.019531 91.566406 218.257812 C 91.558594 215.492188 92.761719 213.113281 94.703125 212.027344 L 98.324219 210.515625 C 97.9375 211.097656 97.609375 211.777344 97.332031 212.53125 C 96.722656 214.199219 96.402344 216.171875 96.40625 218.242188 C 96.414062 220.3125 96.738281 222.289062 97.351562 223.953125 C 97.628906 224.707031 97.964844 225.382812 98.347656 225.960938 Z M 94.722656 224.472656 " fill-opacity="1" fill-rule="nonzero"/></g><g clip-path="url(#44566dbab8)"><path fill="#fefefe" d="M 179.25 73.480469 C 179.625 73.480469 180.089844 73.621094 180.863281 73.90625 C 182.339844 74.429688 182.625 74.679688 183.023438 75.722656 C 183.238281 76.28125 183.488281 76.601562 183.882812 76.800781 C 185.339844 77.484375 185.789062 77.789062 185.898438 78.132812 C 185.953125 78.328125 186.003906 79.191406 186.023438 80.054688 C 186.023438 80.9375 186.132812 81.996094 186.257812 82.445312 C 186.402344 82.894531 186.597656 83.722656 186.707031 84.277344 C 186.816406 84.855469 186.996094 85.359375 187.085938 85.410156 C 187.175781 85.484375 187.246094 85.699219 187.246094 85.933594 C 187.246094 86.148438 187.335938 86.417969 187.445312 86.527344 C 187.550781 86.632812 187.660156 87.03125 187.675781 87.40625 C 187.714844 87.800781 187.910156 88.503906 188.125 89.007812 C 188.574219 89.996094 188.757812 91.199219 188.484375 91.363281 C 188.46875 91.371094 188.449219 91.375 188.421875 91.375 C 188.171875 91.375 187.488281 90.890625 186.492188 89.976562 C 183.992188 87.675781 180.144531 85.914062 175.472656 84.925781 C 174.988281 84.820312 174.464844 84.65625 174.355469 84.546875 C 174.015625 84.296875 174.070312 83.148438 174.464844 82.515625 C 174.644531 82.210938 174.859375 81.691406 174.933594 81.347656 C 175.003906 81.007812 175.183594 80.574219 175.308594 80.378906 C 175.453125 80.179688 175.5625 79.894531 175.5625 79.730469 C 175.5625 79.570312 175.667969 79.335938 175.8125 79.226562 C 176.046875 79.03125 176.171875 78.652344 176.710938 76.332031 C 177.035156 75.023438 177.378906 74.445312 178.257812 73.851562 C 178.625 73.609375 178.894531 73.480469 179.25 73.480469 Z M 242.761719 96.5625 C 242.761719 96.5625 242.765625 96.5625 242.765625 96.5625 Z M 206.28125 93.058594 C 206.503906 93.058594 206.71875 93.191406 206.859375 93.445312 C 207 93.699219 207.074219 95.046875 207.109375 97.257812 C 207.128906 99.882812 207.199219 100.871094 207.433594 101.480469 C 207.738281 102.34375 207.683594 102.757812 207.234375 102.757812 C 207.019531 102.757812 207 102.8125 207.164062 102.972656 C 207.5 103.3125 207.445312 103.613281 207.117188 103.613281 C 207.0625 103.613281 207 103.601562 206.929688 103.585938 C 206.84375 103.566406 206.769531 103.554688 206.710938 103.554688 L 206.707031 103.554688 C 206.398438 103.554688 206.410156 103.808594 206.769531 104.214844 C 207.074219 104.554688 206.984375 105.09375 206.550781 105.542969 C 206.300781 105.777344 206.300781 105.886719 206.570312 106.390625 C 206.769531 106.800781 206.820312 107.214844 206.75 107.703125 C 206.570312 108.886719 206.480469 109.050781 206.066406 109.050781 C 205.851562 109.050781 205.5625 109.210938 205.4375 109.410156 C 205.300781 109.640625 205.007812 109.769531 204.726562 109.769531 C 204.527344 109.769531 204.332031 109.703125 204.195312 109.570312 C 204.128906 109.5 204.0625 109.464844 203.996094 109.464844 C 203.910156 109.464844 203.816406 109.527344 203.695312 109.660156 C 203.515625 109.832031 203.445312 109.917969 203.339844 109.917969 C 203.230469 109.917969 203.082031 109.832031 202.742188 109.660156 C 202.09375 109.355469 202.09375 109.335938 202.363281 108.835938 C 202.488281 108.601562 202.488281 108.402344 202.382812 108.292969 C 202.164062 108.078125 202.382812 107.234375 202.8125 106.570312 C 202.992188 106.300781 203.15625 105.886719 203.171875 105.632812 C 203.191406 105.382812 203.28125 104.589844 203.351562 103.890625 C 203.441406 102.832031 203.566406 102.488281 203.925781 102.128906 C 204.160156 101.878906 204.449219 101.679688 204.554688 101.679688 C 204.664062 101.679688 204.609375 101.535156 204.449219 101.355469 C 204.070312 100.941406 204.070312 100.4375 204.414062 99.773438 C 204.554688 99.488281 204.683594 98.894531 204.683594 98.445312 C 204.683594 97.976562 204.828125 97.402344 205.023438 97.097656 C 205.238281 96.71875 205.382812 96.070312 205.4375 95.082031 C 205.492188 94.273438 205.617188 93.484375 205.761719 93.339844 C 205.90625 93.152344 206.09375 93.058594 206.28125 93.058594 Z M 222.003906 90.03125 C 222.207031 90.03125 222.429688 90.144531 222.746094 90.355469 C 223.054688 90.550781 223.519531 90.714844 223.789062 90.714844 C 224.132812 90.714844 224.492188 90.894531 224.816406 91.253906 C 225.410156 91.882812 226.039062 92.152344 226.9375 92.152344 C 227.296875 92.152344 227.851562 92.296875 228.140625 92.476562 C 228.445312 92.65625 228.96875 92.871094 229.308594 92.925781 C 231.035156 93.25 232.453125 93.769531 233.535156 94.472656 C 234.289062 94.96875 234.628906 95.152344 234.957031 95.152344 C 235.042969 95.152344 235.128906 95.140625 235.222656 95.117188 C 235.324219 95.097656 235.425781 95.085938 235.53125 95.085938 C 235.789062 95.085938 236.050781 95.148438 236.265625 95.261719 C 237.667969 95.964844 238.40625 96.285156 238.65625 96.285156 C 238.703125 96.285156 238.757812 96.296875 238.816406 96.320312 L 238.8125 96.320312 L 239.476562 96.820312 L 239.128906 97.339844 L 238.941406 98.234375 C 238.5 99.40625 238.078125 100.664062 237.667969 102.019531 C 237.585938 102.300781 237.488281 102.917969 237.382812 103.867188 C 237.355469 104.0625 237.339844 104.539062 237.339844 105.304688 C 237.308594 105.488281 237.269531 105.742188 237.230469 106.058594 C 237.1875 106.035156 237.140625 106.007812 237.09375 105.976562 C 236.824219 105.796875 236.390625 105.632812 236.140625 105.632812 C 235.886719 105.632812 235.527344 105.527344 235.332031 105.382812 C 235.132812 105.257812 234.648438 105.042969 234.253906 104.914062 C 233.855469 104.789062 233.226562 104.5 232.867188 104.25 C 231.878906 103.585938 229.101562 102.640625 228.179688 102.640625 C 228.132812 102.640625 228.089844 102.644531 228.050781 102.648438 C 227.710938 102.703125 227.242188 102.738281 227.027344 102.757812 C 226.773438 102.757812 226.613281 102.867188 226.613281 103.027344 C 226.613281 103.1875 226.515625 103.246094 226.222656 103.246094 C 226.117188 103.246094 225.984375 103.238281 225.820312 103.226562 C 225.644531 103.210938 225.46875 103.203125 225.320312 103.203125 C 225.109375 103.203125 224.953125 103.21875 224.921875 103.261719 C 224.78125 103.386719 223.539062 103.835938 223.269531 103.835938 C 223.144531 103.835938 223.019531 103.675781 222.964844 103.476562 C 222.898438 103.242188 222.808594 103.132812 222.730469 103.132812 C 222.636719 103.132812 222.558594 103.296875 222.566406 103.601562 C 222.566406 104.050781 222.460938 104.140625 221.6875 104.394531 C 221.203125 104.554688 220.734375 104.824219 220.644531 104.96875 C 220.574219 105.097656 220.441406 105.183594 220.328125 105.183594 C 220.300781 105.183594 220.273438 105.175781 220.25 105.167969 C 220.222656 105.15625 220.199219 105.152344 220.171875 105.152344 C 220.0625 105.152344 219.949219 105.230469 219.90625 105.347656 C 219.835938 105.507812 219.636719 105.632812 219.441406 105.632812 C 219.242188 105.632812 219.027344 105.796875 218.972656 106.011719 C 218.847656 106.371094 218.25 106.691406 217.894531 106.691406 C 217.734375 106.691406 217.625 106.628906 217.625 106.480469 C 217.625 106.351562 217.464844 106.15625 217.265625 106.03125 C 217.121094 105.945312 217.035156 105.902344 216.980469 105.902344 C 216.921875 105.902344 216.90625 105.960938 216.90625 106.082031 C 216.90625 106.226562 216.996094 106.351562 217.085938 106.351562 C 217.195312 106.351562 217.265625 106.585938 217.265625 106.894531 C 217.265625 107.214844 217.175781 107.433594 217.03125 107.433594 C 216.886719 107.433594 216.601562 107.648438 216.347656 107.898438 C 215.792969 108.496094 215.28125 108.78125 214.785156 108.78125 C 214.640625 108.78125 214.496094 108.757812 214.351562 108.707031 C 214.035156 108.597656 213.855469 108.535156 213.773438 108.535156 L 213.769531 108.535156 C 213.671875 108.539062 213.730469 108.640625 213.851562 108.871094 C 214.1875 109.492188 213.359375 111.304688 212.824219 111.304688 C 212.789062 111.304688 212.75 111.296875 212.71875 111.277344 C 212.667969 111.25 212.636719 111.230469 212.621094 111.230469 L 212.617188 111.230469 C 212.59375 111.234375 212.628906 111.285156 212.71875 111.386719 C 212.964844 111.664062 212.761719 112.007812 212.4375 112.007812 C 212.382812 112.007812 212.328125 112 212.269531 111.980469 C 212.171875 111.953125 212.113281 111.941406 212.082031 111.941406 L 212.078125 111.941406 C 212.03125 111.941406 212.085938 111.984375 212.230469 112.085938 C 212.464844 112.25 212.449219 112.320312 212.105469 112.554688 C 211.890625 112.699219 211.601562 112.933594 211.476562 113.078125 C 211.351562 113.203125 211.027344 113.363281 210.757812 113.417969 C 210.625 113.449219 210.527344 113.472656 210.449219 113.472656 C 210.277344 113.472656 210.222656 113.371094 210.148438 113.113281 C 210.074219 112.789062 210.164062 112.484375 210.507812 112.050781 C 210.757812 111.710938 210.972656 111.351562 210.972656 111.226562 C 210.972656 111.117188 211.171875 110.9375 211.40625 110.847656 C 211.710938 110.738281 211.871094 110.503906 211.960938 110.019531 C 212.089844 109.285156 212.679688 108.527344 213.132812 108.511719 C 213.347656 108.492188 213.347656 108.457031 213.078125 108.257812 C 212.808594 108.042969 212.808594 107.988281 213.042969 107.792969 C 213.183594 107.664062 213.3125 107.289062 213.3125 106.964844 C 213.3125 106.550781 213.402344 106.351562 213.582031 106.351562 C 213.722656 106.351562 213.796875 106.246094 213.742188 106.121094 C 213.582031 105.6875 214.621094 103.945312 215.089844 103.835938 C 215.503906 103.746094 215.503906 103.730469 215.214844 103.421875 C 214.839844 103.046875 214.964844 102.578125 215.46875 102.453125 C 215.738281 102.378906 215.792969 102.253906 215.703125 101.839844 C 215.628906 101.445312 215.683594 101.300781 215.933594 101.195312 C 216.527344 100.980469 216.707031 100.707031 216.421875 100.511719 C 216.222656 100.367188 216.242188 100.222656 216.546875 99.613281 C 216.816406 99.070312 217.234375 98.699219 217.507812 98.699219 C 217.59375 98.699219 217.667969 98.738281 217.714844 98.820312 C 217.761719 98.878906 217.824219 98.90625 217.894531 98.90625 C 217.9375 98.90625 217.980469 98.894531 218.019531 98.875 C 218.109375 98.804688 218.003906 98.625 217.734375 98.460938 C 217.480469 98.28125 217.320312 98.085938 217.390625 98.011719 C 217.480469 97.941406 217.535156 97.816406 217.554688 97.761719 C 217.570312 97.617188 217.914062 96.773438 218.289062 95.980469 C 218.433594 95.675781 218.503906 95.335938 218.453125 95.246094 C 218.398438 95.136719 218.398438 95.027344 218.46875 94.992188 C 218.722656 94.882812 219.421875 93.789062 219.78125 92.960938 C 220.015625 92.425781 220.335938 92.121094 220.609375 92.121094 C 220.738281 92.121094 220.859375 92.1875 220.949219 92.332031 C 221 92.414062 221.167969 92.496094 221.320312 92.496094 C 221.335938 92.496094 221.351562 92.496094 221.363281 92.492188 C 221.542969 92.492188 221.4375 92.367188 221.09375 92.207031 C 220.339844 91.828125 220.339844 91.453125 221.113281 90.640625 C 221.5 90.226562 221.738281 90.03125 222.003906 90.03125 Z M 214.816406 123.632812 C 215.042969 123.632812 215.320312 123.804688 215.738281 124.167969 C 216.492188 124.832031 216.527344 125.28125 215.988281 126.898438 C 215.574219 128.121094 215.214844 128.644531 214.765625 128.644531 C 214.605469 128.644531 214.246094 128.839844 213.941406 129.09375 C 213.628906 129.363281 213.332031 129.5 213.105469 129.5 C 212.84375 129.5 212.664062 129.328125 212.628906 128.984375 C 212.59375 128.605469 212.734375 128.375 213.347656 127.851562 C 213.8125 127.457031 214.226562 126.898438 214.390625 126.433594 C 214.640625 125.765625 214.640625 125.585938 214.40625 124.941406 C 214.171875 124.3125 214.171875 124.132812 214.371094 123.898438 C 214.515625 123.722656 214.652344 123.632812 214.816406 123.632812 Z M 180.148438 129.554688 C 180.300781 129.554688 180.445312 129.632812 180.578125 129.792969 C 180.738281 129.972656 180.703125 130.136719 180.433594 130.457031 C 180.261719 130.671875 180.164062 130.765625 180.054688 130.765625 C 179.984375 130.765625 179.90625 130.71875 179.804688 130.636719 C 179.460938 130.351562 179.445312 130.046875 179.730469 129.757812 C 179.871094 129.621094 180.011719 129.554688 180.148438 129.554688 Z M 192.621094 144.644531 C 192.554688 144.644531 192.476562 144.675781 192.40625 144.75 C 192.261719 144.894531 192.421875 145.179688 192.65625 145.179688 C 192.746094 145.179688 192.820312 145.054688 192.820312 144.910156 C 192.820312 144.742188 192.734375 144.644531 192.621094 144.644531 Z M 177.847656 68.652344 C 177.765625 68.652344 177.71875 68.6875 177.71875 68.765625 C 177.71875 68.847656 177.601562 68.890625 177.378906 68.890625 C 177.265625 68.890625 177.117188 68.878906 176.945312 68.855469 C 176.734375 68.824219 176.578125 68.804688 176.453125 68.804688 C 176.136719 68.804688 176.03125 68.9375 175.757812 69.378906 C 175.398438 69.953125 175.382812 70.097656 175.578125 70.851562 C 175.796875 71.714844 175.617188 72.558594 175.203125 72.558594 C 175.113281 72.558594 175.023438 72.683594 175.023438 72.847656 C 175.023438 73.007812 174.859375 73.421875 174.644531 73.746094 C 174.445312 74.085938 174.320312 74.410156 174.355469 74.480469 C 174.484375 74.679688 174.015625 76.855469 173.800781 77.105469 C 173.691406 77.234375 173.421875 78.058594 173.207031 78.941406 C 172.992188 79.839844 172.632812 80.972656 172.398438 81.476562 C 172.164062 81.976562 171.914062 82.660156 171.859375 83.003906 C 171.679688 83.9375 171.300781 84.566406 170.851562 84.691406 C 170.617188 84.746094 170.113281 84.890625 169.71875 84.980469 C 169.324219 85.089844 168.820312 85.25 168.585938 85.339844 C 168.351562 85.429688 167.957031 85.5 167.6875 85.5 C 167.417969 85.5 166.808594 85.628906 166.304688 85.789062 C 165.820312 85.949219 165.332031 86.09375 165.226562 86.113281 C 162.726562 86.742188 161.398438 87.226562 159.726562 88.089844 C 156.597656 89.707031 154.171875 91.8125 151.832031 94.9375 C 149.28125 98.355469 148.722656 99.667969 148.453125 102.757812 C 148.292969 104.574219 148.292969 105.183594 148.5625 108.0625 C 148.851562 110.972656 150.703125 115.609375 152.644531 118.164062 C 154.636719 120.824219 157.53125 122.980469 159.921875 123.59375 C 160.371094 123.71875 161.179688 124.042969 161.71875 124.328125 C 163.007812 124.988281 165.214844 125.734375 165.929688 125.734375 C 165.953125 125.734375 165.976562 125.734375 166 125.730469 C 166.050781 125.726562 166.101562 125.726562 166.148438 125.726562 C 166.675781 125.726562 166.933594 125.910156 166.933594 126.324219 C 166.933594 126.664062 166.898438 126.683594 165.945312 126.753906 C 165.65625 126.773438 164.902344 126.898438 164.289062 127.027344 C 163.835938 127.121094 163.496094 127.171875 163.199219 127.171875 C 162.945312 127.171875 162.726562 127.136719 162.492188 127.0625 C 162.117188 126.953125 160.769531 126.738281 159.472656 126.574219 C 158.195312 126.414062 157.011719 126.234375 156.867188 126.179688 C 156.722656 126.125 156.203125 126.074219 155.699219 126.035156 C 154.726562 125.964844 153.917969 125.714844 153.722656 125.425781 C 153.640625 125.289062 153.535156 125.230469 153.449219 125.230469 C 153.34375 125.230469 153.273438 125.328125 153.34375 125.496094 C 153.414062 125.714844 153.273438 125.765625 152.589844 125.765625 C 152.121094 125.765625 151.527344 125.660156 151.257812 125.515625 C 151.066406 125.417969 150.925781 125.367188 150.835938 125.367188 C 150.773438 125.367188 150.734375 125.390625 150.71875 125.445312 C 150.695312 125.511719 150.648438 125.542969 150.582031 125.542969 C 150.503906 125.542969 150.394531 125.503906 150.25 125.425781 C 150.109375 125.351562 150.015625 125.308594 149.957031 125.308594 C 149.875 125.308594 149.855469 125.386719 149.855469 125.550781 C 149.855469 126.019531 149.390625 126.378906 148.328125 126.71875 C 147.375 127.042969 144.375 127.566406 143.546875 127.566406 C 143.242188 127.566406 142.792969 127.78125 142.449219 128.085938 C 141.640625 128.769531 141.175781 129.003906 140.542969 129.003906 C 140.257812 129.003906 139.773438 129.128906 139.503906 129.273438 C 139.214844 129.417969 138.820312 129.542969 138.621094 129.542969 C 138.421875 129.542969 138.152344 129.703125 138.027344 129.902344 C 137.867188 130.1875 137.613281 130.261719 136.949219 130.261719 C 136.25 130.261719 135.996094 130.351562 135.65625 130.710938 C 135.386719 131 135.042969 131.160156 134.683594 131.160156 C 134.234375 131.160156 134.074219 131.269531 133.875 131.699219 C 133.515625 132.527344 132.886719 132.851562 131.609375 132.867188 C 130.695312 132.886719 130.335938 132.992188 129.578125 133.460938 C 129.078125 133.765625 128.195312 134.160156 127.621094 134.324219 C 126.558594 134.628906 125.949219 134.972656 124.925781 135.851562 C 124.222656 136.445312 121.742188 137.703125 120.933594 137.863281 C 120.609375 137.9375 120.015625 138.261719 119.621094 138.621094 C 119.207031 138.960938 118.378906 139.410156 117.75 139.609375 C 117.121094 139.824219 116.421875 140.148438 116.167969 140.34375 C 115.9375 140.523438 115.648438 140.6875 115.523438 140.6875 C 115.21875 140.6875 113.023438 142.84375 112.699219 143.4375 C 112.464844 143.886719 112.464844 143.996094 112.738281 144.390625 C 112.90625 144.65625 113.066406 144.789062 113.265625 144.789062 C 113.480469 144.789062 113.746094 144.628906 114.121094 144.300781 C 114.910156 143.617188 116.402344 142.84375 116.941406 142.84375 C 117.210938 142.84375 117.660156 142.59375 118.039062 142.214844 C 118.695312 141.574219 120.070312 141.027344 120.882812 141.027344 C 121.027344 141.027344 121.15625 141.042969 121.257812 141.082031 C 121.425781 141.140625 121.578125 141.167969 121.710938 141.167969 C 121.992188 141.167969 122.171875 141.042969 122.171875 140.8125 C 122.171875 140.292969 123.074219 139.734375 124.636719 139.339844 C 125.5 139.105469 126.578125 138.800781 127.007812 138.636719 C 127.441406 138.476562 127.890625 138.351562 128.035156 138.351562 C 128.160156 138.351562 128.753906 138.027344 129.363281 137.613281 C 129.976562 137.21875 130.730469 136.804688 131.035156 136.695312 C 132.007812 136.390625 134.144531 135.332031 134.398438 135.023438 C 134.523438 134.882812 134.882812 134.753906 135.1875 134.753906 C 135.492188 134.753906 135.941406 134.59375 136.195312 134.394531 C 136.445312 134.199219 136.824219 134.035156 137.039062 134.035156 C 137.253906 134.035156 137.703125 133.875 138.027344 133.695312 C 138.605469 133.371094 139.324219 133.226562 141.765625 133.03125 C 142.394531 132.976562 143.601562 132.722656 144.410156 132.488281 C 145.4375 132.199219 145.917969 132.109375 147.136719 132.109375 C 147.492188 132.109375 147.917969 132.117188 148.4375 132.128906 C 149.839844 132.183594 151.0625 132.292969 151.167969 132.398438 C 151.214844 132.445312 151.265625 132.46875 151.324219 132.46875 C 151.4375 132.46875 151.578125 132.394531 151.761719 132.257812 C 151.992188 132.078125 152.503906 131.976562 152.976562 131.976562 C 153.304688 131.976562 153.613281 132.027344 153.792969 132.128906 C 153.832031 132.15625 153.898438 132.167969 153.988281 132.167969 C 154.375 132.167969 155.167969 131.929688 155.84375 131.589844 C 156.160156 131.433594 156.492188 131.355469 156.828125 131.355469 C 157.246094 131.355469 157.664062 131.476562 158.054688 131.71875 C 158.417969 131.945312 158.660156 132.03125 159.160156 132.03125 C 159.375 132.03125 159.636719 132.015625 159.976562 131.988281 C 160.679688 131.933594 162.167969 131.84375 163.25 131.789062 C 167.507812 131.609375 168.585938 131.519531 169.59375 131.359375 C 170.152344 131.25 171.265625 131.125 172.054688 131.070312 C 172.847656 131.015625 173.996094 130.945312 174.625 130.890625 C 175.238281 130.855469 175.886719 130.746094 176.066406 130.65625 C 176.449219 130.453125 177.25 130.351562 177.941406 130.351562 C 178.597656 130.351562 179.15625 130.445312 179.15625 130.636719 C 179.15625 130.710938 178.851562 130.800781 178.492188 130.835938 C 177.628906 130.910156 177.59375 131.230469 178.4375 131.304688 C 178.78125 131.339844 179.15625 131.449219 179.265625 131.539062 C 179.570312 131.789062 179.679688 132.796875 179.480469 133.246094 C 179.300781 133.640625 178.636719 134.035156 178.167969 134.035156 C 178.023438 134.035156 177.898438 134.199219 177.898438 134.394531 C 177.898438 134.574219 177.683594 134.882812 177.429688 135.0625 C 177.179688 135.242188 176.75 135.5625 176.460938 135.78125 C 176.191406 136.011719 175.8125 136.191406 175.652344 136.191406 C 175.488281 136.191406 175.308594 136.335938 175.257812 136.5 C 175.128906 136.929688 172.992188 138.710938 172.59375 138.710938 C 172.433594 138.710938 172.253906 138.855469 172.199219 139.050781 C 172.164062 139.230469 171.769531 139.679688 171.320312 140.039062 C 170.789062 140.484375 170.550781 140.628906 170.203125 140.628906 C 170.101562 140.628906 169.992188 140.617188 169.863281 140.597656 C 169.628906 140.558594 169.472656 140.535156 169.390625 140.535156 L 169.386719 140.535156 C 169.242188 140.535156 169.328125 140.609375 169.59375 140.792969 C 169.808594 140.957031 169.988281 141.15625 169.988281 141.226562 C 169.988281 141.40625 169.144531 141.765625 168.675781 141.765625 C 168.300781 141.785156 168.300781 141.785156 168.605469 142.015625 C 169.019531 142.324219 168.804688 142.828125 168.136719 143.1875 C 167.964844 143.277344 167.839844 143.320312 167.710938 143.320312 C 167.554688 143.320312 167.394531 143.257812 167.132812 143.132812 C 166.886719 143 166.617188 142.917969 166.472656 142.917969 C 166.4375 142.917969 166.410156 142.921875 166.394531 142.933594 C 166.105469 143.113281 166.339844 143.328125 166.933594 143.4375 C 167.417969 143.546875 167.742188 144.101562 167.292969 144.101562 C 167.203125 144.101562 167.058594 144.371094 166.96875 144.695312 C 166.699219 145.667969 165.640625 147.195312 165.0625 147.390625 C 164.8125 147.5 164.777344 147.570312 164.957031 147.789062 C 165.316406 148.21875 165.101562 149.011719 164.488281 149.40625 C 163.984375 149.730469 163.929688 149.835938 164.003906 150.410156 C 164.074219 150.84375 163.96875 151.347656 163.734375 151.902344 C 163.355469 152.730469 163.355469 152.75 163.699219 153.089844 C 164.164062 153.558594 164.148438 153.882812 163.660156 154.203125 C 163.300781 154.4375 163.285156 154.527344 163.480469 154.960938 C 163.699219 155.425781 163.609375 156.957031 163.339844 157.316406 C 163.195312 157.476562 162.960938 160.082031 162.960938 161.269531 C 162.960938 162.5625 163.140625 164.539062 163.300781 164.953125 C 163.410156 165.242188 163.410156 165.582031 163.285156 165.90625 C 163.160156 166.285156 163.175781 166.480469 163.390625 166.714844 C 163.554688 166.878906 163.878906 168.0625 164.128906 169.339844 C 164.6875 172.144531 165.152344 173.222656 165.78125 173.222656 C 166.394531 173.222656 166.683594 172.539062 166.410156 171.765625 C 166.089844 170.851562 165.925781 168.011719 166.195312 167.847656 C 166.339844 167.757812 166.339844 167.5625 166.230469 167.183594 C 165.710938 165.492188 165.621094 164.667969 165.925781 164.089844 C 166.089844 163.785156 166.214844 163.300781 166.214844 163.011719 C 166.214844 162.742188 166.285156 162.4375 166.375 162.347656 C 166.464844 162.238281 166.464844 161.789062 166.339844 161.25 C 166.230469 160.730469 166.214844 160.191406 166.304688 159.992188 C 166.554688 159.417969 166.589844 158.769531 166.375 158.125 C 166.128906 157.277344 166.523438 155.570312 166.960938 155.570312 C 166.96875 155.570312 166.976562 155.570312 166.988281 155.570312 C 167.015625 155.574219 167.039062 155.578125 167.0625 155.578125 C 167.324219 155.578125 167.375 155.324219 167.113281 155.15625 C 167.023438 155.105469 166.933594 154.796875 166.933594 154.492188 C 166.933594 154.167969 166.976562 154.03125 167.09375 154.03125 C 167.125 154.03125 167.160156 154.042969 167.203125 154.0625 C 167.246094 154.078125 167.28125 154.085938 167.316406 154.085938 C 167.429688 154.085938 167.472656 153.980469 167.472656 153.753906 C 167.472656 153.539062 167.632812 153.109375 167.8125 152.800781 C 168.011719 152.480469 168.300781 151.722656 168.480469 151.09375 C 168.839844 149.800781 169.289062 149.027344 169.808594 148.867188 C 170.007812 148.792969 170.167969 148.667969 170.167969 148.578125 C 170.167969 148.363281 170.617188 147.878906 170.816406 147.878906 C 170.976562 147.878906 171.734375 147.050781 171.984375 146.601562 C 172.074219 146.433594 172.179688 146.320312 172.242188 146.320312 C 172.253906 146.320312 172.261719 146.324219 172.273438 146.332031 C 172.285156 146.34375 172.300781 146.347656 172.320312 146.347656 C 172.390625 146.347656 172.492188 146.257812 172.578125 146.097656 C 173.007812 145.378906 173.746094 144.355469 174.160156 143.921875 C 174.410156 143.671875 174.808594 143.097656 175.078125 142.644531 C 175.578125 141.785156 177.71875 139.609375 178.058594 139.609375 C 178.1875 139.609375 178.4375 139.445312 178.636719 139.265625 C 178.832031 139.085938 179.605469 138.671875 180.359375 138.367188 C 181.152344 138.03125 181.519531 137.898438 181.835938 137.898438 C 181.996094 137.898438 182.140625 137.929688 182.320312 137.992188 C 182.664062 138.097656 182.933594 138.3125 182.933594 138.441406 C 182.933594 138.566406 183.308594 138.816406 183.777344 138.996094 C 184.820312 139.410156 186.183594 140.472656 186.90625 141.460938 C 187.210938 141.875 187.585938 142.214844 187.75 142.214844 C 188.125 142.214844 188.558594 143.457031 188.394531 143.996094 C 188.234375 144.460938 188.269531 144.550781 188.539062 144.550781 C 188.773438 144.550781 188.828125 144.730469 189.3125 146.980469 C 189.511719 147.878906 189.726562 148.417969 189.960938 148.578125 C 190.140625 148.703125 190.300781 148.957031 190.300781 149.136719 C 190.300781 149.65625 190.824219 150.519531 191.199219 150.628906 C 191.632812 150.734375 191.902344 151.382812 191.847656 152.210938 C 191.8125 152.640625 191.902344 152.894531 192.136719 153.054688 C 192.316406 153.179688 192.457031 153.394531 192.457031 153.523438 C 192.457031 153.648438 192.640625 153.898438 192.835938 154.097656 C 193.304688 154.511719 194.078125 156.09375 194.078125 156.632812 C 194.078125 156.867188 194.183594 157.046875 194.328125 157.046875 C 194.542969 157.046875 195.515625 158.734375 195.515625 159.113281 C 195.515625 159.167969 195.675781 159.453125 195.890625 159.722656 C 196.109375 160.011719 196.339844 160.640625 196.429688 161.109375 C 196.558594 161.753906 196.773438 162.148438 197.277344 162.636719 C 198.03125 163.390625 198.265625 163.660156 198.550781 164.199219 C 198.660156 164.414062 198.875 164.59375 199.003906 164.59375 C 199.144531 164.59375 199.289062 164.71875 199.363281 164.863281 C 199.414062 165.007812 199.792969 165.261719 200.1875 165.421875 C 200.710938 165.636719 200.945312 165.835938 201.015625 166.195312 C 201.070312 166.445312 201.230469 166.878906 201.375 167.148438 C 201.519531 167.398438 201.625 167.722656 201.625 167.847656 C 201.625 167.992188 201.949219 168.386719 202.34375 168.746094 C 202.8125 169.179688 203.066406 169.554688 203.066406 169.84375 C 203.066406 170.09375 203.226562 170.4375 203.425781 170.617188 C 203.621094 170.796875 203.820312 171.085938 203.875 171.265625 C 203.945312 171.460938 204.089844 171.605469 204.234375 171.605469 C 204.359375 171.605469 204.71875 172.125 205.023438 172.757812 C 205.328125 173.386719 205.636719 173.960938 205.742188 174.015625 C 205.832031 174.066406 206.101562 174.5 206.316406 174.984375 C 206.550781 175.453125 206.839844 175.9375 206.964844 176.0625 C 207.089844 176.1875 207.253906 176.496094 207.308594 176.746094 C 207.351562 176.945312 207.453125 177.082031 207.535156 177.082031 C 207.550781 177.082031 207.5625 177.078125 207.578125 177.070312 C 207.589844 177.0625 207.601562 177.058594 207.613281 177.058594 C 207.703125 177.058594 207.820312 177.207031 207.898438 177.410156 C 208.132812 178.023438 210.378906 180.234375 210.757812 180.234375 C 211.261719 180.234375 211.511719 179.855469 211.511719 179.101562 C 211.511719 178.398438 211.421875 178.257812 209.894531 176.546875 C 209.714844 176.332031 209.445312 175.902344 209.300781 175.542969 C 209.160156 175.199219 208.925781 174.804688 208.800781 174.660156 C 208.65625 174.515625 208.167969 173.796875 207.738281 173.0625 C 207.289062 172.324219 206.75 171.425781 206.535156 171.085938 C 206.316406 170.722656 205.941406 170.023438 205.707031 169.539062 C 205.472656 169.035156 205.058594 168.316406 204.808594 167.9375 C 204.539062 167.5625 204.324219 167.058594 204.324219 166.84375 C 204.324219 166.625 204.054688 166.105469 203.746094 165.671875 C 203.425781 165.242188 203.082031 164.773438 202.976562 164.613281 C 202.886719 164.449219 202.6875 164.253906 202.578125 164.179688 C 202.453125 164.109375 202.34375 163.894531 202.34375 163.714844 C 202.34375 163.550781 202.128906 163.050781 201.84375 162.597656 C 201.125 161.429688 200.945312 160.980469 200.835938 160.191406 C 200.726562 159.167969 200.332031 157.945312 199.9375 157.351562 C 199.648438 156.917969 199.632812 156.8125 199.847656 156.667969 C 200.042969 156.523438 200.007812 156.433594 199.59375 156.128906 C 198.984375 155.660156 198.535156 154.835938 198.679688 154.457031 C 198.734375 154.292969 198.695312 154.167969 198.570312 154.167969 C 198.460938 154.167969 198.410156 154.097656 198.460938 154.007812 C 198.535156 153.917969 198.355469 153.773438 198.101562 153.683594 C 197.652344 153.539062 197.152344 152.550781 197.132812 151.8125 C 197.132812 151.671875 196.898438 151.363281 196.59375 151.148438 C 196.304688 150.914062 196.054688 150.589844 196.054688 150.394531 C 196.054688 150.214844 195.980469 150 195.875 149.945312 C 195.785156 149.890625 195.570312 149.53125 195.390625 149.171875 C 195.125 148.59375 194.242188 147.414062 194.097656 147.414062 C 194.082031 147.414062 194.078125 147.425781 194.078125 147.445312 C 194.078125 147.457031 194.074219 147.464844 194.066406 147.464844 C 194.023438 147.464844 193.882812 147.316406 193.71875 147.105469 C 193.519531 146.851562 193.359375 146.511719 193.359375 146.347656 C 193.359375 146.21875 193.3125 146.136719 193.246094 146.136719 C 193.230469 146.136719 193.214844 146.140625 193.195312 146.152344 C 193.171875 146.164062 193.148438 146.171875 193.121094 146.171875 C 192.6875 146.171875 191.679688 144.5 191.847656 143.976562 C 191.886719 143.847656 191.898438 143.777344 191.882812 143.773438 L 191.875 143.773438 C 191.859375 143.777344 191.828125 143.8125 191.777344 143.886719 C 191.71875 143.972656 191.679688 144.019531 191.644531 144.019531 C 191.597656 144.019531 191.5625 143.949219 191.523438 143.796875 C 191.46875 143.617188 191.363281 143.3125 191.273438 143.132812 C 191.203125 142.957031 191.191406 142.878906 191.246094 142.878906 L 191.25 142.878906 C 191.277344 142.878906 191.320312 142.898438 191.378906 142.933594 C 191.441406 142.96875 191.484375 142.992188 191.507812 142.992188 C 191.558594 142.992188 191.542969 142.914062 191.46875 142.734375 C 191.398438 142.554688 191.289062 142.125 191.238281 141.800781 C 191.199219 141.476562 191.09375 141.171875 191.003906 141.117188 C 190.914062 141.066406 190.839844 140.867188 190.839844 140.6875 C 190.839844 140.507812 190.589844 140.183594 190.285156 139.96875 C 189.886719 139.664062 189.761719 139.445312 189.796875 139.105469 C 189.851562 138.65625 190.136719 138.375 190.464844 138.375 C 190.589844 138.375 190.714844 138.410156 190.839844 138.492188 C 191.050781 138.625 191.171875 138.695312 191.246094 138.695312 C 191.34375 138.695312 191.375 138.585938 191.433594 138.351562 C 191.488281 138.132812 191.6875 137.992188 191.917969 137.992188 C 192.117188 137.992188 192.476562 137.792969 192.710938 137.542969 C 192.945312 137.289062 193.214844 137.09375 193.339844 137.09375 C 193.449219 137.09375 193.539062 136.964844 193.539062 136.839844 C 193.539062 136.5 194.632812 135.652344 195.066406 135.652344 C 195.246094 135.652344 195.550781 135.78125 195.710938 135.941406 C 195.890625 136.101562 196.269531 136.28125 196.539062 136.320312 C 196.992188 136.398438 197.589844 136.4375 198.050781 136.4375 C 198.425781 136.4375 198.710938 136.410156 198.75 136.355469 C 198.804688 136.300781 199.144531 136.191406 199.503906 136.140625 C 199.683594 136.109375 199.816406 136.09375 199.90625 136.09375 C 200.101562 136.09375 200.125 136.164062 200.0625 136.335938 C 200.03125 136.457031 200.023438 136.519531 200.046875 136.519531 C 200.0625 136.519531 200.09375 136.492188 200.132812 136.445312 C 200.324219 136.167969 201.339844 135.671875 201.652344 135.671875 C 201.660156 135.671875 201.671875 135.671875 201.679688 135.671875 C 201.699219 135.675781 201.722656 135.675781 201.753906 135.675781 C 201.898438 135.675781 202.175781 135.640625 202.398438 135.5625 C 202.523438 135.53125 202.636719 135.515625 202.738281 135.515625 C 202.90625 135.515625 203.039062 135.558594 203.117188 135.636719 C 203.226562 135.742188 203.515625 135.832031 203.765625 135.832031 C 204 135.832031 204.609375 136.03125 205.113281 136.265625 C 205.617188 136.515625 206.226562 136.75 206.480469 136.804688 C 207.289062 136.964844 208.0625 137.902344 208.296875 139.035156 C 208.421875 139.589844 208.527344 140.253906 208.546875 140.507812 C 208.582031 140.757812 208.691406 141.496094 208.800781 142.160156 C 209.015625 143.4375 208.90625 143.957031 208.132812 145.449219 C 207.792969 146.078125 207.703125 146.800781 207.9375 146.816406 C 207.972656 146.816406 208.242188 146.746094 208.511719 146.636719 C 208.800781 146.527344 209.105469 146.4375 209.195312 146.4375 C 209.285156 146.4375 209.355469 146.332031 209.355469 146.207031 C 209.355469 146.078125 209.519531 145.792969 209.714844 145.578125 C 209.929688 145.359375 210.019531 145.179688 209.949219 145.179688 C 209.878906 145.179688 210.003906 145.054688 210.21875 144.894531 C 210.488281 144.714844 210.613281 144.445312 210.613281 144.011719 C 210.613281 143.671875 210.6875 143.367188 210.777344 143.3125 C 210.867188 143.257812 210.972656 142.953125 211.046875 142.628906 C 211.351562 140.777344 211.460938 139.679688 211.332031 139.519531 C 211.261719 139.429688 211.207031 138.890625 211.226562 138.351562 C 211.242188 137.488281 211.296875 137.363281 211.640625 137.308594 C 211.671875 137.304688 211.703125 137.300781 211.730469 137.300781 C 211.945312 137.300781 212.121094 137.410156 212.230469 137.613281 C 212.339844 137.828125 212.609375 137.992188 212.84375 137.992188 C 213.347656 137.992188 214.136719 138.582031 214.300781 139.070312 C 214.371094 139.265625 214.515625 139.429688 214.640625 139.429688 C 214.964844 139.429688 215.46875 140.023438 215.46875 140.382812 C 215.46875 140.542969 215.738281 140.792969 216.0625 140.9375 C 216.367188 141.066406 216.90625 141.441406 217.246094 141.746094 C 217.589844 142.054688 218.039062 142.359375 218.234375 142.414062 C 218.648438 142.539062 219.746094 143.347656 220.625 144.15625 C 221.09375 144.605469 221.167969 144.75 221.003906 144.964844 C 220.871094 145.125 220.847656 145.183594 220.957031 145.183594 C 220.996094 145.183594 221.054688 145.175781 221.128906 145.164062 C 221.148438 145.160156 221.167969 145.15625 221.1875 145.15625 C 221.589844 145.15625 222.363281 145.96875 222.910156 146.980469 C 223.109375 147.320312 223.484375 147.839844 223.773438 148.128906 C 224.042969 148.433594 224.277344 148.722656 224.277344 148.777344 C 224.277344 148.847656 224.472656 148.992188 224.726562 149.101562 C 224.976562 149.207031 225.175781 149.421875 225.175781 149.585938 C 225.175781 149.730469 225.246094 149.855469 225.320312 149.855469 C 225.410156 149.855469 225.910156 150.394531 226.449219 151.042969 C 227.90625 152.820312 227.90625 152.820312 228.660156 152.839844 C 229.128906 152.855469 229.453125 152.980469 229.652344 153.234375 C 229.8125 153.433594 230.136719 153.648438 230.386719 153.71875 C 231.035156 153.917969 232.90625 155.914062 232.777344 156.273438 C 232.71875 156.429688 232.722656 156.496094 232.808594 156.496094 C 232.851562 156.496094 232.910156 156.480469 232.996094 156.453125 C 233.066406 156.421875 233.140625 156.40625 233.214844 156.40625 C 233.632812 156.40625 234.097656 156.855469 234.433594 157.601562 C 234.628906 158.035156 234.847656 158.445312 234.9375 158.5 C 235.007812 158.554688 235.0625 158.679688 235.027344 158.769531 C 234.988281 158.859375 235.117188 159.128906 235.296875 159.382812 C 235.421875 159.566406 235.539062 159.695312 235.582031 159.695312 C 235.59375 159.695312 235.601562 159.6875 235.601562 159.667969 C 235.601562 159.640625 235.609375 159.628906 235.625 159.628906 C 235.765625 159.628906 236.519531 160.773438 236.859375 161.539062 C 237.058594 161.988281 237.433594 162.726562 237.667969 163.175781 C 237.917969 163.640625 238.117188 164.128906 238.117188 164.269531 C 238.117188 164.414062 238.277344 164.683594 238.476562 164.863281 C 238.65625 165.027344 238.960938 165.582031 239.125 166.085938 C 239.304688 166.644531 239.734375 167.308594 240.21875 167.8125 C 240.722656 168.332031 241.261719 169.179688 241.660156 170.078125 C 242.339844 171.636719 242.484375 171.878906 242.824219 171.878906 C 242.855469 171.878906 242.886719 171.878906 242.917969 171.875 C 243.886719 171.785156 244.050781 171.625 244.050781 170.671875 C 244.050781 170.003906 243.960938 169.699219 243.707031 169.484375 C 243.292969 169.125 241.890625 166.445312 241.890625 165.996094 C 241.890625 165.835938 241.820312 165.65625 241.730469 165.582031 C 241.621094 165.53125 241.210938 164.808594 240.8125 164 C 240.398438 163.191406 239.753906 162.238281 239.359375 161.878906 C 238.835938 161.394531 238.65625 161.070312 238.65625 160.675781 C 238.65625 160.335938 238.511719 160.046875 238.261719 159.867188 C 237.902344 159.617188 237.882812 159.542969 238.117188 159.382812 C 238.351562 159.21875 238.277344 159.113281 237.757812 158.664062 C 237.253906 158.25 237.164062 158.105469 237.363281 157.925781 C 237.644531 157.628906 237.640625 157.277344 237.394531 157.273438 L 237.390625 157.273438 C 237.355469 157.273438 237.316406 157.28125 237.273438 157.296875 C 237.242188 157.308594 237.210938 157.316406 237.179688 157.316406 C 236.964844 157.316406 236.648438 157.058594 236.105469 156.46875 C 235.1875 155.464844 235.117188 155.195312 235.761719 155.101562 C 236.410156 154.996094 235.851562 154.527344 235.078125 154.527344 C 234.234375 154.527344 234.074219 154.402344 233.804688 153.539062 C 233.675781 153.144531 233.425781 152.660156 233.265625 152.460938 C 233.085938 152.261719 232.90625 151.851562 232.867188 151.5625 C 232.832031 151.203125 232.671875 150.96875 232.402344 150.84375 C 232.078125 150.699219 232.023438 150.574219 232.113281 150.070312 C 232.222656 149.550781 232.148438 149.421875 231.554688 148.902344 C 231.179688 148.578125 230.675781 148.148438 230.441406 147.914062 C 230.207031 147.699219 229.972656 147.519531 229.9375 147.519531 C 229.757812 147.519531 228.410156 146.117188 228.410156 145.917969 C 228.410156 145.808594 228.355469 145.71875 228.285156 145.71875 C 228.195312 145.71875 227.980469 145.59375 227.800781 145.449219 C 227.53125 145.234375 227.492188 145.144531 227.671875 144.929688 C 227.871094 144.695312 227.78125 144.640625 227.207031 144.550781 C 226.828125 144.480469 226.398438 144.390625 226.234375 144.355469 C 225.75 144.226562 223.414062 141.835938 223.289062 141.351562 C 223.179688 140.976562 223.054688 140.867188 222.640625 140.867188 C 222.296875 140.867188 221.886719 140.632812 221.308594 140.09375 C 220.859375 139.679688 219.960938 138.890625 219.316406 138.351562 C 218.558594 137.722656 218.003906 137.074219 217.785156 136.589844 C 217.589844 136.175781 217.320312 135.832031 217.175781 135.832031 C 217.03125 135.832031 216.90625 135.761719 216.90625 135.691406 C 216.90625 135.601562 216.691406 135.421875 216.4375 135.292969 C 215.808594 134.953125 215.46875 134.214844 215.46875 133.226562 C 215.46875 132.453125 215.503906 132.382812 216.277344 131.914062 C 216.726562 131.644531 217.085938 131.339844 217.085938 131.230469 C 217.085938 131.140625 217.320312 130.820312 217.625 130.53125 C 217.914062 130.261719 218.109375 129.957031 218.039062 129.847656 C 217.984375 129.757812 218.054688 129.613281 218.183594 129.523438 C 218.324219 129.453125 218.453125 129.238281 218.46875 129.058594 C 218.46875 128.878906 218.613281 128.390625 218.777344 127.960938 C 218.917969 127.546875 219.007812 127.078125 218.957031 126.953125 C 218.902344 126.808594 218.9375 126.648438 219.027344 126.59375 C 219.207031 126.484375 219.027344 125.246094 218.683594 124.203125 C 218.59375 123.898438 218.488281 123.449219 218.46875 123.214844 C 218.398438 122.550781 217.695312 121.363281 217.230469 121.148438 C 216.433594 120.757812 214.75 120.242188 214.386719 120.242188 C 214.363281 120.242188 214.347656 120.246094 214.335938 120.25 C 214.273438 120.269531 214.207031 120.28125 214.136719 120.28125 C 213.761719 120.28125 213.3125 119.976562 213.3125 119.671875 C 213.3125 119.152344 213.507812 118.757812 213.742188 118.757812 C 214.046875 118.757812 216.402344 117.320312 217.03125 116.761719 C 217.300781 116.507812 217.824219 115.933594 218.164062 115.46875 C 218.503906 115.019531 218.9375 114.621094 219.117188 114.621094 C 219.386719 114.621094 219.53125 114.207031 219.441406 113.667969 C 219.433594 113.640625 219.453125 113.625 219.496094 113.625 C 219.554688 113.625 219.65625 113.660156 219.765625 113.722656 C 219.859375 113.773438 219.953125 113.796875 220.035156 113.796875 C 220.269531 113.796875 220.394531 113.613281 220.140625 113.453125 C 219.855469 113.273438 220.285156 112.824219 220.699219 112.824219 C 220.898438 112.824219 221.039062 112.699219 221.039062 112.554688 C 221.039062 112.410156 221.167969 112.285156 221.308594 112.285156 C 221.453125 112.285156 221.578125 112.175781 221.578125 112.035156 C 221.578125 111.675781 222.046875 111.332031 222.566406 111.332031 C 222.820312 111.332031 223.019531 111.277344 223.019531 111.1875 C 223.019531 111.023438 223.558594 110.902344 224 110.902344 C 224.230469 110.902344 224.4375 110.933594 224.527344 111.007812 C 224.605469 111.082031 224.667969 111.117188 224.71875 111.117188 C 224.785156 111.117188 224.835938 111.058594 224.886719 110.9375 C 224.941406 110.792969 225.085938 110.667969 225.210938 110.667969 C 225.335938 110.667969 225.679688 110.453125 225.964844 110.199219 C 226.21875 109.957031 226.367188 109.847656 226.46875 109.847656 C 226.535156 109.847656 226.582031 109.890625 226.628906 109.964844 C 226.71875 110.109375 226.792969 110.289062 226.792969 110.398438 C 226.796875 110.414062 226.800781 110.417969 226.808594 110.417969 C 226.839844 110.417969 226.921875 110.234375 227.027344 109.949219 C 227.171875 109.554688 227.441406 109.210938 227.78125 109.050781 C 228.085938 108.886719 228.535156 108.617188 228.789062 108.457031 C 229.054688 108.285156 229.273438 108.207031 229.625 108.207031 C 229.789062 108.207031 229.984375 108.222656 230.226562 108.257812 C 231.234375 108.382812 231.699219 108.671875 233.40625 110.109375 C 234.46875 111.007812 234.539062 111.332031 233.964844 112.574219 C 233.550781 113.507812 233.570312 114.316406 234.019531 114.40625 C 234.03125 114.410156 234.046875 114.410156 234.0625 114.410156 C 234.449219 114.410156 235.714844 113.589844 236.335938 112.949219 C 236.503906 112.785156 236.628906 112.699219 236.710938 112.699219 C 236.753906 112.699219 236.785156 112.722656 236.804688 112.769531 C 236.984375 113.238281 237.523438 113.652344 238.027344 113.6875 C 238.871094 113.742188 241.890625 115.324219 242.125 115.828125 C 242.21875 116.042969 242.363281 116.179688 242.515625 116.179688 C 242.542969 116.179688 242.566406 116.175781 242.59375 116.167969 C 242.605469 116.164062 242.617188 116.164062 242.632812 116.164062 C 243.121094 116.164062 245.546875 117.851562 245.667969 118.308594 C 245.722656 118.503906 245.917969 118.703125 246.117188 118.71875 C 246.601562 118.808594 247.484375 119.261719 247.914062 119.65625 C 248.113281 119.835938 248.433594 120.015625 248.613281 120.050781 C 248.8125 120.070312 249.136719 120.429688 249.371094 120.824219 C 249.589844 121.230469 249.855469 121.492188 250.023438 121.492188 C 250.035156 121.492188 250.042969 121.492188 250.054688 121.488281 C 250.070312 121.488281 250.085938 121.484375 250.101562 121.484375 C 250.355469 121.484375 250.742188 121.742188 251.367188 122.332031 C 251.726562 122.675781 252.839844 123.429688 253 123.429688 C 253.074219 123.429688 253.324219 123.609375 253.578125 123.84375 C 253.828125 124.078125 254.617188 124.6875 255.339844 125.210938 C 256.9375 126.378906 258.070312 127.511719 258.070312 127.960938 C 258.070312 128.140625 258.179688 128.285156 258.320312 128.285156 C 258.574219 128.285156 258.824219 128.875 259.058594 130.046875 C 259.148438 130.457031 259.09375 130.78125 258.878906 131.125 C 258.75 131.316406 258.695312 131.429688 258.726562 131.429688 C 258.742188 131.429688 258.765625 131.410156 258.808594 131.375 C 258.957031 131.238281 259.0625 131.136719 259.136719 131.136719 C 259.304688 131.136719 259.324219 131.632812 259.402344 133.300781 C 259.453125 134.214844 259.5625 135.058594 259.671875 135.167969 C 259.921875 135.421875 259.921875 136.121094 259.652344 136.535156 C 259.492188 136.804688 259.507812 137.019531 259.777344 137.558594 C 260.082031 138.207031 260.082031 138.277344 259.796875 138.761719 C 259.632812 139.050781 259.507812 139.5 259.492188 139.753906 C 259.492188 140.023438 259.417969 140.398438 259.347656 140.597656 C 259.257812 140.792969 259.257812 141.082031 259.347656 141.246094 C 259.527344 141.585938 259.222656 143.367188 258.863281 144.226562 C 258.71875 144.535156 258.609375 144.910156 258.609375 145.054688 C 258.609375 145.21875 258.5 145.378906 258.394531 145.433594 C 258.230469 145.488281 258.25 145.578125 258.484375 145.71875 C 258.644531 145.828125 258.789062 146.078125 258.789062 146.277344 C 258.789062 146.578125 258.925781 146.730469 259.117188 146.730469 C 259.292969 146.730469 259.507812 146.605469 259.707031 146.347656 C 259.921875 146.097656 260.28125 145.792969 260.515625 145.71875 C 260.839844 145.59375 260.945312 145.414062 260.945312 144.964844 C 260.945312 144.640625 261.074219 144.226562 261.214844 144.03125 C 261.359375 143.832031 261.433594 143.492188 261.359375 143.1875 C 261.304688 142.898438 261.34375 142.554688 261.433594 142.449219 C 261.683594 142.125 261.863281 140.597656 261.917969 138.261719 C 261.972656 135.851562 261.792969 134.289062 261.378906 133.839844 C 261 133.40625 261.164062 132.742188 261.738281 132.347656 L 262.1875 132.058594 L 261.648438 131.539062 C 261.089844 130.960938 261 130.496094 261.359375 129.847656 C 261.46875 129.632812 261.59375 129.433594 261.613281 129.398438 C 261.617188 129.390625 261.625 129.386719 261.640625 129.386719 C 261.703125 129.386719 261.851562 129.441406 262.007812 129.542969 C 262.164062 129.625 262.269531 129.664062 262.324219 129.664062 C 262.457031 129.664062 262.289062 129.4375 261.84375 129.058594 C 261.539062 128.804688 261.324219 128.554688 261.378906 128.515625 C 261.433594 128.464844 261.304688 128.105469 261.125 127.726562 C 260.929688 127.347656 260.765625 126.898438 260.765625 126.738281 C 260.765625 126.558594 260.605469 125.894531 260.40625 125.246094 C 260.210938 124.597656 260.011719 123.753906 259.957031 123.375 C 259.867188 122.820312 259.777344 122.710938 259.417969 122.710938 C 259.183594 122.710938 258.84375 122.511719 258.628906 122.242188 C 258.429688 121.992188 257.871094 121.578125 257.371094 121.34375 C 256.417969 120.859375 255.285156 119.835938 255.519531 119.671875 C 255.730469 119.53125 256.125 118.765625 256.003906 118.757812 L 256 118.757812 C 255.941406 118.761719 255.675781 118.867188 255.410156 119.007812 C 255.140625 119.132812 254.65625 119.261719 254.3125 119.261719 C 254.300781 119.261719 254.285156 119.261719 254.273438 119.261719 C 253.640625 119.261719 252.675781 118.859375 252.675781 118.613281 C 252.675781 118.523438 252.40625 118.324219 252.066406 118.164062 C 251.726562 118 251.347656 117.640625 251.203125 117.371094 C 251.042969 117.011719 250.71875 116.777344 250.105469 116.582031 C 249.640625 116.417969 249.027344 116.097656 248.757812 115.84375 C 248.488281 115.59375 248.09375 115.324219 247.894531 115.269531 C 247.679688 115.199219 247.230469 114.710938 246.90625 114.171875 C 246.367188 113.308594 246.207031 113.183594 245.542969 113.078125 C 244.824219 112.96875 244.355469 112.664062 243.832031 111.980469 C 243.707031 111.800781 243.257812 111.386719 242.84375 111.046875 C 242.414062 110.722656 242.070312 110.34375 242.070312 110.199219 C 242.070312 110.074219 241.800781 109.839844 241.480469 109.695312 C 240.757812 109.410156 239.914062 108.4375 239.914062 107.917969 C 239.914062 107.703125 240.113281 107.234375 240.328125 106.894531 C 240.5625 106.550781 240.8125 106.066406 240.867188 105.8125 C 240.921875 105.5625 241.082031 105.003906 241.246094 104.554688 C 241.390625 104.105469 241.585938 103.332031 241.695312 102.847656 C 241.945312 101.589844 242.972656 98.730469 243.671875 97.3125 C 244.230469 96.214844 244.265625 96.105469 244.03125 95.566406 C 243.726562 94.882812 243.222656 94.652344 240.542969 93.933594 C 240.515625 93.925781 240.488281 93.917969 240.460938 93.910156 L 240.457031 93.910156 C 240.277344 93.726562 240.089844 93.546875 239.886719 93.367188 C 239.015625 92.828125 237.046875 91.953125 233.984375 90.746094 C 232.09375 89.378906 230.667969 88.484375 229.710938 88.054688 C 229.628906 88.023438 229.515625 87.984375 229.367188 87.945312 L 229.359375 87.945312 C 229.269531 87.875 229.171875 87.839844 229.074219 87.839844 C 228.554688 87.839844 225.355469 86.058594 225.355469 85.769531 C 225.355469 85.628906 225.425781 85.320312 225.535156 85.070312 C 225.625 84.820312 225.640625 84.605469 225.554688 84.601562 L 225.550781 84.601562 C 225.386719 84.609375 225.15625 85.179688 225.101562 85.679688 C 225.09375 85.890625 224.707031 86.011719 224.292969 86.011719 C 224.03125 86.011719 223.757812 85.964844 223.558594 85.859375 C 223.222656 85.683594 222.757812 85.59375 222.351562 85.59375 C 222.011719 85.59375 221.710938 85.65625 221.5625 85.789062 C 221.398438 85.9375 221.140625 86.003906 220.5 86.003906 C 220.21875 86.003906 219.867188 85.992188 219.421875 85.96875 C 218.875 85.933594 218.488281 85.914062 218.199219 85.914062 C 217.558594 85.914062 217.390625 86.019531 216.996094 86.328125 C 216.652344 86.578125 216.257812 86.8125 216.097656 86.832031 C 215.828125 86.867188 215.523438 87.390625 214.082031 90.210938 C 213.8125 90.75 213.542969 91.074219 213.347656 91.074219 C 213.09375 91.074219 212.96875 91.363281 212.773438 92.277344 C 212.539062 93.320312 212.449219 93.5 212.050781 93.589844 C 211.65625 93.679688 211.585938 93.84375 211.40625 94.777344 C 211.191406 96.035156 211.0625 96.269531 210.542969 96.464844 C 210.429688 96.511719 210.324219 96.53125 210.226562 96.53125 C 209.554688 96.53125 209.28125 95.515625 209.5 93.679688 C 209.609375 92.746094 209.679688 92.601562 210.039062 92.546875 C 210.253906 92.511719 210.433594 92.367188 210.433594 92.1875 C 210.433594 92.042969 210.253906 91.722656 210.039062 91.46875 C 209.699219 91.109375 209.625 90.839844 209.625 89.78125 C 209.625 88.773438 209.570312 88.503906 209.320312 88.359375 C 209.140625 88.25 208.996094 88.089844 208.996094 87.980469 C 208.996094 87.890625 208.800781 87.640625 208.546875 87.441406 C 208.296875 87.246094 208.097656 86.976562 208.097656 86.832031 C 208.097656 86.707031 207.757812 86.363281 207.34375 86.09375 C 206.730469 85.679688 206.390625 85.589844 205.382812 85.574219 C 205.277344 85.570312 205.179688 85.570312 205.089844 85.570312 C 204.421875 85.570312 204.132812 85.628906 204.070312 85.789062 C 204.015625 85.933594 203.820312 86.039062 203.621094 86.039062 C 203.351562 86.039062 203.117188 86.347656 202.707031 87.226562 C 202.417969 87.875 201.96875 88.664062 201.734375 88.972656 C 201.140625 89.742188 200.871094 90.5 200.890625 91.253906 C 200.890625 91.59375 200.800781 92.027344 200.65625 92.242188 C 200.3125 92.765625 200.152344 94.074219 200.367188 94.488281 C 200.53125 94.777344 200.476562 94.921875 200.132812 95.261719 C 199.703125 95.65625 199.613281 95.925781 199.308594 97.996094 C 199.21875 98.585938 199.09375 99.199219 199.039062 99.34375 C 198.984375 99.488281 198.859375 100.816406 198.75 102.308594 C 198.589844 104.808594 198.535156 105.078125 198.011719 106.082031 C 197.707031 106.675781 197.367188 107.214844 197.242188 107.289062 C 197.171875 107.335938 197.027344 107.355469 196.832031 107.355469 C 196.359375 107.355469 195.617188 107.226562 195.121094 107.035156 C 194.578125 106.839844 194.363281 106.40625 194.542969 105.921875 C 194.597656 105.761719 194.5625 105.507812 194.4375 105.363281 C 194.257812 105.148438 194.238281 104.410156 194.328125 102.164062 C 194.398438 100.566406 194.507812 98.839844 194.5625 98.355469 C 194.707031 97.058594 194.6875 96.304688 194.472656 95.386719 C 194.363281 94.9375 194.273438 94.074219 194.257812 93.464844 C 194.257812 92.855469 194.183594 91.953125 194.078125 91.488281 C 193.988281 91.019531 193.859375 90.300781 193.824219 89.90625 C 193.789062 89.511719 193.664062 88.898438 193.554688 88.558594 C 193.449219 88.214844 193.285156 87.15625 193.195312 86.21875 C 192.746094 81.941406 192.476562 79.765625 192.152344 77.808594 C 192.097656 77.503906 191.972656 77.234375 191.882812 77.234375 C 191.597656 77.234375 191.019531 76.496094 191.019531 76.152344 C 191.019531 75.972656 190.425781 75.203125 189.691406 74.410156 C 188.164062 72.792969 186.832031 72 185.269531 71.804688 C 183.542969 71.589844 182.03125 71.121094 182.03125 70.796875 C 182.03125 70.707031 181.746094 70.546875 181.402344 70.417969 C 181.042969 70.292969 180.59375 70.023438 180.398438 69.808594 C 180.199219 69.59375 179.660156 69.289062 179.191406 69.125 C 178.726562 68.964844 178.203125 68.785156 178.042969 68.695312 C 177.964844 68.667969 177.902344 68.652344 177.847656 68.652344 Z M 177.847656 68.652344 " fill-opacity="1" fill-rule="nonzero"/></g></svg>