<svg xmlns="http://www.w3.org/2000/svg" xmlns:xlink="http://www.w3.org/1999/xlink" width="500" zoomAndPan="magnify" viewBox="0 0 375 374.999991" height="500" preserveAspectRatio="xMidYMid meet" version="1.0"><defs><g/><clipPath id="11cdbdbe6d"><path d="M 52.019531 192 L 104.519531 192 L 104.519531 244.496094 L 52.019531 244.496094 Z M 52.019531 192 " clip-rule="nonzero"/></clipPath><clipPath id="5a8f2766ef"><path d="M 112.5 68.683594 L 262.5 68.683594 L 262.5 180.433594 L 112.5 180.433594 Z M 112.5 68.683594 " clip-rule="nonzero"/></clipPath></defs><g fill="#000000" fill-opacity="1"><g transform="translate(27.691409, 269.274006)"><g><path d="M 51.109375 1.46875 C 37.328125 1.46875 26.097656 -3.039062 17.421875 -12.0625 C 8.742188 -21.082031 4.40625 -34.242188 4.40625 -51.546875 C 4.40625 -68.859375 8.789062 -81.972656 17.5625 -90.890625 C 26.34375 -99.816406 37.671875 -104.28125 51.546875 -104.28125 C 65.421875 -104.28125 76.625 -99.890625 85.15625 -91.109375 C 93.6875 -82.335938 97.953125 -69.050781 97.953125 -51.25 C 97.953125 -33.457031 93.585938 -20.222656 84.859375 -11.546875 C 76.140625 -2.867188 64.890625 1.46875 51.109375 1.46875 Z M 51.1875 -76.046875 C 46.476562 -76.046875 42.53125 -73.882812 39.34375 -69.5625 C 36.15625 -65.25 34.5625 -59.195312 34.5625 -51.40625 C 34.5625 -43.613281 36.082031 -37.628906 39.125 -33.453125 C 42.164062 -29.285156 46.160156 -27.203125 51.109375 -27.203125 C 56.054688 -27.203125 60.070312 -29.3125 63.15625 -33.53125 C 66.25 -37.75 67.796875 -43.78125 67.796875 -51.625 C 67.796875 -59.46875 66.203125 -65.5 63.015625 -69.71875 C 59.835938 -73.9375 55.894531 -76.046875 51.1875 -76.046875 Z M 51.1875 -76.046875 "/></g></g></g><g fill="#000000" fill-opacity="1"><g transform="translate(130.060451, 269.274006)"><g><path d="M 20.15625 0.296875 C 11.226562 0.296875 6.765625 -0.679688 6.765625 -2.640625 L 6.765625 -97.953125 C 6.765625 -101.285156 8.285156 -102.953125 11.328125 -102.953125 L 37.203125 -102.953125 C 51.722656 -102.953125 62.191406 -99.960938 68.609375 -93.984375 C 75.035156 -88.003906 78.25 -79.328125 78.25 -67.953125 C 78.25 -58.535156 75.207031 -49.90625 69.125 -42.0625 C 66.082031 -38.144531 61.617188 -35.007812 55.734375 -32.65625 C 49.859375 -30.300781 43 -29.125 35.15625 -29.125 L 35.15625 -2.796875 C 35.15625 -1.617188 33.316406 -0.804688 29.640625 -0.359375 C 25.960938 0.078125 22.800781 0.296875 20.15625 0.296875 Z M 35.15625 -77.359375 L 35.15625 -54.125 L 37.0625 -54.125 C 40.5 -54.125 43.390625 -55.203125 45.734375 -57.359375 C 48.085938 -59.515625 49.265625 -62.550781 49.265625 -66.46875 C 49.265625 -70.394531 48.457031 -73.191406 46.84375 -74.859375 C 45.226562 -76.523438 42.359375 -77.359375 38.234375 -77.359375 Z M 35.15625 -77.359375 "/></g></g></g><g fill="#000000" fill-opacity="1"><g transform="translate(213.897173, 269.274006)"><g><path d="M 110.3125 0.140625 C 101.582031 0.140625 97.21875 -0.835938 97.21875 -2.796875 L 94.125 -61.765625 L 76.1875 -2.0625 C 75.789062 -0.882812 72.453125 -0.296875 66.171875 -0.296875 C 59.898438 -0.296875 56.671875 -0.832031 56.484375 -1.90625 L 37.953125 -62.359375 L 35.890625 -3.671875 C 35.785156 -2.203125 33.921875 -1.195312 30.296875 -0.65625 C 26.671875 -0.125 23.65625 0.140625 21.25 0.140625 C 18.851562 0.140625 16.523438 -0.00390625 14.265625 -0.296875 C 9.554688 -0.984375 7.253906 -2.207031 7.359375 -3.96875 L 10.734375 -99.578125 C 10.734375 -101.929688 16.71875 -103.109375 28.6875 -103.109375 C 32.207031 -103.109375 36.515625 -102.835938 41.609375 -102.296875 C 46.710938 -101.753906 49.5625 -100.695312 50.15625 -99.125 L 66.625 -52.796875 L 81.046875 -99.28125 C 81.921875 -101.832031 88.6875 -103.109375 101.34375 -103.109375 C 104.96875 -103.109375 109.300781 -102.835938 114.34375 -102.296875 C 119.394531 -101.753906 121.921875 -100.796875 121.921875 -99.421875 L 126.1875 -2.9375 C 126.1875 -1.863281 124.273438 -1.082031 120.453125 -0.59375 C 116.628906 -0.101562 113.25 0.140625 110.3125 0.140625 Z M 110.3125 0.140625 "/></g></g></g><g clip-path="url(#11cdbdbe6d)"><path fill="#000000" d="M 104.09375 228.351562 L 100.726562 226.964844 C 100.722656 226.957031 100.707031 226.949219 100.703125 226.941406 C 98.675781 225.765625 97.359375 222.34375 97.34375 218.21875 C 97.339844 214.097656 98.644531 210.675781 100.667969 209.484375 C 100.675781 209.476562 100.6875 209.46875 100.695312 209.464844 L 104.058594 208.0625 C 104.320312 207.953125 104.449219 207.644531 104.339844 207.382812 C 104.234375 207.117188 103.921875 206.992188 103.660156 207.097656 L 100.296875 208.5 C 100.292969 208.5 100.277344 208.507812 100.269531 208.507812 C 98.003906 209.105469 94.652344 207.617188 91.742188 204.714844 C 88.828125 201.804688 87.328125 198.457031 87.921875 196.1875 C 87.921875 196.171875 87.925781 196.167969 87.925781 196.152344 L 89.3125 192.785156 C 89.421875 192.515625 89.292969 192.210938 89.03125 192.105469 C 88.761719 191.996094 88.457031 192.125 88.351562 192.386719 L 86.964844 195.753906 C 86.957031 195.761719 86.953125 195.777344 86.945312 195.78125 C 85.769531 197.808594 82.351562 199.128906 78.234375 199.144531 C 74.125 199.148438 70.699219 197.84375 69.507812 195.816406 C 69.5 195.808594 69.496094 195.800781 69.496094 195.796875 L 68.097656 192.429688 C 67.988281 192.164062 67.679688 192.039062 67.417969 192.144531 C 67.152344 192.253906 67.027344 192.5625 67.132812 192.824219 L 68.535156 196.191406 C 68.535156 196.199219 68.539062 196.214844 68.539062 196.21875 C 69.140625 198.492188 67.652344 201.84375 64.753906 204.761719 C 61.847656 207.679688 58.503906 209.179688 56.238281 208.585938 C 56.222656 208.585938 56.214844 208.582031 56.203125 208.582031 L 52.839844 207.191406 C 52.570312 207.085938 52.265625 207.214844 52.160156 207.476562 C 52.050781 207.746094 52.179688 208.046875 52.441406 208.15625 L 55.804688 209.542969 C 55.8125 209.550781 55.824219 209.558594 55.832031 209.5625 C 57.859375 210.742188 59.175781 214.164062 59.191406 218.289062 C 59.195312 222.410156 57.890625 225.832031 55.867188 227.023438 C 55.859375 227.03125 55.851562 227.039062 55.847656 227.039062 L 52.484375 228.4375 C 52.21875 228.546875 52.09375 228.855469 52.199219 229.117188 C 52.308594 229.382812 52.617188 229.507812 52.878906 229.402344 L 56.242188 228 C 56.257812 228 56.261719 227.992188 56.277344 227.992188 C 58.542969 227.394531 61.894531 228.882812 64.804688 231.785156 C 67.71875 234.695312 69.21875 238.042969 68.628906 240.3125 C 68.628906 240.320312 68.621094 240.332031 68.621094 240.339844 L 67.234375 243.707031 C 67.128906 243.976562 67.253906 244.28125 67.515625 244.390625 C 67.785156 244.496094 68.089844 244.367188 68.195312 244.105469 L 69.582031 240.738281 C 69.589844 240.730469 69.597656 240.71875 69.601562 240.710938 C 70.78125 238.683594 74.199219 237.363281 78.3125 237.351562 C 82.429688 237.34375 85.847656 238.648438 87.039062 240.675781 C 87.046875 240.683594 87.050781 240.699219 87.058594 240.703125 L 88.457031 244.074219 C 88.566406 244.335938 88.875 244.464844 89.136719 244.355469 C 89.398438 244.246094 89.527344 243.9375 89.421875 243.675781 L 88.019531 240.308594 C 88.019531 240.292969 88.015625 240.285156 88.015625 240.273438 C 87.414062 238.003906 88.902344 234.648438 91.800781 231.730469 C 94.707031 228.816406 98.050781 227.3125 100.316406 227.90625 C 100.324219 227.90625 100.339844 227.914062 100.34375 227.914062 L 103.707031 229.300781 C 103.976562 229.410156 104.28125 229.28125 104.386719 229.015625 C 104.488281 228.769531 104.359375 228.464844 104.09375 228.351562 Z M 86.898438 198.652344 C 87.039062 199.332031 87.28125 200.046875 87.617188 200.773438 C 88.363281 202.375 89.527344 204 90.996094 205.460938 C 92.460938 206.921875 94.082031 208.089844 95.691406 208.824219 C 95.832031 208.890625 95.980469 208.953125 96.121094 209.011719 C 96.699219 209.253906 97.269531 209.429688 97.816406 209.539062 L 94.203125 211.054688 C 92.078125 211.664062 89.542969 210.835938 87.589844 208.890625 C 85.640625 206.945312 84.804688 204.410156 85.40625 202.277344 Z M 70.632812 215.671875 L 76.902344 218.261719 L 70.640625 220.875 C 70.960938 219.964844 71.117188 219.117188 71.117188 218.273438 C 71.125 217.433594 70.960938 216.582031 70.632812 215.671875 Z M 78.265625 216.898438 L 75.65625 210.628906 C 76.566406 210.953125 77.414062 211.105469 78.253906 211.105469 C 79.09375 211.105469 79.933594 210.945312 80.851562 210.613281 Z M 81.8125 211.011719 C 82.230469 211.886719 82.714844 212.59375 83.3125 213.1875 C 83.910156 213.78125 84.617188 214.265625 85.492188 214.675781 L 79.230469 217.289062 Z M 77.304688 217.296875 L 71.035156 214.710938 C 71.910156 214.292969 72.617188 213.808594 73.207031 213.207031 C 73.800781 212.609375 74.285156 211.902344 74.695312 211.027344 Z M 77.304688 219.222656 L 74.722656 225.5 C 74.304688 224.625 73.820312 223.917969 73.222656 223.324219 C 72.625 222.734375 71.917969 222.246094 71.042969 221.835938 Z M 78.265625 219.621094 L 80.878906 225.890625 C 79.96875 225.570312 79.121094 225.414062 78.28125 225.414062 C 77.441406 225.414062 76.597656 225.574219 75.683594 225.90625 Z M 79.230469 219.222656 L 85.5 221.808594 C 84.625 222.226562 83.917969 222.710938 83.324219 223.3125 C 82.734375 223.910156 82.25 224.617188 81.839844 225.496094 Z M 79.625 218.261719 L 85.890625 215.648438 C 85.566406 216.554688 85.410156 217.40625 85.410156 218.246094 C 85.410156 219.089844 85.574219 219.929688 85.902344 220.847656 Z M 84.046875 212.453125 C 83.347656 211.761719 82.816406 210.863281 82.371094 209.652344 L 84.292969 204.976562 C 84.605469 206.621094 85.484375 208.257812 86.859375 209.625 C 87.785156 210.546875 88.835938 211.253906 89.925781 211.699219 C 90.449219 211.914062 90.972656 212.070312 91.503906 212.171875 L 86.84375 214.109375 C 85.640625 213.679688 84.746094 213.148438 84.046875 212.453125 Z M 81.410156 209.253906 C 80.246094 209.800781 79.234375 210.0625 78.253906 210.0625 C 77.273438 210.0625 76.261719 209.808594 75.09375 209.269531 L 73.15625 204.605469 C 74.535156 205.550781 76.308594 206.082031 78.246094 206.082031 C 80.183594 206.074219 81.960938 205.535156 83.332031 204.585938 Z M 74.128906 209.664062 C 73.691406 210.878906 73.160156 211.773438 72.46875 212.472656 C 71.777344 213.175781 70.882812 213.707031 69.671875 214.152344 L 65 212.226562 C 66.644531 211.914062 68.277344 211.03125 69.644531 209.660156 C 71.007812 208.285156 71.882812 206.640625 72.1875 205.003906 Z M 69.273438 215.113281 C 69.816406 216.28125 70.082031 217.289062 70.082031 218.273438 C 70.082031 219.257812 69.824219 220.265625 69.285156 221.441406 L 64.625 223.378906 C 65.566406 222 66.097656 220.21875 66.097656 218.28125 C 66.089844 216.339844 65.554688 214.5625 64.605469 213.1875 Z M 69.683594 222.402344 C 70.894531 222.839844 71.789062 223.371094 72.488281 224.066406 C 73.1875 224.761719 73.71875 225.65625 74.164062 226.867188 L 72.238281 231.542969 C 71.929688 229.898438 71.050781 228.261719 69.675781 226.894531 C 68.304688 225.527344 66.664062 224.652344 65.027344 224.347656 Z M 75.125 227.265625 C 76.289062 226.71875 77.296875 226.457031 78.28125 226.457031 C 79.261719 226.457031 80.273438 226.714844 81.441406 227.253906 L 83.378906 231.914062 C 82 230.972656 80.226562 230.4375 78.289062 230.4375 C 76.351562 230.445312 74.574219 230.984375 73.203125 231.933594 Z M 82.402344 226.855469 C 82.839844 225.644531 83.371094 224.746094 84.066406 224.046875 C 84.757812 223.347656 85.652344 222.8125 86.863281 222.371094 L 91.53125 224.296875 C 89.890625 224.605469 88.257812 225.488281 86.890625 226.863281 C 85.527344 228.234375 84.652344 229.878906 84.347656 231.515625 Z M 87.261719 221.40625 C 86.714844 220.242188 86.453125 219.230469 86.453125 218.246094 C 86.453125 217.261719 86.710938 216.253906 87.246094 215.082031 L 91.902344 213.140625 C 90.960938 214.523438 90.429688 216.300781 90.429688 218.238281 C 90.4375 220.179688 90.972656 221.957031 91.921875 223.332031 Z M 72.535156 199.273438 C 74.199219 199.878906 76.167969 200.203125 78.234375 200.195312 C 80.296875 200.1875 82.269531 199.863281 83.929688 199.25 C 84.683594 198.976562 85.355469 198.636719 85.9375 198.253906 L 84.441406 201.878906 C 83.371094 203.820312 81 205.023438 78.242188 205.03125 C 75.480469 205.039062 73.109375 203.839844 72.023438 201.898438 L 70.519531 198.28125 C 71.101562 198.664062 71.78125 198.996094 72.535156 199.273438 Z M 60.804688 208.890625 C 62.40625 208.144531 64.027344 206.976562 65.484375 205.507812 C 66.945312 204.039062 68.109375 202.417969 68.84375 200.808594 C 69.179688 200.074219 69.414062 199.359375 69.554688 198.679688 L 71.0625 202.296875 C 71.675781 204.425781 70.847656 206.964844 68.902344 208.917969 C 66.960938 210.871094 64.429688 211.707031 62.296875 211.105469 L 58.679688 209.609375 C 59.363281 209.476562 60.078125 209.234375 60.804688 208.890625 Z M 59.304688 224 C 59.910156 222.335938 60.230469 220.363281 60.226562 218.292969 C 60.21875 216.226562 59.894531 214.253906 59.285156 212.589844 C 59.007812 211.835938 58.671875 211.160156 58.289062 210.582031 L 61.90625 212.078125 C 63.84375 213.148438 65.046875 215.527344 65.054688 218.289062 C 65.0625 221.050781 63.863281 223.425781 61.925781 224.511719 L 58.316406 226.019531 C 58.699219 225.433594 59.027344 224.753906 59.304688 224 Z M 69.636719 237.867188 C 69.496094 237.1875 69.253906 236.472656 68.917969 235.746094 C 68.171875 234.144531 67.007812 232.519531 65.539062 231.058594 C 64.074219 229.597656 62.453125 228.429688 60.84375 227.699219 C 60.109375 227.359375 59.398438 227.125 58.71875 226.984375 L 62.332031 225.472656 C 64.457031 224.863281 66.992188 225.691406 68.945312 227.636719 C 70.894531 229.582031 71.730469 232.117188 71.128906 234.25 Z M 84 237.25 C 82.335938 236.644531 80.367188 236.320312 78.300781 236.324219 C 76.234375 236.332031 74.265625 236.65625 72.601562 237.269531 C 71.851562 237.546875 71.175781 237.882812 70.597656 238.265625 L 72.09375 234.640625 C 73.160156 232.703125 75.535156 231.496094 78.292969 231.488281 C 81.050781 231.484375 83.425781 232.683594 84.511719 234.621094 L 86.015625 238.238281 C 85.429688 237.855469 84.75 237.523438 84 237.25 Z M 95.730469 227.628906 C 94.128906 228.378906 92.507812 229.542969 91.046875 231.011719 C 89.589844 232.480469 88.425781 234.101562 87.691406 235.714844 C 87.355469 236.449219 87.121094 237.160156 86.980469 237.839844 L 85.464844 234.21875 C 84.851562 232.089844 85.679688 229.550781 87.625 227.597656 C 89.570312 225.644531 92.097656 224.808594 94.230469 225.40625 L 97.847656 226.902344 C 97.167969 227.042969 96.457031 227.285156 95.730469 227.628906 Z M 94.628906 224.445312 C 92.691406 223.371094 91.484375 220.996094 91.480469 218.234375 C 91.472656 215.472656 92.667969 213.09375 94.605469 212.007812 L 98.21875 210.5 C 97.835938 211.078125 97.507812 211.761719 97.230469 212.515625 C 96.625 214.179688 96.300781 216.152344 96.308594 218.21875 C 96.316406 220.289062 96.636719 222.261719 97.25 223.925781 C 97.527344 224.679688 97.863281 225.351562 98.246094 225.933594 Z M 94.628906 224.445312 " fill-opacity="1" fill-rule="nonzero"/></g><g clip-path="url(#5a8f2766ef)"><path fill="#000000" d="M 179.25 73.492188 C 179.625 73.492188 180.089844 73.628906 180.863281 73.917969 C 182.339844 74.4375 182.625 74.691406 183.023438 75.734375 C 183.238281 76.292969 183.488281 76.617188 183.882812 76.816406 C 185.339844 77.5 185.789062 77.808594 185.898438 78.148438 C 185.953125 78.347656 186.003906 79.210938 186.023438 80.078125 C 186.023438 80.957031 186.132812 82.019531 186.257812 82.472656 C 186.402344 82.921875 186.597656 83.75 186.707031 84.308594 C 186.816406 84.886719 186.996094 85.390625 187.085938 85.441406 C 187.175781 85.515625 187.246094 85.730469 187.246094 85.964844 C 187.246094 86.179688 187.335938 86.453125 187.445312 86.558594 C 187.550781 86.667969 187.660156 87.0625 187.675781 87.441406 C 187.714844 87.839844 187.910156 88.539062 188.125 89.046875 C 188.574219 90.035156 188.757812 91.242188 188.484375 91.40625 C 188.46875 91.414062 188.449219 91.417969 188.421875 91.417969 C 188.171875 91.417969 187.488281 90.933594 186.492188 90.019531 C 183.992188 87.710938 180.144531 85.949219 175.472656 84.957031 C 174.988281 84.847656 174.464844 84.6875 174.355469 84.578125 C 174.015625 84.328125 174.070312 83.175781 174.464844 82.542969 C 174.644531 82.238281 174.859375 81.714844 174.933594 81.371094 C 175.003906 81.03125 175.183594 80.597656 175.308594 80.398438 C 175.453125 80.203125 175.5625 79.914062 175.5625 79.753906 C 175.5625 79.589844 175.667969 79.355469 175.8125 79.246094 C 176.046875 79.050781 176.171875 78.671875 176.710938 76.347656 C 177.035156 75.035156 177.378906 74.457031 178.257812 73.863281 C 178.625 73.617188 178.894531 73.492188 179.25 73.492188 Z M 242.761719 96.613281 C 242.761719 96.613281 242.765625 96.613281 242.765625 96.613281 Z M 206.28125 93.105469 C 206.503906 93.105469 206.71875 93.238281 206.859375 93.492188 C 207 93.746094 207.074219 95.097656 207.109375 97.3125 C 207.128906 99.941406 207.199219 100.929688 207.433594 101.542969 C 207.738281 102.410156 207.683594 102.824219 207.234375 102.824219 C 207.019531 102.824219 207 102.875 207.164062 103.039062 C 207.5 103.378906 207.445312 103.675781 207.117188 103.675781 C 207.0625 103.675781 207 103.667969 206.929688 103.652344 C 206.84375 103.628906 206.769531 103.621094 206.710938 103.621094 L 206.707031 103.621094 C 206.398438 103.621094 206.410156 103.875 206.769531 104.28125 C 207.074219 104.625 206.984375 105.164062 206.550781 105.613281 C 206.300781 105.847656 206.300781 105.957031 206.570312 106.460938 C 206.769531 106.875 206.820312 107.289062 206.75 107.773438 C 206.570312 108.964844 206.480469 109.125 206.066406 109.125 C 205.851562 109.125 205.5625 109.289062 205.4375 109.484375 C 205.300781 109.71875 205.007812 109.84375 204.726562 109.84375 C 204.527344 109.84375 204.332031 109.78125 204.195312 109.648438 C 204.128906 109.578125 204.0625 109.542969 203.996094 109.542969 C 203.910156 109.542969 203.816406 109.605469 203.695312 109.738281 C 203.515625 109.910156 203.445312 109.996094 203.339844 109.996094 C 203.230469 109.996094 203.082031 109.910156 202.742188 109.738281 C 202.09375 109.433594 202.09375 109.414062 202.363281 108.910156 C 202.488281 108.675781 202.488281 108.476562 202.382812 108.371094 C 202.164062 108.152344 202.382812 107.308594 202.8125 106.640625 C 202.992188 106.371094 203.15625 105.957031 203.171875 105.703125 C 203.191406 105.453125 203.28125 104.660156 203.351562 103.957031 C 203.441406 102.894531 203.566406 102.550781 203.925781 102.191406 C 204.160156 101.941406 204.449219 101.742188 204.554688 101.742188 C 204.664062 101.742188 204.609375 101.597656 204.449219 101.417969 C 204.070312 101.003906 204.070312 100.5 204.414062 99.832031 C 204.554688 99.542969 204.683594 98.949219 204.683594 98.5 C 204.683594 98.03125 204.828125 97.457031 205.023438 97.148438 C 205.238281 96.769531 205.382812 96.121094 205.4375 95.132812 C 205.492188 94.320312 205.617188 93.53125 205.761719 93.386719 C 205.90625 93.199219 206.09375 93.105469 206.28125 93.105469 Z M 222.003906 90.074219 C 222.207031 90.074219 222.429688 90.183594 222.746094 90.394531 C 223.054688 90.59375 223.519531 90.757812 223.789062 90.757812 C 224.132812 90.757812 224.492188 90.9375 224.816406 91.296875 C 225.410156 91.925781 226.039062 92.195312 226.9375 92.195312 C 227.296875 92.195312 227.851562 92.339844 228.140625 92.519531 C 228.445312 92.699219 228.96875 92.917969 229.308594 92.972656 C 231.035156 93.296875 232.453125 93.816406 233.535156 94.519531 C 234.289062 95.019531 234.628906 95.203125 234.957031 95.203125 C 235.042969 95.203125 235.128906 95.191406 235.222656 95.167969 C 235.324219 95.148438 235.425781 95.136719 235.53125 95.136719 C 235.789062 95.136719 236.050781 95.199219 236.265625 95.3125 C 237.667969 96.015625 238.40625 96.339844 238.65625 96.339844 C 238.703125 96.339844 238.757812 96.351562 238.816406 96.371094 L 238.8125 96.371094 L 239.476562 96.875 L 239.128906 97.390625 L 238.941406 98.292969 C 238.5 99.464844 238.078125 100.726562 237.667969 102.082031 C 237.585938 102.363281 237.488281 102.980469 237.382812 103.933594 C 237.355469 104.128906 237.339844 104.605469 237.339844 105.375 C 237.308594 105.558594 237.269531 105.8125 237.230469 106.128906 C 237.1875 106.105469 237.140625 106.078125 237.09375 106.046875 C 236.824219 105.867188 236.390625 105.703125 236.140625 105.703125 C 235.886719 105.703125 235.527344 105.597656 235.332031 105.453125 C 235.132812 105.324219 234.648438 105.109375 234.253906 104.984375 C 233.855469 104.859375 233.226562 104.570312 232.867188 104.316406 C 231.878906 103.648438 229.101562 102.707031 228.179688 102.707031 C 228.132812 102.707031 228.089844 102.710938 228.050781 102.714844 C 227.710938 102.769531 227.242188 102.804688 227.027344 102.824219 C 226.773438 102.824219 226.613281 102.929688 226.613281 103.09375 C 226.613281 103.25 226.515625 103.3125 226.222656 103.3125 C 226.117188 103.3125 225.984375 103.304688 225.820312 103.289062 C 225.644531 103.277344 225.46875 103.265625 225.320312 103.265625 C 225.109375 103.265625 224.953125 103.285156 224.921875 103.328125 C 224.78125 103.453125 223.539062 103.902344 223.269531 103.902344 C 223.144531 103.902344 223.019531 103.742188 222.964844 103.542969 C 222.898438 103.308594 222.808594 103.195312 222.730469 103.195312 C 222.636719 103.195312 222.558594 103.363281 222.566406 103.667969 C 222.566406 104.121094 222.460938 104.210938 221.6875 104.460938 C 221.203125 104.625 220.734375 104.894531 220.644531 105.039062 C 220.574219 105.167969 220.441406 105.25 220.328125 105.25 C 220.300781 105.25 220.273438 105.246094 220.25 105.234375 C 220.222656 105.226562 220.199219 105.21875 220.171875 105.21875 C 220.0625 105.21875 219.949219 105.300781 219.90625 105.414062 C 219.835938 105.578125 219.636719 105.703125 219.441406 105.703125 C 219.242188 105.703125 219.027344 105.867188 218.972656 106.082031 C 218.847656 106.445312 218.25 106.761719 217.894531 106.761719 C 217.734375 106.761719 217.625 106.699219 217.625 106.550781 C 217.625 106.425781 217.464844 106.226562 217.265625 106.101562 C 217.121094 106.015625 217.035156 105.972656 216.980469 105.972656 C 216.921875 105.972656 216.90625 106.03125 216.90625 106.15625 C 216.90625 106.296875 216.996094 106.425781 217.085938 106.425781 C 217.195312 106.425781 217.265625 106.660156 217.265625 106.964844 C 217.265625 107.289062 217.175781 107.503906 217.03125 107.503906 C 216.886719 107.503906 216.601562 107.722656 216.347656 107.972656 C 215.792969 108.570312 215.28125 108.859375 214.785156 108.859375 C 214.640625 108.859375 214.496094 108.832031 214.351562 108.785156 C 214.035156 108.675781 213.855469 108.613281 213.773438 108.609375 L 213.769531 108.609375 C 213.671875 108.613281 213.730469 108.714844 213.851562 108.945312 C 214.1875 109.570312 213.359375 111.386719 212.824219 111.386719 C 212.789062 111.386719 212.75 111.378906 212.71875 111.359375 C 212.667969 111.328125 212.636719 111.3125 212.621094 111.3125 L 212.617188 111.3125 C 212.59375 111.3125 212.628906 111.367188 212.71875 111.46875 C 212.964844 111.746094 212.761719 112.089844 212.4375 112.089844 C 212.382812 112.089844 212.328125 112.082031 212.269531 112.0625 C 212.171875 112.035156 212.113281 112.023438 212.082031 112.019531 L 212.078125 112.019531 C 212.03125 112.023438 212.085938 112.066406 212.230469 112.167969 C 212.464844 112.332031 212.449219 112.402344 212.105469 112.636719 C 211.890625 112.78125 211.601562 113.015625 211.476562 113.160156 C 211.351562 113.285156 211.027344 113.449219 210.757812 113.503906 C 210.625 113.535156 210.527344 113.554688 210.449219 113.554688 C 210.277344 113.554688 210.222656 113.457031 210.148438 113.195312 C 210.074219 112.871094 210.164062 112.566406 210.507812 112.132812 C 210.757812 111.792969 210.972656 111.429688 210.972656 111.304688 C 210.972656 111.195312 211.171875 111.015625 211.40625 110.925781 C 211.710938 110.820312 211.871094 110.585938 211.960938 110.097656 C 212.089844 109.359375 212.679688 108.605469 213.132812 108.585938 C 213.347656 108.566406 213.347656 108.53125 213.078125 108.332031 C 212.808594 108.117188 212.808594 108.0625 213.042969 107.867188 C 213.183594 107.738281 213.3125 107.359375 213.3125 107.035156 C 213.3125 106.621094 213.402344 106.425781 213.582031 106.425781 C 213.722656 106.425781 213.796875 106.316406 213.742188 106.191406 C 213.582031 105.757812 214.621094 104.011719 215.089844 103.902344 C 215.503906 103.8125 215.503906 103.796875 215.214844 103.488281 C 214.839844 103.109375 214.964844 102.640625 215.46875 102.515625 C 215.738281 102.445312 215.792969 102.316406 215.703125 101.902344 C 215.628906 101.507812 215.683594 101.363281 215.933594 101.253906 C 216.527344 101.039062 216.707031 100.769531 216.421875 100.570312 C 216.222656 100.425781 216.242188 100.285156 216.546875 99.671875 C 216.816406 99.125 217.234375 98.757812 217.507812 98.757812 C 217.59375 98.757812 217.667969 98.796875 217.714844 98.878906 C 217.761719 98.933594 217.824219 98.960938 217.894531 98.960938 C 217.9375 98.960938 217.980469 98.953125 218.019531 98.933594 C 218.109375 98.859375 218.003906 98.679688 217.734375 98.519531 C 217.480469 98.339844 217.320312 98.140625 217.390625 98.066406 C 217.480469 97.996094 217.535156 97.871094 217.554688 97.816406 C 217.570312 97.671875 217.914062 96.824219 218.289062 96.03125 C 218.433594 95.726562 218.503906 95.382812 218.453125 95.292969 C 218.398438 95.1875 218.398438 95.078125 218.46875 95.042969 C 218.722656 94.933594 219.421875 93.835938 219.78125 93.007812 C 220.015625 92.46875 220.335938 92.164062 220.609375 92.164062 C 220.738281 92.164062 220.859375 92.230469 220.949219 92.375 C 221 92.460938 221.167969 92.542969 221.320312 92.542969 C 221.335938 92.542969 221.351562 92.539062 221.363281 92.539062 C 221.542969 92.539062 221.4375 92.414062 221.09375 92.25 C 220.339844 91.871094 220.339844 91.496094 221.113281 90.683594 C 221.5 90.265625 221.738281 90.074219 222.003906 90.074219 Z M 214.816406 123.734375 C 215.042969 123.734375 215.320312 123.90625 215.738281 124.273438 C 216.492188 124.9375 216.527344 125.390625 215.988281 127.007812 C 215.574219 128.234375 215.214844 128.757812 214.765625 128.757812 C 214.605469 128.757812 214.246094 128.953125 213.941406 129.207031 C 213.628906 129.476562 213.332031 129.613281 213.105469 129.613281 C 212.84375 129.613281 212.664062 129.441406 212.628906 129.097656 C 212.59375 128.71875 212.734375 128.488281 213.347656 127.964844 C 213.8125 127.566406 214.226562 127.007812 214.390625 126.542969 C 214.640625 125.875 214.640625 125.695312 214.40625 125.046875 C 214.171875 124.417969 214.171875 124.234375 214.371094 124.003906 C 214.515625 123.828125 214.652344 123.734375 214.816406 123.734375 Z M 180.148438 129.667969 C 180.300781 129.667969 180.445312 129.75 180.578125 129.910156 C 180.738281 130.089844 180.703125 130.25 180.433594 130.574219 C 180.261719 130.789062 180.164062 130.882812 180.054688 130.882812 C 179.984375 130.882812 179.90625 130.835938 179.804688 130.753906 C 179.460938 130.46875 179.445312 130.160156 179.730469 129.875 C 179.871094 129.734375 180.011719 129.667969 180.148438 129.667969 Z M 192.621094 144.785156 C 192.554688 144.785156 192.476562 144.820312 192.40625 144.894531 C 192.261719 145.039062 192.421875 145.324219 192.65625 145.324219 C 192.746094 145.324219 192.820312 145.199219 192.820312 145.054688 C 192.820312 144.886719 192.734375 144.785156 192.621094 144.785156 Z M 177.847656 68.652344 C 177.765625 68.652344 177.71875 68.6875 177.71875 68.765625 C 177.71875 68.847656 177.601562 68.894531 177.378906 68.894531 C 177.265625 68.894531 177.117188 68.882812 176.945312 68.855469 C 176.734375 68.824219 176.578125 68.804688 176.453125 68.804688 C 176.136719 68.804688 176.03125 68.9375 175.757812 69.378906 C 175.398438 69.953125 175.382812 70.097656 175.578125 70.855469 C 175.796875 71.71875 175.617188 72.566406 175.203125 72.566406 C 175.113281 72.566406 175.023438 72.691406 175.023438 72.855469 C 175.023438 73.015625 174.859375 73.429688 174.644531 73.753906 C 174.445312 74.097656 174.320312 74.421875 174.355469 74.492188 C 174.484375 74.691406 174.015625 76.871094 173.800781 77.121094 C 173.691406 77.25 173.421875 78.078125 173.207031 78.960938 C 172.992188 79.859375 172.632812 80.996094 172.398438 81.5 C 172.164062 82.003906 171.914062 82.6875 171.859375 83.03125 C 171.679688 83.964844 171.300781 84.597656 170.851562 84.722656 C 170.617188 84.777344 170.113281 84.921875 169.71875 85.011719 C 169.324219 85.117188 168.820312 85.28125 168.585938 85.371094 C 168.351562 85.460938 167.957031 85.53125 167.6875 85.53125 C 167.417969 85.53125 166.808594 85.660156 166.304688 85.820312 C 165.820312 85.984375 165.332031 86.128906 165.226562 86.144531 C 162.726562 86.777344 161.398438 87.261719 159.726562 88.125 C 156.597656 89.746094 154.171875 91.855469 151.832031 94.988281 C 149.28125 98.410156 148.722656 99.726562 148.453125 102.824219 C 148.292969 104.640625 148.292969 105.253906 148.5625 108.136719 C 148.851562 111.054688 150.703125 115.699219 152.644531 118.257812 C 154.636719 120.921875 157.53125 123.082031 159.921875 123.695312 C 160.371094 123.820312 161.179688 124.144531 161.71875 124.433594 C 163.007812 125.097656 165.214844 125.839844 165.929688 125.839844 C 165.953125 125.839844 165.976562 125.839844 166 125.839844 C 166.050781 125.835938 166.101562 125.835938 166.148438 125.835938 C 166.675781 125.835938 166.933594 126.019531 166.933594 126.433594 C 166.933594 126.777344 166.898438 126.792969 165.945312 126.867188 C 165.65625 126.882812 164.902344 127.007812 164.289062 127.136719 C 163.835938 127.234375 163.496094 127.28125 163.199219 127.28125 C 162.945312 127.28125 162.726562 127.246094 162.492188 127.171875 C 162.117188 127.0625 160.769531 126.847656 159.472656 126.683594 C 158.195312 126.523438 157.011719 126.34375 156.867188 126.289062 C 156.722656 126.234375 156.203125 126.179688 155.699219 126.144531 C 154.726562 126.074219 153.917969 125.820312 153.722656 125.53125 C 153.640625 125.398438 153.535156 125.335938 153.449219 125.335938 C 153.34375 125.335938 153.273438 125.433594 153.34375 125.605469 C 153.414062 125.820312 153.273438 125.875 152.589844 125.875 C 152.121094 125.875 151.527344 125.765625 151.257812 125.621094 C 151.066406 125.527344 150.925781 125.476562 150.835938 125.476562 C 150.773438 125.476562 150.734375 125.5 150.71875 125.550781 C 150.695312 125.617188 150.648438 125.648438 150.582031 125.648438 C 150.503906 125.648438 150.394531 125.609375 150.25 125.53125 C 150.109375 125.457031 150.015625 125.417969 149.957031 125.417969 C 149.875 125.417969 149.855469 125.492188 149.855469 125.660156 C 149.855469 126.128906 149.390625 126.488281 148.328125 126.828125 C 147.375 127.152344 144.375 127.675781 143.546875 127.675781 C 143.242188 127.675781 142.792969 127.890625 142.449219 128.199219 C 141.640625 128.882812 141.175781 129.117188 140.542969 129.117188 C 140.257812 129.117188 139.773438 129.242188 139.503906 129.386719 C 139.214844 129.53125 138.820312 129.65625 138.621094 129.65625 C 138.421875 129.65625 138.152344 129.820312 138.027344 130.015625 C 137.867188 130.304688 137.613281 130.378906 136.949219 130.378906 C 136.25 130.378906 135.996094 130.46875 135.65625 130.828125 C 135.386719 131.117188 135.042969 131.277344 134.683594 131.277344 C 134.234375 131.277344 134.074219 131.386719 133.875 131.816406 C 133.515625 132.648438 132.886719 132.972656 131.609375 132.988281 C 130.695312 133.007812 130.335938 133.113281 129.578125 133.582031 C 129.078125 133.890625 128.195312 134.285156 127.621094 134.449219 C 126.558594 134.753906 125.949219 135.097656 124.925781 135.976562 C 124.222656 136.574219 121.742188 137.832031 120.933594 137.996094 C 120.609375 138.066406 120.015625 138.390625 119.621094 138.753906 C 119.207031 139.09375 118.378906 139.542969 117.75 139.742188 C 117.121094 139.957031 116.421875 140.28125 116.167969 140.480469 C 115.9375 140.660156 115.648438 140.824219 115.523438 140.824219 C 115.21875 140.824219 113.023438 142.984375 112.699219 143.578125 C 112.464844 144.027344 112.464844 144.136719 112.738281 144.53125 C 112.90625 144.800781 113.066406 144.933594 113.265625 144.933594 C 113.480469 144.933594 113.746094 144.773438 114.121094 144.441406 C 114.910156 143.757812 116.402344 142.984375 116.941406 142.984375 C 117.210938 142.984375 117.660156 142.730469 118.039062 142.355469 C 118.695312 141.714844 120.070312 141.164062 120.882812 141.164062 C 121.027344 141.164062 121.15625 141.179688 121.257812 141.21875 C 121.425781 141.277344 121.578125 141.304688 121.710938 141.304688 C 121.992188 141.304688 122.171875 141.179688 122.171875 140.949219 C 122.171875 140.425781 123.074219 139.867188 124.636719 139.472656 C 125.5 139.238281 126.578125 138.933594 127.007812 138.769531 C 127.441406 138.609375 127.890625 138.480469 128.035156 138.480469 C 128.160156 138.480469 128.753906 138.15625 129.363281 137.742188 C 129.976562 137.347656 130.730469 136.933594 131.035156 136.824219 C 132.007812 136.519531 134.144531 135.457031 134.398438 135.148438 C 134.523438 135.007812 134.882812 134.878906 135.1875 134.878906 C 135.492188 134.878906 135.941406 134.71875 136.195312 134.519531 C 136.445312 134.320312 136.824219 134.160156 137.039062 134.160156 C 137.253906 134.160156 137.703125 133.996094 138.027344 133.816406 C 138.605469 133.492188 139.324219 133.347656 141.765625 133.152344 C 142.394531 133.097656 143.601562 132.84375 144.410156 132.609375 C 145.4375 132.320312 145.917969 132.230469 147.136719 132.230469 C 147.492188 132.230469 147.917969 132.238281 148.4375 132.25 C 149.839844 132.304688 151.0625 132.414062 151.167969 132.519531 C 151.214844 132.566406 151.265625 132.585938 151.324219 132.585938 C 151.4375 132.585938 151.578125 132.515625 151.761719 132.375 C 151.992188 132.195312 152.503906 132.097656 152.976562 132.097656 C 153.304688 132.097656 153.613281 132.148438 153.792969 132.25 C 153.832031 132.277344 153.898438 132.289062 153.988281 132.289062 C 154.375 132.289062 155.167969 132.046875 155.84375 131.710938 C 156.160156 131.550781 156.492188 131.472656 156.828125 131.472656 C 157.246094 131.472656 157.664062 131.59375 158.054688 131.835938 C 158.417969 132.0625 158.660156 132.148438 159.160156 132.148438 C 159.375 132.148438 159.636719 132.132812 159.976562 132.105469 C 160.679688 132.050781 162.167969 131.960938 163.25 131.910156 C 167.507812 131.726562 168.585938 131.636719 169.59375 131.476562 C 170.152344 131.367188 171.265625 131.242188 172.054688 131.1875 C 172.847656 131.132812 173.996094 131.0625 174.625 131.007812 C 175.238281 130.972656 175.886719 130.863281 176.066406 130.773438 C 176.449219 130.570312 177.25 130.46875 177.941406 130.46875 C 178.597656 130.46875 179.15625 130.5625 179.15625 130.753906 C 179.15625 130.828125 178.851562 130.917969 178.492188 130.953125 C 177.628906 131.027344 177.59375 131.351562 178.4375 131.421875 C 178.78125 131.457031 179.15625 131.566406 179.265625 131.65625 C 179.570312 131.910156 179.679688 132.917969 179.480469 133.367188 C 179.300781 133.761719 178.636719 134.160156 178.167969 134.160156 C 178.023438 134.160156 177.898438 134.320312 177.898438 134.519531 C 177.898438 134.699219 177.683594 135.007812 177.429688 135.1875 C 177.179688 135.367188 176.75 135.691406 176.460938 135.90625 C 176.191406 136.140625 175.8125 136.320312 175.652344 136.320312 C 175.488281 136.320312 175.308594 136.464844 175.257812 136.625 C 175.128906 137.058594 172.992188 138.84375 172.59375 138.84375 C 172.433594 138.84375 172.253906 138.984375 172.199219 139.183594 C 172.164062 139.363281 171.769531 139.816406 171.320312 140.175781 C 170.789062 140.621094 170.550781 140.765625 170.203125 140.765625 C 170.101562 140.765625 169.992188 140.753906 169.863281 140.734375 C 169.628906 140.695312 169.472656 140.671875 169.390625 140.671875 L 169.386719 140.671875 C 169.242188 140.671875 169.328125 140.746094 169.59375 140.929688 C 169.808594 141.09375 169.988281 141.292969 169.988281 141.363281 C 169.988281 141.542969 169.144531 141.902344 168.675781 141.902344 C 168.300781 141.921875 168.300781 141.921875 168.605469 142.15625 C 169.019531 142.460938 168.804688 142.964844 168.136719 143.328125 C 167.964844 143.417969 167.839844 143.460938 167.710938 143.460938 C 167.554688 143.460938 167.394531 143.398438 167.132812 143.273438 C 166.886719 143.140625 166.617188 143.058594 166.472656 143.058594 C 166.4375 143.058594 166.410156 143.0625 166.394531 143.074219 C 166.105469 143.253906 166.339844 143.46875 166.933594 143.578125 C 167.417969 143.6875 167.742188 144.246094 167.292969 144.246094 C 167.203125 144.246094 167.058594 144.515625 166.96875 144.839844 C 166.699219 145.8125 165.640625 147.34375 165.0625 147.539062 C 164.8125 147.648438 164.777344 147.722656 164.957031 147.9375 C 165.316406 148.371094 165.101562 149.160156 164.488281 149.558594 C 163.984375 149.882812 163.929688 149.988281 164.003906 150.566406 C 164.074219 151 163.96875 151.503906 163.734375 152.0625 C 163.355469 152.890625 163.355469 152.90625 163.699219 153.25 C 164.164062 153.71875 164.148438 154.042969 163.660156 154.367188 C 163.300781 154.601562 163.285156 154.691406 163.480469 155.121094 C 163.699219 155.589844 163.609375 157.121094 163.339844 157.480469 C 163.195312 157.644531 162.960938 160.253906 162.960938 161.445312 C 162.960938 162.742188 163.140625 164.722656 163.300781 165.136719 C 163.410156 165.425781 163.410156 165.765625 163.285156 166.089844 C 163.160156 166.46875 163.175781 166.667969 163.390625 166.902344 C 163.554688 167.0625 163.878906 168.253906 164.128906 169.53125 C 164.6875 172.339844 165.152344 173.421875 165.78125 173.421875 C 166.394531 173.421875 166.683594 172.738281 166.410156 171.960938 C 166.089844 171.042969 165.925781 168.199219 166.195312 168.035156 C 166.339844 167.945312 166.339844 167.746094 166.230469 167.371094 C 165.710938 165.675781 165.621094 164.847656 165.925781 164.273438 C 166.089844 163.964844 166.214844 163.480469 166.214844 163.191406 C 166.214844 162.921875 166.285156 162.613281 166.375 162.523438 C 166.464844 162.417969 166.464844 161.964844 166.339844 161.425781 C 166.230469 160.902344 166.214844 160.363281 166.304688 160.164062 C 166.554688 159.589844 166.589844 158.941406 166.375 158.292969 C 166.128906 157.445312 166.523438 155.734375 166.960938 155.734375 C 166.96875 155.734375 166.976562 155.734375 166.988281 155.734375 C 167.015625 155.738281 167.039062 155.742188 167.0625 155.742188 C 167.324219 155.742188 167.375 155.484375 167.113281 155.320312 C 167.023438 155.265625 166.933594 154.960938 166.933594 154.65625 C 166.933594 154.328125 166.976562 154.191406 167.09375 154.191406 C 167.125 154.191406 167.160156 154.203125 167.203125 154.222656 C 167.246094 154.238281 167.28125 154.246094 167.316406 154.246094 C 167.429688 154.246094 167.472656 154.140625 167.472656 153.917969 C 167.472656 153.699219 167.632812 153.269531 167.8125 152.960938 C 168.011719 152.636719 168.300781 151.882812 168.480469 151.25 C 168.839844 149.953125 169.289062 149.179688 169.808594 149.015625 C 170.007812 148.945312 170.167969 148.820312 170.167969 148.730469 C 170.167969 148.511719 170.617188 148.027344 170.816406 148.027344 C 170.976562 148.027344 171.734375 147.199219 171.984375 146.75 C 172.074219 146.582031 172.179688 146.464844 172.242188 146.464844 C 172.253906 146.464844 172.261719 146.46875 172.273438 146.476562 C 172.285156 146.488281 172.300781 146.492188 172.320312 146.492188 C 172.390625 146.492188 172.492188 146.402344 172.578125 146.242188 C 173.007812 145.523438 173.746094 144.496094 174.160156 144.066406 C 174.410156 143.8125 174.808594 143.238281 175.078125 142.785156 C 175.578125 141.921875 177.71875 139.742188 178.058594 139.742188 C 178.1875 139.742188 178.4375 139.582031 178.636719 139.398438 C 178.832031 139.21875 179.605469 138.804688 180.359375 138.5 C 181.152344 138.164062 181.519531 138.027344 181.835938 138.027344 C 181.996094 138.027344 182.140625 138.0625 182.320312 138.121094 C 182.664062 138.230469 182.933594 138.445312 182.933594 138.570312 C 182.933594 138.699219 183.308594 138.949219 183.777344 139.128906 C 184.820312 139.542969 186.183594 140.605469 186.90625 141.597656 C 187.210938 142.011719 187.585938 142.355469 187.75 142.355469 C 188.125 142.355469 188.558594 143.597656 188.394531 144.136719 C 188.234375 144.605469 188.269531 144.695312 188.539062 144.695312 C 188.773438 144.695312 188.828125 144.875 189.3125 147.125 C 189.511719 148.027344 189.726562 148.566406 189.960938 148.730469 C 190.140625 148.855469 190.300781 149.109375 190.300781 149.289062 C 190.300781 149.808594 190.824219 150.675781 191.199219 150.78125 C 191.632812 150.890625 191.902344 151.539062 191.847656 152.367188 C 191.8125 152.800781 191.902344 153.050781 192.136719 153.214844 C 192.316406 153.339844 192.457031 153.554688 192.457031 153.683594 C 192.457031 153.808594 192.640625 154.058594 192.835938 154.257812 C 193.304688 154.671875 194.078125 156.257812 194.078125 156.796875 C 194.078125 157.03125 194.183594 157.210938 194.328125 157.210938 C 194.542969 157.210938 195.515625 158.90625 195.515625 159.28125 C 195.515625 159.335938 195.675781 159.625 195.890625 159.894531 C 196.109375 160.183594 196.339844 160.8125 196.429688 161.28125 C 196.558594 161.929688 196.773438 162.328125 197.277344 162.8125 C 198.03125 163.570312 198.265625 163.839844 198.550781 164.378906 C 198.660156 164.597656 198.875 164.777344 199.003906 164.777344 C 199.144531 164.777344 199.289062 164.902344 199.363281 165.046875 C 199.414062 165.191406 199.792969 165.441406 200.1875 165.605469 C 200.710938 165.820312 200.945312 166.019531 201.015625 166.378906 C 201.070312 166.632812 201.230469 167.0625 201.375 167.332031 C 201.519531 167.585938 201.625 167.910156 201.625 168.035156 C 201.625 168.179688 201.949219 168.578125 202.34375 168.9375 C 202.8125 169.367188 203.066406 169.746094 203.066406 170.035156 C 203.066406 170.289062 203.226562 170.628906 203.425781 170.808594 C 203.621094 170.988281 203.820312 171.277344 203.875 171.457031 C 203.945312 171.65625 204.089844 171.800781 204.234375 171.800781 C 204.359375 171.800781 204.71875 172.320312 205.023438 172.953125 C 205.328125 173.582031 205.636719 174.160156 205.742188 174.214844 C 205.832031 174.265625 206.101562 174.699219 206.316406 175.1875 C 206.550781 175.652344 206.839844 176.140625 206.964844 176.265625 C 207.089844 176.390625 207.253906 176.699219 207.308594 176.949219 C 207.351562 177.152344 207.453125 177.285156 207.535156 177.285156 C 207.550781 177.285156 207.5625 177.28125 207.578125 177.273438 C 207.589844 177.269531 207.601562 177.265625 207.613281 177.265625 C 207.703125 177.265625 207.820312 177.414062 207.898438 177.617188 C 208.132812 178.230469 210.378906 180.445312 210.757812 180.445312 C 211.261719 180.445312 211.511719 180.066406 211.511719 179.308594 C 211.511719 178.609375 211.421875 178.464844 209.894531 176.753906 C 209.714844 176.535156 209.445312 176.105469 209.300781 175.742188 C 209.160156 175.402344 208.925781 175.003906 208.800781 174.863281 C 208.65625 174.71875 208.167969 173.996094 207.738281 173.257812 C 207.289062 172.519531 206.75 171.621094 206.535156 171.277344 C 206.316406 170.917969 205.941406 170.214844 205.707031 169.730469 C 205.472656 169.222656 205.058594 168.503906 204.808594 168.125 C 204.539062 167.746094 204.324219 167.242188 204.324219 167.027344 C 204.324219 166.8125 204.054688 166.289062 203.746094 165.855469 C 203.425781 165.425781 203.082031 164.957031 202.976562 164.792969 C 202.886719 164.632812 202.6875 164.433594 202.578125 164.363281 C 202.453125 164.289062 202.34375 164.074219 202.34375 163.894531 C 202.34375 163.730469 202.128906 163.226562 201.84375 162.777344 C 201.125 161.605469 200.945312 161.15625 200.835938 160.363281 C 200.726562 159.335938 200.332031 158.113281 199.9375 157.519531 C 199.648438 157.085938 199.632812 156.976562 199.847656 156.832031 C 200.042969 156.691406 200.007812 156.601562 199.59375 156.292969 C 198.984375 155.824219 198.535156 154.996094 198.679688 154.617188 C 198.734375 154.457031 198.695312 154.332031 198.570312 154.332031 C 198.460938 154.332031 198.410156 154.257812 198.460938 154.167969 C 198.535156 154.078125 198.355469 153.933594 198.101562 153.84375 C 197.652344 153.699219 197.152344 152.710938 197.132812 151.972656 C 197.132812 151.828125 196.898438 151.519531 196.59375 151.304688 C 196.304688 151.070312 196.054688 150.746094 196.054688 150.546875 C 196.054688 150.367188 195.980469 150.152344 195.875 150.097656 C 195.785156 150.042969 195.570312 149.683594 195.390625 149.324219 C 195.125 148.746094 194.242188 147.5625 194.097656 147.5625 C 194.082031 147.5625 194.078125 147.574219 194.078125 147.59375 C 194.078125 147.605469 194.074219 147.613281 194.066406 147.613281 C 194.023438 147.613281 193.882812 147.464844 193.71875 147.253906 C 193.519531 147 193.359375 146.660156 193.359375 146.496094 C 193.359375 146.367188 193.3125 146.28125 193.246094 146.28125 C 193.230469 146.28125 193.214844 146.289062 193.195312 146.296875 C 193.171875 146.3125 193.148438 146.320312 193.121094 146.320312 C 192.6875 146.320312 191.679688 144.644531 191.847656 144.117188 C 191.886719 143.988281 191.898438 143.917969 191.882812 143.914062 L 191.875 143.914062 C 191.859375 143.917969 191.828125 143.957031 191.777344 144.027344 C 191.71875 144.117188 191.679688 144.160156 191.644531 144.160156 C 191.597656 144.160156 191.5625 144.089844 191.523438 143.9375 C 191.46875 143.757812 191.363281 143.453125 191.273438 143.273438 C 191.203125 143.097656 191.191406 143.019531 191.246094 143.019531 L 191.25 143.019531 C 191.277344 143.019531 191.320312 143.039062 191.378906 143.074219 C 191.441406 143.109375 191.484375 143.132812 191.507812 143.132812 C 191.558594 143.132812 191.542969 143.054688 191.46875 142.875 C 191.398438 142.695312 191.289062 142.265625 191.238281 141.941406 C 191.199219 141.617188 191.09375 141.308594 191.003906 141.253906 C 190.914062 141.203125 190.839844 141.003906 190.839844 140.824219 C 190.839844 140.644531 190.589844 140.320312 190.285156 140.101562 C 189.886719 139.796875 189.761719 139.582031 189.796875 139.238281 C 189.851562 138.789062 190.136719 138.503906 190.464844 138.503906 C 190.589844 138.503906 190.714844 138.542969 190.839844 138.625 C 191.050781 138.753906 191.171875 138.828125 191.246094 138.828125 C 191.34375 138.828125 191.375 138.71875 191.433594 138.480469 C 191.488281 138.265625 191.6875 138.121094 191.917969 138.121094 C 192.117188 138.121094 192.476562 137.921875 192.710938 137.671875 C 192.945312 137.417969 193.214844 137.222656 193.339844 137.222656 C 193.449219 137.222656 193.539062 137.09375 193.539062 136.96875 C 193.539062 136.625 194.632812 135.78125 195.066406 135.78125 C 195.246094 135.78125 195.550781 135.90625 195.710938 136.070312 C 195.890625 136.230469 196.269531 136.410156 196.539062 136.445312 C 196.992188 136.527344 197.589844 136.566406 198.050781 136.566406 C 198.425781 136.566406 198.710938 136.539062 198.75 136.484375 C 198.804688 136.429688 199.144531 136.320312 199.503906 136.265625 C 199.683594 136.238281 199.816406 136.222656 199.90625 136.222656 C 200.101562 136.222656 200.125 136.292969 200.0625 136.464844 C 200.03125 136.585938 200.023438 136.644531 200.046875 136.644531 C 200.0625 136.644531 200.09375 136.621094 200.132812 136.574219 C 200.324219 136.292969 201.339844 135.796875 201.652344 135.796875 C 201.660156 135.796875 201.671875 135.796875 201.679688 135.796875 C 201.699219 135.800781 201.722656 135.804688 201.753906 135.804688 C 201.898438 135.804688 202.175781 135.765625 202.398438 135.691406 C 202.523438 135.65625 202.636719 135.640625 202.738281 135.640625 C 202.90625 135.640625 203.039062 135.683594 203.117188 135.761719 C 203.226562 135.871094 203.515625 135.960938 203.765625 135.960938 C 204 135.960938 204.609375 136.160156 205.113281 136.394531 C 205.617188 136.644531 206.226562 136.878906 206.480469 136.933594 C 207.289062 137.09375 208.0625 138.03125 208.296875 139.167969 C 208.421875 139.722656 208.527344 140.390625 208.546875 140.644531 C 208.582031 140.894531 208.691406 141.632812 208.800781 142.300781 C 209.015625 143.578125 208.90625 144.101562 208.132812 145.597656 C 207.792969 146.226562 207.703125 146.945312 207.9375 146.964844 C 207.972656 146.964844 208.242188 146.890625 208.511719 146.785156 C 208.800781 146.675781 209.105469 146.585938 209.195312 146.585938 C 209.285156 146.585938 209.355469 146.476562 209.355469 146.351562 C 209.355469 146.226562 209.519531 145.9375 209.714844 145.722656 C 209.929688 145.503906 210.019531 145.324219 209.949219 145.324219 C 209.878906 145.324219 210.003906 145.199219 210.21875 145.039062 C 210.488281 144.855469 210.613281 144.585938 210.613281 144.15625 C 210.613281 143.8125 210.6875 143.507812 210.777344 143.453125 C 210.867188 143.398438 210.972656 143.09375 211.046875 142.769531 C 211.351562 140.914062 211.460938 139.816406 211.332031 139.652344 C 211.261719 139.5625 211.207031 139.023438 211.226562 138.480469 C 211.242188 137.617188 211.296875 137.492188 211.640625 137.4375 C 211.671875 137.433594 211.703125 137.429688 211.730469 137.429688 C 211.945312 137.429688 212.121094 137.539062 212.230469 137.742188 C 212.339844 137.960938 212.609375 138.121094 212.84375 138.121094 C 213.347656 138.121094 214.136719 138.714844 214.300781 139.203125 C 214.371094 139.398438 214.515625 139.5625 214.640625 139.5625 C 214.964844 139.5625 215.46875 140.15625 215.46875 140.515625 C 215.46875 140.679688 215.738281 140.929688 216.0625 141.074219 C 216.367188 141.203125 216.90625 141.578125 217.246094 141.886719 C 217.589844 142.191406 218.039062 142.496094 218.234375 142.550781 C 218.648438 142.679688 219.746094 143.488281 220.625 144.300781 C 221.09375 144.75 221.167969 144.894531 221.003906 145.109375 C 220.871094 145.269531 220.847656 145.328125 220.957031 145.328125 C 220.996094 145.328125 221.054688 145.320312 221.128906 145.308594 C 221.148438 145.304688 221.167969 145.300781 221.1875 145.300781 C 221.589844 145.300781 222.363281 146.117188 222.910156 147.125 C 223.109375 147.46875 223.484375 147.992188 223.773438 148.277344 C 224.042969 148.585938 224.277344 148.875 224.277344 148.925781 C 224.277344 149 224.472656 149.144531 224.726562 149.25 C 224.976562 149.359375 225.175781 149.574219 225.175781 149.738281 C 225.175781 149.882812 225.246094 150.007812 225.320312 150.007812 C 225.410156 150.007812 225.910156 150.546875 226.449219 151.195312 C 227.90625 152.980469 227.90625 152.980469 228.660156 152.996094 C 229.128906 153.015625 229.453125 153.140625 229.652344 153.394531 C 229.8125 153.59375 230.136719 153.808594 230.386719 153.878906 C 231.035156 154.078125 232.90625 156.078125 232.777344 156.4375 C 232.71875 156.59375 232.722656 156.664062 232.808594 156.664062 C 232.851562 156.664062 232.910156 156.648438 232.996094 156.617188 C 233.066406 156.585938 233.140625 156.574219 233.214844 156.574219 C 233.632812 156.574219 234.097656 157.023438 234.433594 157.769531 C 234.628906 158.203125 234.847656 158.617188 234.9375 158.671875 C 235.007812 158.726562 235.0625 158.851562 235.027344 158.941406 C 234.988281 159.03125 235.117188 159.300781 235.296875 159.554688 C 235.421875 159.738281 235.539062 159.867188 235.582031 159.867188 C 235.59375 159.867188 235.601562 159.859375 235.601562 159.839844 C 235.601562 159.8125 235.609375 159.800781 235.625 159.800781 C 235.765625 159.800781 236.519531 160.949219 236.859375 161.714844 C 237.058594 162.164062 237.433594 162.902344 237.667969 163.351562 C 237.917969 163.820312 238.117188 164.308594 238.117188 164.453125 C 238.117188 164.597656 238.277344 164.867188 238.476562 165.046875 C 238.65625 165.207031 238.960938 165.765625 239.125 166.269531 C 239.304688 166.828125 239.734375 167.496094 240.21875 168 C 240.722656 168.523438 241.261719 169.367188 241.660156 170.269531 C 242.339844 171.832031 242.484375 172.074219 242.824219 172.074219 C 242.855469 172.074219 242.886719 172.074219 242.917969 172.070312 C 243.886719 171.980469 244.050781 171.816406 244.050781 170.863281 C 244.050781 170.195312 243.960938 169.890625 243.707031 169.675781 C 243.292969 169.316406 241.890625 166.632812 241.890625 166.179688 C 241.890625 166.019531 241.820312 165.839844 241.730469 165.765625 C 241.621094 165.710938 241.210938 164.992188 240.8125 164.183594 C 240.398438 163.371094 239.753906 162.417969 239.359375 162.054688 C 238.835938 161.570312 238.65625 161.246094 238.65625 160.851562 C 238.65625 160.507812 238.511719 160.21875 238.261719 160.039062 C 237.902344 159.789062 237.882812 159.714844 238.117188 159.554688 C 238.351562 159.390625 238.277344 159.28125 237.757812 158.832031 C 237.253906 158.417969 237.164062 158.273438 237.363281 158.09375 C 237.644531 157.796875 237.640625 157.441406 237.394531 157.441406 L 237.390625 157.441406 C 237.355469 157.441406 237.316406 157.449219 237.273438 157.464844 C 237.242188 157.476562 237.210938 157.484375 237.179688 157.484375 C 236.964844 157.484375 236.648438 157.226562 236.105469 156.636719 C 235.1875 155.628906 235.117188 155.355469 235.761719 155.265625 C 236.410156 155.160156 235.851562 154.691406 235.078125 154.691406 C 234.234375 154.691406 234.074219 154.566406 233.804688 153.699219 C 233.675781 153.304688 233.425781 152.816406 233.265625 152.621094 C 233.085938 152.421875 232.90625 152.007812 232.867188 151.71875 C 232.832031 151.359375 232.671875 151.125 232.402344 151 C 232.078125 150.855469 232.023438 150.726562 232.113281 150.222656 C 232.222656 149.703125 232.148438 149.574219 231.554688 149.054688 C 231.179688 148.730469 230.675781 148.296875 230.441406 148.0625 C 230.207031 147.847656 229.972656 147.667969 229.9375 147.667969 C 229.757812 147.667969 228.410156 146.261719 228.410156 146.0625 C 228.410156 145.957031 228.355469 145.867188 228.285156 145.867188 C 228.195312 145.867188 227.980469 145.738281 227.800781 145.59375 C 227.53125 145.378906 227.492188 145.289062 227.671875 145.074219 C 227.871094 144.839844 227.78125 144.785156 227.207031 144.695312 C 226.828125 144.625 226.398438 144.53125 226.234375 144.496094 C 225.75 144.371094 223.414062 141.976562 223.289062 141.488281 C 223.179688 141.109375 223.054688 141.003906 222.640625 141.003906 C 222.296875 141.003906 221.886719 140.769531 221.308594 140.230469 C 220.859375 139.816406 219.960938 139.023438 219.316406 138.480469 C 218.558594 137.851562 218.003906 137.203125 217.785156 136.71875 C 217.589844 136.304688 217.320312 135.960938 217.175781 135.960938 C 217.03125 135.960938 216.90625 135.886719 216.90625 135.816406 C 216.90625 135.726562 216.691406 135.546875 216.4375 135.421875 C 215.808594 135.078125 215.46875 134.339844 215.46875 133.347656 C 215.46875 132.574219 215.503906 132.503906 216.277344 132.035156 C 216.726562 131.765625 217.085938 131.457031 217.085938 131.351562 C 217.085938 131.261719 217.320312 130.9375 217.625 130.648438 C 217.914062 130.378906 218.109375 130.070312 218.039062 129.964844 C 217.984375 129.875 218.054688 129.730469 218.183594 129.640625 C 218.324219 129.566406 218.453125 129.351562 218.46875 129.171875 C 218.46875 128.992188 218.613281 128.503906 218.777344 128.070312 C 218.917969 127.65625 219.007812 127.191406 218.957031 127.0625 C 218.902344 126.917969 218.9375 126.757812 219.027344 126.703125 C 219.207031 126.59375 219.027344 125.351562 218.683594 124.308594 C 218.59375 124.003906 218.488281 123.550781 218.46875 123.316406 C 218.398438 122.652344 217.695312 121.460938 217.230469 121.246094 C 216.433594 120.855469 214.75 120.339844 214.386719 120.339844 C 214.363281 120.339844 214.347656 120.34375 214.335938 120.347656 C 214.273438 120.367188 214.207031 120.378906 214.136719 120.378906 C 213.761719 120.378906 213.3125 120.074219 213.3125 119.769531 C 213.3125 119.246094 213.507812 118.851562 213.742188 118.851562 C 214.046875 118.851562 216.402344 117.410156 217.03125 116.851562 C 217.300781 116.601562 217.824219 116.023438 218.164062 115.554688 C 218.503906 115.105469 218.9375 114.710938 219.117188 114.710938 C 219.386719 114.710938 219.53125 114.292969 219.441406 113.753906 C 219.433594 113.726562 219.453125 113.710938 219.496094 113.710938 C 219.554688 113.710938 219.65625 113.742188 219.765625 113.808594 C 219.859375 113.859375 219.953125 113.878906 220.035156 113.878906 C 220.269531 113.878906 220.394531 113.699219 220.140625 113.539062 C 219.855469 113.359375 220.285156 112.90625 220.699219 112.90625 C 220.898438 112.90625 221.039062 112.78125 221.039062 112.636719 C 221.039062 112.492188 221.167969 112.367188 221.308594 112.367188 C 221.453125 112.367188 221.578125 112.257812 221.578125 112.117188 C 221.578125 111.753906 222.046875 111.414062 222.566406 111.414062 C 222.820312 111.414062 223.019531 111.359375 223.019531 111.269531 C 223.019531 111.101562 223.558594 110.984375 224 110.984375 C 224.230469 110.984375 224.4375 111.015625 224.527344 111.089844 C 224.605469 111.160156 224.667969 111.195312 224.71875 111.195312 C 224.785156 111.195312 224.835938 111.136719 224.886719 111.015625 C 224.941406 110.871094 225.085938 110.746094 225.210938 110.746094 C 225.335938 110.746094 225.679688 110.53125 225.964844 110.277344 C 226.21875 110.035156 226.367188 109.925781 226.46875 109.925781 C 226.535156 109.925781 226.582031 109.96875 226.628906 110.042969 C 226.71875 110.1875 226.792969 110.367188 226.792969 110.476562 C 226.796875 110.492188 226.800781 110.5 226.808594 110.5 C 226.839844 110.5 226.921875 110.3125 227.027344 110.027344 C 227.171875 109.628906 227.441406 109.289062 227.78125 109.125 C 228.085938 108.964844 228.535156 108.695312 228.789062 108.53125 C 229.054688 108.359375 229.273438 108.28125 229.625 108.28125 C 229.789062 108.28125 229.984375 108.296875 230.226562 108.332031 C 231.234375 108.460938 231.699219 108.746094 233.40625 110.1875 C 234.46875 111.089844 234.539062 111.414062 233.964844 112.65625 C 233.550781 113.59375 233.570312 114.402344 234.019531 114.492188 C 234.03125 114.496094 234.046875 114.496094 234.0625 114.496094 C 234.449219 114.496094 235.714844 113.675781 236.335938 113.035156 C 236.503906 112.867188 236.628906 112.78125 236.710938 112.78125 C 236.753906 112.78125 236.785156 112.804688 236.804688 112.855469 C 236.984375 113.320312 237.523438 113.738281 238.027344 113.773438 C 238.871094 113.828125 241.890625 115.410156 242.125 115.914062 C 242.21875 116.132812 242.363281 116.269531 242.515625 116.269531 C 242.542969 116.269531 242.566406 116.265625 242.59375 116.257812 C 242.605469 116.253906 242.617188 116.253906 242.632812 116.253906 C 243.121094 116.253906 245.546875 117.945312 245.667969 118.402344 C 245.722656 118.597656 245.917969 118.796875 246.117188 118.816406 C 246.601562 118.90625 247.484375 119.355469 247.914062 119.75 C 248.113281 119.933594 248.433594 120.113281 248.613281 120.148438 C 248.8125 120.164062 249.136719 120.527344 249.371094 120.921875 C 249.589844 121.328125 249.855469 121.59375 250.023438 121.59375 C 250.035156 121.59375 250.042969 121.589844 250.054688 121.589844 C 250.070312 121.585938 250.085938 121.585938 250.101562 121.585938 C 250.355469 121.585938 250.742188 121.84375 251.367188 122.433594 C 251.726562 122.777344 252.839844 123.535156 253 123.535156 C 253.074219 123.535156 253.324219 123.714844 253.578125 123.949219 C 253.828125 124.183594 254.617188 124.792969 255.339844 125.316406 C 256.9375 126.488281 258.070312 127.621094 258.070312 128.070312 C 258.070312 128.253906 258.179688 128.394531 258.320312 128.394531 C 258.574219 128.394531 258.824219 128.992188 259.058594 130.160156 C 259.148438 130.574219 259.09375 130.898438 258.878906 131.242188 C 258.75 131.4375 258.695312 131.546875 258.726562 131.546875 C 258.742188 131.546875 258.765625 131.53125 258.808594 131.492188 C 258.957031 131.355469 259.0625 131.253906 259.136719 131.253906 C 259.304688 131.253906 259.324219 131.753906 259.402344 133.421875 C 259.453125 134.339844 259.5625 135.1875 259.671875 135.292969 C 259.921875 135.546875 259.921875 136.25 259.652344 136.664062 C 259.492188 136.933594 259.507812 137.148438 259.777344 137.6875 C 260.082031 138.335938 260.082031 138.410156 259.796875 138.894531 C 259.632812 139.183594 259.507812 139.632812 259.492188 139.886719 C 259.492188 140.15625 259.417969 140.535156 259.347656 140.734375 C 259.257812 140.929688 259.257812 141.21875 259.347656 141.382812 C 259.527344 141.722656 259.222656 143.507812 258.863281 144.371094 C 258.71875 144.675781 258.609375 145.054688 258.609375 145.199219 C 258.609375 145.363281 258.5 145.523438 258.394531 145.578125 C 258.230469 145.632812 258.25 145.722656 258.484375 145.867188 C 258.644531 145.972656 258.789062 146.226562 258.789062 146.425781 C 258.789062 146.726562 258.925781 146.878906 259.117188 146.878906 C 259.292969 146.878906 259.507812 146.753906 259.707031 146.496094 C 259.921875 146.242188 260.28125 145.9375 260.515625 145.867188 C 260.839844 145.738281 260.945312 145.558594 260.945312 145.109375 C 260.945312 144.785156 261.074219 144.371094 261.214844 144.171875 C 261.359375 143.976562 261.433594 143.632812 261.359375 143.328125 C 261.304688 143.039062 261.34375 142.695312 261.433594 142.589844 C 261.683594 142.265625 261.863281 140.734375 261.917969 138.390625 C 261.972656 135.976562 261.792969 134.410156 261.378906 133.960938 C 261 133.527344 261.164062 132.863281 261.738281 132.464844 L 262.1875 132.179688 L 261.648438 131.65625 C 261.089844 131.078125 261 130.613281 261.359375 129.964844 C 261.46875 129.746094 261.59375 129.550781 261.613281 129.511719 C 261.617188 129.503906 261.625 129.503906 261.640625 129.503906 C 261.703125 129.503906 261.851562 129.558594 262.007812 129.65625 C 262.164062 129.742188 262.269531 129.78125 262.324219 129.78125 C 262.457031 129.78125 262.289062 129.550781 261.84375 129.171875 C 261.539062 128.917969 261.324219 128.667969 261.378906 128.628906 C 261.433594 128.578125 261.304688 128.214844 261.125 127.839844 C 260.929688 127.460938 260.765625 127.007812 260.765625 126.847656 C 260.765625 126.667969 260.605469 126 260.40625 125.351562 C 260.210938 124.703125 260.011719 123.859375 259.957031 123.480469 C 259.867188 122.921875 259.777344 122.8125 259.417969 122.8125 C 259.183594 122.8125 258.84375 122.617188 258.628906 122.34375 C 258.429688 122.09375 257.871094 121.679688 257.371094 121.445312 C 256.417969 120.957031 255.285156 119.933594 255.519531 119.769531 C 255.730469 119.625 256.125 118.859375 256.003906 118.851562 L 256 118.851562 C 255.941406 118.855469 255.675781 118.960938 255.410156 119.101562 C 255.140625 119.230469 254.65625 119.355469 254.3125 119.355469 C 254.300781 119.355469 254.285156 119.355469 254.273438 119.355469 C 253.640625 119.355469 252.675781 118.953125 252.675781 118.707031 C 252.675781 118.617188 252.40625 118.417969 252.066406 118.257812 C 251.726562 118.09375 251.347656 117.734375 251.203125 117.464844 C 251.042969 117.105469 250.71875 116.871094 250.105469 116.671875 C 249.640625 116.511719 249.027344 116.1875 248.757812 115.933594 C 248.488281 115.679688 248.09375 115.410156 247.894531 115.355469 C 247.679688 115.285156 247.230469 114.800781 246.90625 114.257812 C 246.367188 113.394531 246.207031 113.269531 245.542969 113.160156 C 244.824219 113.050781 244.355469 112.746094 243.832031 112.0625 C 243.707031 111.882812 243.257812 111.46875 242.84375 111.125 C 242.414062 110.800781 242.070312 110.421875 242.070312 110.277344 C 242.070312 110.152344 241.800781 109.917969 241.480469 109.773438 C 240.757812 109.484375 239.914062 108.511719 239.914062 107.992188 C 239.914062 107.773438 240.113281 107.308594 240.328125 106.964844 C 240.5625 106.621094 240.8125 106.136719 240.867188 105.882812 C 240.921875 105.632812 241.082031 105.074219 241.246094 104.625 C 241.390625 104.171875 241.585938 103.398438 241.695312 102.914062 C 241.945312 101.652344 242.972656 98.789062 243.671875 97.367188 C 244.230469 96.265625 244.265625 96.160156 244.03125 95.617188 C 243.726562 94.933594 243.222656 94.699219 240.542969 93.980469 C 240.515625 93.972656 240.488281 93.964844 240.460938 93.957031 L 240.457031 93.957031 C 240.277344 93.777344 240.089844 93.59375 239.886719 93.414062 C 239.015625 92.871094 237.046875 91.996094 233.984375 90.785156 C 232.09375 89.417969 230.667969 88.519531 229.710938 88.09375 C 229.628906 88.058594 229.515625 88.019531 229.367188 87.980469 L 229.359375 87.980469 C 229.269531 87.914062 229.171875 87.875 229.074219 87.875 C 228.554688 87.875 225.355469 86.089844 225.355469 85.804688 C 225.355469 85.660156 225.425781 85.351562 225.535156 85.101562 C 225.625 84.851562 225.640625 84.636719 225.554688 84.632812 L 225.550781 84.632812 C 225.386719 84.636719 225.15625 85.210938 225.101562 85.714844 C 225.09375 85.921875 224.707031 86.046875 224.292969 86.046875 C 224.03125 86.046875 223.757812 85.996094 223.558594 85.894531 C 223.222656 85.71875 222.757812 85.625 222.351562 85.625 C 222.011719 85.625 221.710938 85.691406 221.5625 85.820312 C 221.398438 85.972656 221.140625 86.035156 220.5 86.035156 C 220.21875 86.035156 219.867188 86.023438 219.421875 86 C 218.875 85.96875 218.488281 85.945312 218.199219 85.945312 C 217.558594 85.945312 217.390625 86.050781 216.996094 86.363281 C 216.652344 86.613281 216.257812 86.847656 216.097656 86.867188 C 215.828125 86.902344 215.523438 87.425781 214.082031 90.25 C 213.8125 90.792969 213.542969 91.117188 213.347656 91.117188 C 213.09375 91.117188 212.96875 91.40625 212.773438 92.324219 C 212.539062 93.367188 212.449219 93.546875 212.050781 93.636719 C 211.65625 93.726562 211.585938 93.890625 211.40625 94.828125 C 211.191406 96.085938 211.0625 96.320312 210.542969 96.519531 C 210.429688 96.5625 210.324219 96.582031 210.226562 96.582031 C 209.554688 96.582031 209.28125 95.566406 209.5 93.726562 C 209.609375 92.792969 209.679688 92.648438 210.039062 92.59375 C 210.253906 92.558594 210.433594 92.414062 210.433594 92.234375 C 210.433594 92.089844 210.253906 91.765625 210.039062 91.511719 C 209.699219 91.152344 209.625 90.882812 209.625 89.820312 C 209.625 88.8125 209.570312 88.539062 209.320312 88.398438 C 209.140625 88.289062 208.996094 88.125 208.996094 88.019531 C 208.996094 87.929688 208.800781 87.675781 208.546875 87.476562 C 208.296875 87.28125 208.097656 87.011719 208.097656 86.867188 C 208.097656 86.738281 207.757812 86.398438 207.34375 86.128906 C 206.730469 85.714844 206.390625 85.625 205.382812 85.605469 C 205.277344 85.601562 205.179688 85.601562 205.089844 85.601562 C 204.421875 85.601562 204.132812 85.664062 204.070312 85.820312 C 204.015625 85.964844 203.820312 86.074219 203.621094 86.074219 C 203.351562 86.074219 203.117188 86.378906 202.707031 87.261719 C 202.417969 87.910156 201.96875 88.703125 201.734375 89.007812 C 201.140625 89.785156 200.871094 90.539062 200.890625 91.296875 C 200.890625 91.636719 200.800781 92.070312 200.65625 92.285156 C 200.3125 92.808594 200.152344 94.125 200.367188 94.539062 C 200.53125 94.828125 200.476562 94.96875 200.132812 95.3125 C 199.703125 95.707031 199.613281 95.980469 199.308594 98.050781 C 199.21875 98.644531 199.09375 99.257812 199.039062 99.402344 C 198.984375 99.542969 198.859375 100.878906 198.75 102.371094 C 198.589844 104.875 198.535156 105.144531 198.011719 106.15625 C 197.707031 106.75 197.367188 107.289062 197.242188 107.359375 C 197.171875 107.40625 197.027344 107.429688 196.832031 107.429688 C 196.359375 107.429688 195.617188 107.300781 195.121094 107.109375 C 194.578125 106.910156 194.363281 106.476562 194.542969 105.992188 C 194.597656 105.832031 194.5625 105.578125 194.4375 105.433594 C 194.257812 105.21875 194.238281 104.480469 194.328125 102.226562 C 194.398438 100.625 194.507812 98.894531 194.5625 98.410156 C 194.707031 97.113281 194.6875 96.355469 194.472656 95.4375 C 194.363281 94.988281 194.273438 94.125 194.257812 93.511719 C 194.257812 92.898438 194.183594 92 194.078125 91.53125 C 193.988281 91.0625 193.859375 90.339844 193.824219 89.945312 C 193.789062 89.550781 193.664062 88.9375 193.554688 88.59375 C 193.449219 88.253906 193.285156 87.191406 193.195312 86.253906 C 192.746094 81.96875 192.476562 79.789062 192.152344 77.824219 C 192.097656 77.519531 191.972656 77.25 191.882812 77.25 C 191.597656 77.25 191.019531 76.511719 191.019531 76.167969 C 191.019531 75.988281 190.425781 75.214844 189.691406 74.421875 C 188.164062 72.800781 186.832031 72.007812 185.269531 71.808594 C 183.542969 71.59375 182.03125 71.125 182.03125 70.800781 C 182.03125 70.710938 181.746094 70.550781 181.402344 70.421875 C 181.042969 70.296875 180.59375 70.027344 180.398438 69.8125 C 180.199219 69.59375 179.660156 69.289062 179.191406 69.125 C 178.726562 68.964844 178.203125 68.785156 178.042969 68.695312 C 177.964844 68.667969 177.902344 68.652344 177.847656 68.652344 Z M 177.847656 68.652344 " fill-opacity="1" fill-rule="nonzero"/></g></svg>